<?xml version="1.0" standalone="no"?>
<!DOCTYPE svg PUBLIC "-//W3C//DTD SVG 20010904//EN"
 "http://www.w3.org/TR/2001/REC-SVG-20010904/DTD/svg10.dtd">
<svg version="1.0" xmlns="http://www.w3.org/2000/svg"
 width="1000.000000pt" height="1000.000000pt" viewBox="0 0 1000.000000 1000.000000"
 preserveAspectRatio="xMidYMid meet">
<metadata>
Created by potrace 1.14, written by Peter Selinger 2001-2017
</metadata>
<g transform="translate(0.000000,1000.000000) scale(0.100000,-0.100000)"
fill="#000000" stroke="none">
<path d="M1476 9653 c-6 -14 -5 -15 5 -6 7 7 10 15 7 18 -3 3 -9 -2 -12 -12z"/>
<path d="M1550 9658 c0 -4 6 -8 14 -8 8 0 17 4 20 8 2 4 -4 8 -15 8 -10 0 -19
-4 -19 -8z"/>
<path d="M1604 9653 c-28 -25 -46 -27 -62 -6 -13 16 -14 16 -9 1 8 -22 3 -23
-17 -2 -13 12 -16 12 -16 2 0 -8 -11 -14 -25 -14 -18 0 -24 4 -20 14 5 13 3
13 -11 1 -17 -14 -64 -21 -64 -10 0 4 -9 7 -19 7 -11 0 -17 -4 -15 -8 3 -4 0
-8 -5 -8 -6 0 -11 6 -11 13 0 8 -3 9 -8 1 -4 -6 -20 -11 -37 -12 -42 -1 -85
-9 -116 -21 -15 -5 -30 -7 -35 -3 -4 4 -5 0 -1 -9 4 -13 1 -16 -15 -11 -13 3
-19 1 -15 -5 3 -5 0 -10 -8 -10 -8 0 -12 4 -9 9 3 4 1 8 -4 8 -6 0 -13 -7 -16
-16 -3 -8 -10 -13 -15 -9 -5 3 -12 1 -16 -5 -3 -5 -1 -10 6 -10 7 0 10 -3 7
-6 -4 -3 -16 -1 -27 6 -17 8 -21 8 -19 -2 2 -7 -5 -13 -15 -13 -10 0 -22 -7
-27 -15 -5 -8 -10 -11 -10 -7 0 4 -6 2 -14 -5 -8 -7 -11 -17 -8 -23 3 -5 -1
-4 -10 3 -14 11 -18 10 -30 -7 -8 -12 -17 -18 -21 -15 -3 3 -10 -4 -17 -15 -6
-12 -15 -21 -21 -21 -6 0 -7 5 -3 12 4 6 3 8 -4 4 -6 -3 -9 -16 -7 -27 3 -16
1 -18 -8 -10 -10 7 -18 4 -32 -12 -11 -12 -19 -25 -17 -29 1 -4 -5 -5 -13 -2
-9 4 -15 0 -15 -7 0 -8 -10 -25 -21 -39 -11 -14 -18 -19 -14 -12 3 6 2 12 -3
12 -6 0 -13 -7 -16 -16 -3 -8 -10 -13 -15 -9 -6 3 -8 -3 -6 -14 2 -13 -3 -22
-16 -26 -10 -4 -19 -11 -19 -16 0 -6 6 -7 12 -3 8 4 10 3 5 -2 -5 -5 -14 -9
-20 -9 -7 0 -10 -9 -9 -20 3 -16 2 -17 -12 -6 -14 12 -16 11 -10 -4 5 -13 4
-16 -4 -11 -8 5 -10 1 -5 -10 5 -13 3 -15 -7 -9 -10 6 -12 4 -7 -9 6 -14 3
-17 -9 -12 -15 6 -15 4 -3 -11 11 -13 11 -15 1 -9 -9 5 -15 1 -19 -13 -3 -11
-9 -18 -14 -15 -5 3 -6 -2 -3 -10 4 -11 0 -16 -11 -16 -9 0 -14 -4 -11 -9 9
-14 -5 -42 -18 -34 -6 3 -8 3 -4 -2 4 -4 2 -15 -5 -24 -11 -14 -10 -14 6 -2
10 8 17 9 17 3 0 -6 -10 -16 -21 -23 -17 -9 -19 -13 -8 -20 11 -7 11 -9 -3 -9
-9 0 -20 -5 -24 -12 -4 -7 -3 -8 4 -4 7 4 12 2 12 -3 0 -6 -4 -11 -10 -11 -5
0 -10 -8 -10 -18 0 -10 -6 -24 -13 -31 -9 -11 -9 -14 1 -18 6 -3 12 -9 12 -14
0 -6 -4 -7 -10 -4 -5 3 -10 3 -11 -2 -5 -46 -8 -56 -19 -63 -10 -6 -9 -9 1
-13 12 -5 12 -6 0 -6 -11 -1 -11 -4 -1 -16 10 -12 10 -15 -1 -15 -11 0 -11 -2
1 -10 13 -9 13 -10 0 -10 -13 0 -13 -1 0 -10 9 -6 11 -10 3 -10 -7 0 -10 -7
-7 -15 4 -8 0 -23 -7 -32 -8 -9 -9 -14 -3 -10 7 4 15 0 18 -9 3 -8 2 -12 -4
-9 -6 3 -10 2 -10 -4 0 -5 8 -15 17 -20 16 -9 15 -11 -7 -11 -14 -1 -19 -4
-12 -7 16 -6 16 -35 0 -52 -10 -11 -10 -13 0 -7 8 5 12 -1 12 -19 0 -15 -4
-24 -10 -20 -6 4 -7 -1 -3 -11 5 -13 3 -15 -7 -9 -9 5 -11 4 -6 -4 6 -9 11 -9
24 1 14 12 14 10 2 -12 -18 -32 -20 -49 -9 -56 5 -3 9 -12 9 -20 0 -8 -4 -12
-10 -9 -11 7 -3 -23 11 -41 5 -6 6 -14 2 -17 -3 -4 0 -15 8 -24 11 -15 11 -16
-1 -5 -18 16 -27 15 -27 -3 0 -8 4 -12 8 -9 12 7 7 -39 -5 -55 -8 -11 -8 -13
2 -7 8 5 12 -1 12 -19 0 -15 -4 -24 -10 -20 -6 4 -7 -1 -3 -11 5 -13 3 -15 -7
-9 -9 5 -11 4 -6 -4 6 -9 12 -9 24 1 15 11 15 10 -1 -14 -12 -19 -13 -26 -4
-22 8 3 14 -2 14 -10 0 -9 -6 -12 -16 -8 -13 5 -14 3 -5 -9 16 -20 23 -78 9
-73 -7 3 -12 -2 -12 -10 0 -8 4 -13 8 -11 4 3 10 -2 13 -11 3 -8 2 -12 -4 -9
-13 8 -13 -1 0 -25 9 -17 8 -18 -7 -13 -15 5 -16 4 -7 -8 6 -8 13 -28 16 -45
3 -26 1 -31 -11 -26 -9 3 -13 2 -9 -3 4 -4 3 -13 -2 -20 -7 -8 -5 -12 5 -12 8
0 11 5 8 11 -3 6 -2 8 2 3 5 -4 9 -16 10 -26 1 -13 -3 -17 -14 -13 -14 5 -14
4 -2 -12 21 -25 22 -56 2 -48 -9 3 -13 2 -9 -3 4 -4 3 -13 -2 -20 -7 -8 -5
-12 5 -12 8 0 12 4 9 9 -3 4 2 5 11 1 12 -4 13 -8 5 -13 -8 -5 -9 -13 -4 -21
6 -10 3 -10 -11 1 -19 14 -19 14 -4 -10 16 -26 15 -65 -2 -55 -5 3 -6 -2 -2
-11 5 -13 3 -15 -7 -9 -9 5 -11 4 -6 -4 6 -9 12 -9 24 1 15 12 15 10 0 -14
-15 -23 -15 -28 -3 -38 8 -7 12 -16 9 -22 -3 -5 0 -17 7 -26 11 -14 11 -15 -1
-4 -18 16 -27 15 -27 -3 0 -8 4 -12 8 -9 12 7 7 -39 -5 -55 -8 -11 -8 -13 2
-7 8 5 12 -1 12 -19 0 -15 -4 -24 -10 -20 -6 4 -7 -1 -3 -11 5 -13 3 -15 -7
-9 -9 5 -11 4 -6 -4 6 -9 12 -9 24 1 15 12 15 11 0 -13 -12 -19 -14 -29 -6
-37 19 -19 17 -51 -1 -44 -9 3 -13 2 -9 -3 4 -4 3 -13 -2 -20 -7 -8 -5 -12 5
-12 8 0 12 4 9 9 -3 4 2 5 11 1 12 -4 13 -8 5 -13 -8 -5 -9 -13 -4 -21 6 -10
3 -10 -11 1 -17 14 -18 14 -5 -10 20 -36 20 -59 1 -52 -13 5 -14 3 -5 -9 16
-20 23 -78 9 -73 -7 3 -12 -2 -12 -10 0 -8 4 -13 8 -11 4 3 10 -2 13 -11 3 -8
2 -12 -4 -9 -13 8 -13 -1 0 -25 9 -17 8 -18 -7 -13 -15 5 -16 4 -7 -8 6 -8 13
-28 16 -45 3 -26 1 -31 -11 -26 -9 3 -13 2 -9 -3 4 -4 3 -13 -2 -20 -7 -8 -5
-12 5 -12 8 0 11 5 8 10 -3 6 -2 7 4 4 5 -3 9 -16 7 -29 -1 -13 -3 -27 -3 -31
-1 -5 -5 -5 -11 -2 -6 4 -7 -1 -3 -11 5 -13 3 -15 -7 -9 -9 5 -11 4 -6 -4 6
-9 12 -9 24 1 15 12 15 10 0 -14 -15 -23 -15 -28 -3 -38 8 -7 12 -16 9 -22 -3
-5 0 -17 7 -26 11 -14 11 -15 -1 -4 -18 16 -27 15 -27 -3 0 -8 4 -12 8 -9 12
7 7 -39 -5 -55 -8 -11 -8 -13 1 -7 9 5 13 -1 13 -19 0 -15 -4 -24 -10 -20 -6
4 -7 -1 -3 -11 5 -13 3 -15 -7 -9 -9 5 -11 4 -6 -4 6 -9 11 -9 24 1 14 12 14
10 2 -12 -18 -32 -20 -49 -9 -56 5 -3 9 -12 9 -20 0 -8 -4 -12 -10 -9 -11 7
-3 -23 11 -41 5 -6 6 -14 2 -17 -3 -4 0 -15 8 -24 11 -15 11 -16 -1 -5 -18 16
-27 15 -27 -3 0 -8 4 -12 8 -9 12 7 7 -39 -5 -55 -8 -11 -8 -13 2 -7 8 5 12
-1 12 -19 0 -15 -4 -24 -10 -20 -6 4 -7 -1 -3 -11 5 -13 3 -15 -7 -9 -9 5 -11
4 -6 -4 6 -9 12 -9 24 1 15 11 15 10 -1 -14 -12 -19 -13 -26 -4 -22 8 3 14 -2
14 -10 0 -9 -6 -12 -16 -8 -13 5 -14 3 -5 -9 16 -20 23 -78 9 -73 -7 3 -12 -2
-12 -10 0 -8 4 -13 8 -11 4 3 10 -2 13 -11 3 -8 2 -12 -4 -9 -13 8 -13 -1 0
-25 9 -17 8 -18 -7 -13 -15 5 -16 4 -7 -8 6 -8 13 -28 16 -45 3 -26 1 -31 -11
-26 -9 3 -13 2 -9 -3 4 -4 3 -13 -2 -20 -7 -8 -5 -12 5 -12 8 0 11 5 8 11 -3
6 -2 8 2 3 5 -4 9 -16 10 -26 1 -13 -3 -17 -14 -13 -14 5 -14 4 -2 -12 21 -25
22 -56 2 -48 -9 3 -13 2 -9 -3 4 -4 3 -13 -2 -20 -7 -8 -5 -12 5 -12 8 0 12 4
9 9 -3 4 2 5 11 1 12 -4 13 -8 5 -13 -8 -5 -9 -13 -4 -21 6 -10 3 -10 -11 1
-19 14 -19 14 -4 -10 16 -26 15 -65 -2 -55 -5 3 -6 -2 -2 -11 5 -13 3 -15 -7
-9 -9 5 -11 4 -6 -4 6 -9 12 -9 24 1 15 12 15 10 0 -14 -15 -23 -15 -28 -3
-38 8 -7 12 -16 9 -22 -3 -5 0 -17 7 -26 11 -14 11 -15 -1 -4 -18 16 -27 15
-27 -3 0 -8 4 -12 8 -9 12 7 7 -39 -5 -55 -8 -11 -8 -13 2 -7 8 5 12 -1 12
-19 0 -15 -4 -24 -10 -20 -6 4 -7 -1 -3 -11 5 -13 3 -15 -7 -9 -9 5 -11 4 -6
-4 6 -9 12 -9 24 1 15 12 15 11 0 -13 -12 -19 -14 -29 -6 -37 15 -15 18 -51 3
-46 -6 3 -11 -6 -12 -18 -2 -18 0 -20 8 -8 9 12 10 11 6 -7 -3 -15 -1 -20 9
-16 8 3 14 -1 15 -8 0 -8 4 -5 9 6 7 17 9 17 9 3 1 -10 6 -18 12 -18 5 0 7 6
3 13 -5 8 -2 8 9 -2 15 -12 17 -11 17 3 0 9 5 16 11 16 5 0 8 -4 4 -9 -3 -5
-1 -12 5 -16 5 -3 10 0 10 7 0 8 3 9 8 3 4 -5 20 -11 35 -11 22 -1 27 2 23 15
-4 11 -2 10 9 -3 9 -12 15 -15 15 -7 0 8 6 11 15 7 8 -3 23 -9 33 -12 14 -5
15 -4 2 5 -8 6 -10 11 -4 11 5 0 15 -5 22 -12 9 -9 12 -8 12 7 0 18 0 18 16
-1 8 -10 13 -13 9 -6 -3 6 -1 12 4 12 6 0 11 -3 11 -7 0 -5 15 -8 34 -8 19 0
32 3 30 7 -3 4 0 8 5 8 6 0 11 -4 11 -8 0 -5 6 -9 14 -9 9 0 12 6 8 16 -5 13
-3 14 9 5 8 -6 28 -13 45 -16 26 -3 31 -1 26 11 -5 14 -3 14 11 2 9 -7 24 -11
32 -7 9 3 13 2 10 -3 -3 -5 0 -13 6 -17 8 -4 9 -3 5 4 -5 8 5 12 31 13 54 1
132 -2 154 -6 11 -2 17 0 14 6 -8 12 2 12 26 -1 13 -7 19 -7 19 0 0 5 5 10 11
10 5 0 8 -4 5 -8 -3 -5 1 -9 9 -9 8 0 12 4 9 9 -3 4 -1 8 5 8 5 0 12 -6 14
-12 3 -8 6 -9 6 -2 1 6 11 10 24 8 59 -9 116 -10 111 -2 -7 11 3 10 27 -2 13
-7 19 -7 19 0 0 5 5 10 11 10 5 0 7 -5 3 -11 -5 -8 -1 -8 14 0 15 8 22 8 25
-2 4 -9 6 -9 6 1 1 10 6 10 22 1 15 -8 19 -8 15 0 -4 6 -3 11 3 11 5 0 11 -6
14 -12 3 -10 8 -10 18 1 12 12 12 13 0 6 -9 -5 -12 -4 -7 3 10 17 26 15 26 -3
0 -8 5 -15 11 -15 5 0 7 6 3 13 -5 8 -2 8 9 -2 15 -12 17 -11 17 5 0 17 1 17
16 -2 8 -10 13 -13 9 -6 -3 6 -1 12 4 12 6 0 11 -3 11 -7 0 -5 15 -8 34 -8 19
0 32 3 30 7 -3 4 0 8 5 8 6 0 11 -4 11 -8 0 -5 6 -9 14 -9 9 0 12 6 8 16 -5
13 -3 14 9 5 8 -6 28 -13 45 -16 26 -3 31 -1 26 11 -5 14 -3 14 11 2 9 -7 24
-11 32 -7 9 3 13 2 10 -3 -3 -5 0 -13 6 -17 8 -4 9 -3 5 5 -5 8 0 10 18 7 15
-3 24 -1 21 5 -8 12 2 12 26 -1 13 -7 19 -7 19 0 0 5 5 10 11 10 5 0 8 -4 5
-8 -3 -5 1 -9 9 -9 8 0 12 4 9 9 -3 4 0 8 5 8 6 0 11 -6 11 -12 0 -8 3 -9 8
-3 8 12 53 15 46 4 -2 -4 1 -11 7 -15 8 -5 9 -3 4 6 -6 9 3 11 38 8 30 -3 44
-1 40 5 -4 7 1 8 13 3 28 -12 74 -15 68 -5 -7 12 3 11 27 -1 13 -7 19 -7 19 0
0 5 5 10 11 10 5 0 8 -4 5 -8 -3 -5 1 -9 9 -9 8 0 12 4 9 9 -3 4 -1 8 5 8 5 0
12 -6 14 -12 4 -10 6 -10 6 0 1 10 6 10 21 2 15 -8 20 -8 20 2 0 8 3 9 8 3 4
-5 20 -11 35 -11 22 -1 27 2 23 15 -4 11 -2 10 9 -3 9 -12 15 -15 15 -7 0 7 6
11 13 8 6 -3 21 -8 32 -12 16 -6 17 -5 5 4 -8 6 -10 11 -4 11 5 0 15 -5 22
-12 9 -9 12 -8 12 7 0 18 0 18 16 -1 8 -10 13 -13 9 -6 -3 6 -1 12 4 12 6 0
11 -3 11 -7 0 -5 15 -8 34 -8 19 0 32 3 30 7 -3 4 0 8 5 8 6 0 11 -4 11 -8 0
-5 6 -9 14 -9 9 0 12 6 8 16 -5 13 -3 14 9 5 8 -6 28 -13 45 -16 26 -3 31 -1
26 11 -5 14 -3 14 11 2 9 -7 24 -11 32 -7 9 3 13 2 10 -3 -3 -5 0 -13 6 -17 8
-4 9 -3 5 4 -5 8 5 12 31 13 54 1 132 -2 154 -6 11 -2 17 0 14 6 -8 12 2 12
26 -1 13 -7 19 -7 19 0 0 5 5 10 11 10 5 0 8 -4 5 -8 -3 -5 1 -9 9 -9 8 0 12
4 9 9 -3 4 -1 8 5 8 5 0 12 -6 14 -12 3 -8 6 -9 6 -2 1 6 11 10 24 8 59 -9
116 -10 111 -2 -7 11 3 10 27 -2 13 -7 19 -7 19 0 0 5 5 10 11 10 5 0 7 -5 3
-11 -5 -8 -1 -8 14 0 15 8 22 8 25 -2 4 -9 6 -9 6 1 1 10 6 10 22 1 15 -8 19
-8 15 0 -4 6 -3 11 3 11 5 0 11 -6 14 -12 3 -10 8 -10 18 1 12 12 12 13 0 6
-9 -5 -12 -4 -7 3 10 17 26 15 26 -3 0 -8 5 -15 11 -15 5 0 7 6 3 13 -5 8 -2
8 9 -2 15 -12 17 -11 17 5 0 17 1 17 16 -2 8 -10 13 -13 9 -6 -3 6 -1 12 4 12
6 0 11 -3 11 -7 0 -5 15 -8 34 -8 19 0 32 3 30 7 -3 4 0 8 5 8 6 0 11 -4 11
-8 0 -5 6 -9 14 -9 9 0 12 6 8 16 -5 13 -3 14 9 5 8 -6 28 -13 45 -16 26 -3
31 -1 26 11 -5 14 -3 14 11 2 9 -7 24 -11 32 -7 9 3 13 2 10 -3 -3 -5 0 -13 6
-17 8 -4 9 -3 5 5 -5 8 0 10 18 7 15 -3 24 -1 21 5 -8 12 2 12 26 -1 13 -7 19
-7 19 0 0 5 5 10 11 10 5 0 8 -4 5 -8 -3 -5 1 -9 9 -9 8 0 12 4 9 9 -3 4 0 8
5 8 6 0 11 -6 11 -12 0 -8 3 -9 8 -3 8 12 53 15 46 4 -2 -4 1 -11 7 -15 8 -5
9 -3 4 6 -6 9 3 11 38 8 30 -3 44 -1 40 5 -4 7 1 8 13 3 28 -12 74 -15 68 -5
-7 12 3 11 27 -1 13 -7 19 -7 19 0 0 5 5 10 11 10 5 0 8 -4 5 -8 -3 -5 1 -9 9
-9 8 0 12 4 9 9 -3 4 -1 8 5 8 5 0 12 -6 14 -12 4 -10 6 -10 6 0 1 10 6 10 21
2 15 -8 20 -8 20 2 0 8 3 9 8 3 4 -5 20 -11 35 -11 22 -1 27 2 23 15 -4 11 -2
10 9 -3 9 -12 15 -15 15 -7 0 8 6 11 15 7 8 -3 23 -9 33 -12 14 -5 15 -4 2 5
-8 6 -10 11 -4 11 5 0 15 -5 22 -12 9 -9 12 -8 12 7 0 18 0 18 16 -1 8 -10 13
-13 9 -6 -3 6 -1 12 4 12 6 0 11 -3 11 -7 0 -5 15 -8 34 -8 19 0 32 3 30 7 -3
4 0 8 5 8 6 0 11 -4 11 -8 0 -5 6 -9 14 -9 9 0 12 7 9 16 -5 13 -3 14 8 4 15
-14 83 -18 75 -4 -3 4 8 7 25 5 27 -3 29 -2 15 12 -17 17 -21 28 -7 20 5 -3
12 1 15 10 9 24 7 31 -4 14 -8 -12 -10 -9 -10 12 0 14 -5 28 -12 30 -7 3 -5 7
6 11 11 5 15 3 10 -5 -5 -7 -3 -8 5 -3 9 5 10 10 2 18 -15 15 -14 40 2 31 9
-6 9 -4 -1 8 -7 8 -10 23 -6 32 5 13 2 15 -12 9 -14 -5 -13 -1 6 16 18 16 20
21 7 17 -14 -5 -16 -2 -9 11 5 9 7 24 5 34 -3 11 0 19 7 19 7 0 2 9 -11 21
l-24 20 25 -12 c20 -9 23 -9 13 1 -6 7 -9 19 -6 26 4 10 0 12 -13 7 -14 -5
-13 -1 6 16 14 13 18 21 9 18 -17 -5 -20 26 -4 40 4 5 5 2 0 -6 -5 -9 -4 -12
3 -7 9 5 7 15 -6 34 -9 14 -12 23 -5 19 16 -10 22 14 9 37 -8 14 -8 20 3 24
10 3 7 9 -10 19 l-24 14 24 -5 c17 -3 21 -2 13 6 -6 6 -8 17 -5 24 4 10 0 12
-13 7 -14 -5 -13 -1 6 16 14 13 18 21 9 18 -17 -5 -20 26 -4 40 4 5 5 2 0 -6
-5 -9 -4 -12 3 -7 9 5 7 15 -6 34 -9 14 -12 23 -5 19 16 -10 22 14 9 37 -8 14
-8 20 3 24 10 3 7 9 -10 19 l-24 14 24 -5 c17 -3 21 -2 13 6 -6 6 -8 17 -5 24
4 10 0 12 -13 7 -14 -5 -13 -1 6 16 18 16 20 21 7 17 -14 -5 -16 -2 -9 11 5 9
7 24 5 34 -3 11 0 19 7 19 7 0 2 9 -11 21 l-24 20 25 -12 c20 -9 23 -9 13 1
-6 7 -9 19 -6 26 4 10 0 12 -13 7 -14 -5 -13 -1 6 16 14 13 18 21 9 18 -17 -5
-20 26 -4 40 4 5 5 2 0 -6 -5 -9 -4 -12 3 -7 9 5 7 15 -6 34 -9 14 -12 23 -5
19 16 -10 22 14 9 37 -8 14 -8 20 3 24 10 3 7 9 -10 19 l-24 14 24 -5 c17 -3
21 -2 13 6 -6 6 -8 17 -5 24 4 10 0 12 -13 7 -14 -5 -13 -1 6 16 14 13 18 21
9 18 -17 -5 -20 26 -4 40 4 5 5 2 0 -6 -5 -9 -4 -12 3 -7 9 5 7 15 -6 34 -9
14 -12 23 -5 19 16 -10 22 14 9 37 -8 14 -8 20 3 24 10 3 7 9 -10 19 l-24 14
24 -5 c17 -3 21 -2 13 6 -6 6 -8 17 -5 24 4 10 0 12 -13 7 -14 -5 -13 -1 6 16
18 16 20 21 7 17 -14 -5 -16 -2 -9 11 5 9 7 24 5 34 -3 11 0 19 7 19 7 0 2 9
-11 21 l-24 20 25 -12 c20 -9 23 -9 13 1 -6 7 -9 19 -6 26 4 10 0 12 -13 7
-14 -5 -13 -1 6 16 14 13 18 21 9 18 -17 -5 -20 26 -4 40 4 5 5 2 0 -6 -5 -9
-4 -12 3 -7 9 5 7 15 -6 34 -9 14 -12 23 -5 19 16 -10 22 14 9 37 -8 14 -8 20
3 24 10 3 7 9 -10 19 l-24 14 24 -5 c17 -3 21 -2 13 6 -6 6 -8 17 -5 24 4 10
0 12 -13 7 -14 -5 -13 -1 6 16 14 13 18 21 9 18 -17 -5 -20 26 -4 40 4 5 5 2
0 -6 -5 -9 -4 -12 3 -7 9 5 7 15 -6 34 -9 14 -12 23 -5 19 16 -10 22 14 9 37
-8 14 -8 20 3 24 10 3 7 9 -10 19 l-24 14 24 -5 c17 -3 21 -2 13 6 -6 6 -8 17
-5 24 4 10 0 12 -13 7 -14 -5 -13 -1 6 16 18 16 20 21 7 17 -14 -5 -16 -2 -9
11 5 9 7 24 5 34 -3 11 0 19 7 19 7 0 2 9 -11 21 l-24 20 25 -12 c20 -9 23 -9
13 1 -6 7 -9 19 -6 26 4 10 0 12 -13 7 -14 -5 -13 -1 6 16 14 13 18 21 9 18
-17 -5 -20 26 -4 40 4 5 5 2 0 -6 -5 -9 -4 -12 3 -7 9 5 7 15 -6 34 -9 14 -12
23 -5 19 16 -10 22 14 9 37 -8 14 -8 20 3 24 10 3 7 9 -10 19 l-24 14 24 -5
c17 -3 21 -2 13 6 -6 6 -8 17 -5 24 4 10 0 12 -13 7 -14 -5 -13 -1 6 16 14 13
18 21 9 18 -17 -5 -20 26 -4 40 4 5 5 2 0 -6 -5 -9 -4 -12 3 -7 9 5 7 15 -6
34 -9 14 -12 23 -5 19 16 -10 22 14 9 37 -8 14 -8 20 3 24 10 3 7 9 -10 19
l-24 14 24 -5 c17 -3 21 -2 13 6 -6 6 -8 17 -5 24 4 10 0 12 -13 7 -14 -5 -13
-1 6 16 18 16 20 21 7 17 -14 -5 -16 -2 -9 11 5 9 7 24 5 34 -3 11 0 19 7 19
7 0 2 9 -11 21 l-24 20 25 -12 c20 -9 23 -9 13 1 -6 7 -9 19 -6 26 4 10 0 12
-13 7 -14 -5 -13 -1 6 16 14 13 18 21 9 18 -17 -5 -20 26 -4 40 4 5 5 2 0 -6
-5 -9 -4 -12 3 -7 9 5 7 15 -6 34 -9 14 -12 23 -5 19 16 -10 22 14 9 37 -8 14
-8 20 3 24 10 3 7 9 -10 19 l-24 14 24 -5 c17 -3 21 -2 13 6 -6 6 -8 17 -5 24
4 10 0 12 -13 7 -14 -5 -13 -1 6 16 14 13 18 21 9 18 -17 -5 -20 26 -4 40 4 5
5 2 0 -6 -5 -9 -4 -12 3 -7 9 5 7 15 -6 34 -9 14 -12 23 -5 19 16 -10 22 14 9
37 -8 14 -8 20 3 24 10 3 7 9 -10 19 l-24 14 24 -5 c17 -3 21 -2 13 6 -6 6 -8
17 -5 24 4 10 0 12 -13 7 -14 -5 -13 -1 6 16 18 16 20 21 7 17 -14 -5 -16 -2
-9 11 5 9 7 24 5 34 -3 11 0 19 7 19 7 0 2 9 -11 21 l-24 20 25 -12 c20 -9 23
-9 13 1 -6 7 -9 19 -6 26 4 10 0 12 -13 7 -14 -5 -13 -1 6 16 14 13 18 21 9
18 -17 -5 -20 26 -4 40 4 5 5 2 0 -6 -5 -9 -4 -12 3 -7 9 5 7 15 -6 34 -9 14
-12 23 -5 19 16 -10 22 14 9 37 -8 14 -8 20 3 24 10 3 7 9 -10 19 l-24 14 24
-5 c17 -3 21 -2 13 6 -6 6 -8 17 -5 24 4 10 0 12 -13 7 -14 -5 -13 -1 6 16 14
13 18 21 9 18 -17 -5 -20 26 -4 40 4 5 5 2 0 -6 -5 -9 -4 -12 3 -7 9 5 7 15
-6 34 -9 14 -12 23 -5 19 16 -10 22 14 9 37 -8 14 -8 20 3 24 10 3 7 9 -10 19
l-24 14 24 -5 c17 -3 21 -2 13 6 -6 6 -8 17 -5 24 4 10 0 12 -13 7 -14 -5 -13
-1 6 16 18 16 20 21 7 17 -14 -5 -16 -2 -9 11 5 9 7 24 5 34 -3 11 0 19 7 19
7 0 2 9 -11 21 l-24 20 25 -12 c20 -9 23 -9 13 1 -6 7 -9 19 -6 26 4 10 0 12
-13 7 -14 -5 -13 -1 6 16 14 13 18 21 9 18 -17 -5 -20 26 -4 40 4 5 5 2 0 -6
-6 -10 -4 -12 4 -7 9 6 8 12 -4 26 -15 17 -15 19 2 29 17 10 17 10 -2 11 -11
1 -15 4 -8 6 8 4 9 13 3 29 -5 12 -6 26 -3 29 4 3 1 6 -6 6 -7 0 -11 -6 -8
-13 3 -8 -1 -14 -9 -14 -7 0 -10 5 -7 11 4 6 -1 5 -10 -3 -14 -11 -17 -11 -18
0 -1 8 -1 18 0 23 1 5 -5 4 -13 -4 -19 -15 -21 -24 -3 -14 6 4 8 3 4 -2 -10
-11 -67 -13 -67 -2 0 4 -5 8 -11 8 -5 0 -8 -4 -5 -8 3 -5 -1 -9 -9 -9 -14 0
-19 10 -16 32 1 6 -8 -1 -19 -14 -11 -13 -20 -18 -20 -12 0 6 -5 11 -11 11 -5
0 -8 -4 -5 -8 3 -5 -1 -9 -9 -9 -14 0 -19 11 -16 31 1 5 -4 4 -12 -3 -12 -9
-16 -9 -21 1 -3 7 -3 3 0 -9 5 -22 -8 -26 -33 -10 -6 4 -14 1 -16 -5 -4 -10
-6 -10 -6 0 -1 13 -31 17 -31 4 0 -11 -68 -8 -94 3 -10 4 -21 4 -25 -2 -7 -11
-51 -11 -68 0 -8 5 -13 3 -13 -4 0 -7 -9 -2 -20 11 -11 13 -20 19 -20 14 0 -6
6 -16 12 -22 10 -10 8 -12 -7 -9 -11 1 -25 6 -32 10 -6 4 -14 1 -16 -5 -4 -10
-6 -10 -6 0 -1 13 -31 17 -31 4 0 -11 -68 -8 -94 3 -10 4 -21 4 -25 -2 -7 -11
-51 -11 -68 0 -8 5 -13 4 -13 -2 0 -6 -5 -11 -11 -11 -5 0 -7 5 -4 10 3 6 2
10 -4 10 -5 0 -12 -6 -14 -12 -4 -10 -6 -10 -6 0 -1 6 -6 12 -12 12 -5 0 -8
-4 -5 -8 3 -5 -1 -9 -9 -9 -14 0 -19 10 -16 32 1 6 -8 -1 -19 -14 -11 -13 -20
-18 -20 -12 0 6 -5 11 -11 11 -5 0 -8 -4 -5 -8 3 -5 -1 -9 -9 -9 -14 0 -19 10
-16 32 1 6 -8 -1 -19 -14 -11 -13 -20 -18 -20 -12 0 6 -5 11 -11 11 -5 0 -8
-4 -5 -8 3 -5 -1 -9 -9 -9 -14 0 -19 10 -16 32 1 6 -8 -1 -19 -14 -11 -13 -20
-18 -20 -12 0 6 -5 11 -11 11 -5 0 -8 -4 -5 -8 3 -5 -1 -9 -9 -9 -14 0 -19 10
-16 30 1 4 -8 2 -19 -5 -11 -7 -20 -16 -20 -19 0 -8 -71 -4 -94 6 -10 4 -21 4
-25 -2 -7 -11 -51 -11 -68 0 -6 4 -14 1 -16 -5 -4 -10 -6 -10 -6 0 -1 13 -31
17 -31 4 0 -11 -68 -8 -94 3 -10 4 -21 4 -25 -2 -7 -11 -51 -11 -68 0 -6 4
-14 1 -16 -5 -4 -10 -6 -10 -6 0 -1 13 -31 17 -31 4 0 -11 -68 -8 -94 3 -13 6
-21 4 -24 -3 -2 -8 -9 -6 -20 6 -10 10 -13 12 -8 5 5 -8 5 -17 1 -21 -4 -4
-10 -1 -12 6 -3 6 -9 12 -14 12 -6 0 -8 -4 -5 -8 3 -5 -1 -9 -9 -9 -14 0 -19
10 -16 32 1 6 -8 -1 -19 -14 -11 -13 -20 -18 -20 -12 0 6 -5 11 -11 11 -5 0
-8 -4 -5 -8 3 -5 -1 -9 -9 -9 -14 0 -19 10 -16 32 1 6 -8 -1 -19 -14 -11 -13
-20 -18 -20 -12 0 6 -5 11 -11 11 -5 0 -8 -4 -5 -8 3 -5 -1 -9 -9 -9 -14 0
-19 10 -16 32 1 6 -8 -1 -19 -14 -11 -13 -20 -18 -20 -12 0 6 -5 11 -11 11 -5
0 -8 -4 -5 -8 3 -5 -1 -9 -9 -9 -14 0 -19 11 -16 31 1 5 -4 4 -12 -3 -12 -9
-16 -9 -21 1 -3 7 -3 3 0 -9 5 -22 -8 -26 -33 -10 -6 4 -14 1 -16 -5 -4 -10
-6 -10 -6 0 -1 13 -31 17 -31 4 0 -11 -68 -8 -94 3 -10 4 -21 4 -25 -2 -7 -11
-51 -11 -68 0 -8 5 -13 3 -13 -4 0 -7 -9 -2 -20 11 -11 13 -20 19 -20 14 0 -6
6 -16 12 -22 10 -10 8 -12 -7 -9 -11 1 -25 6 -32 10 -6 4 -14 1 -16 -5 -4 -10
-6 -10 -6 0 -1 13 -31 17 -31 4 0 -11 -68 -8 -94 3 -10 4 -21 4 -25 -2 -7 -11
-51 -11 -68 0 -8 5 -13 4 -13 -2 0 -6 -5 -11 -11 -11 -5 0 -7 5 -4 10 3 6 2
10 -4 10 -5 0 -12 -6 -14 -12 -4 -10 -6 -10 -6 0 -1 6 -6 12 -12 12 -5 0 -8
-4 -5 -8 3 -5 -1 -9 -9 -9 -14 0 -19 10 -16 32 1 6 -8 -1 -19 -14 -11 -13 -20
-18 -20 -12 0 6 -5 11 -11 11 -5 0 -8 -4 -5 -8 3 -5 -1 -9 -9 -9 -14 0 -19 10
-16 32 1 6 -8 -1 -19 -14 -11 -13 -20 -18 -20 -12 0 6 -5 11 -11 11 -5 0 -8
-4 -5 -8 3 -5 -1 -9 -9 -9 -14 0 -19 10 -16 32 1 6 -8 -1 -19 -14 -11 -13 -20
-18 -20 -12 0 6 -5 11 -11 11 -5 0 -8 -4 -5 -8 3 -5 -1 -9 -9 -9 -14 0 -19 10
-16 30 2 11 -3 9 -25 -10z m-694 -173 c0 -5 -5 -10 -11 -10 -5 0 -7 5 -4 10 3
6 8 10 11 10 2 0 4 -4 4 -10z m-220 -194 c0 -3 -4 -8 -10 -11 -5 -3 -10 -1
-10 4 0 6 5 11 10 11 6 0 10 -2 10 -4z"/>
<path d="M1990 9658 c0 -4 6 -8 14 -8 8 0 17 4 20 8 2 4 -4 8 -15 8 -10 0 -19
-4 -19 -8z"/>
<path d="M2110 9658 c0 -4 6 -8 14 -8 8 0 17 4 20 8 2 4 -4 8 -15 8 -10 0 -19
-4 -19 -8z"/>
<path d="M2301 9662 c-6 -2 -11 -9 -11 -15 0 -8 3 -8 11 0 6 6 17 9 24 7 7 -3
15 -2 18 3 6 9 -21 12 -42 5z"/>
<path d="M2430 9658 c0 -4 6 -8 14 -8 8 0 17 4 20 8 2 4 -4 8 -15 8 -10 0 -19
-4 -19 -8z"/>
<path d="M2990 9658 c0 -4 6 -8 14 -8 8 0 17 4 20 8 2 4 -4 8 -15 8 -10 0 -19
-4 -19 -8z"/>
<path d="M3110 9658 c0 -4 6 -8 14 -8 8 0 17 4 20 8 2 4 -4 8 -15 8 -10 0 -19
-4 -19 -8z"/>
<path d="M3230 9658 c0 -4 6 -8 14 -8 8 0 17 4 20 8 2 4 -4 8 -15 8 -10 0 -19
-4 -19 -8z"/>
<path d="M3350 9658 c0 -4 6 -8 14 -8 8 0 17 4 20 8 2 4 -4 8 -15 8 -10 0 -19
-4 -19 -8z"/>
<path d="M3470 9658 c0 -4 6 -8 14 -8 8 0 17 4 20 8 2 4 -4 8 -15 8 -10 0 -19
-4 -19 -8z"/>
<path d="M3910 9658 c0 -4 6 -8 14 -8 8 0 17 4 20 8 2 4 -4 8 -15 8 -10 0 -19
-4 -19 -8z"/>
<path d="M4030 9658 c0 -4 6 -8 14 -8 8 0 17 4 20 8 2 4 -4 8 -15 8 -10 0 -19
-4 -19 -8z"/>
<path d="M4221 9662 c-6 -2 -11 -9 -11 -15 0 -8 3 -8 11 0 6 6 17 9 24 7 7 -3
15 -2 18 3 6 9 -21 12 -42 5z"/>
<path d="M4350 9658 c0 -4 6 -8 14 -8 8 0 17 4 20 8 2 4 -4 8 -15 8 -10 0 -19
-4 -19 -8z"/>
<path d="M4650 9660 c0 -5 5 -10 11 -10 5 0 7 5 4 10 -3 6 -8 10 -11 10 -2 0
-4 -4 -4 -10z"/>
<path d="M5244 9658 c-5 -7 -3 -8 6 -3 9 5 11 4 6 -4 -6 -9 -11 -9 -22 0 -12
10 -13 9 -8 -6 6 -14 4 -16 -6 -10 -10 6 -12 4 -7 -8 3 -10 2 -17 -4 -17 -6 0
-7 -5 -3 -11 11 -19 11 -89 0 -89 -6 0 -4 -5 4 -10 9 -6 10 -10 3 -10 -8 0 -9
-9 -3 -30 5 -16 5 -30 0 -30 -4 0 -4 -17 1 -37 5 -24 4 -40 -3 -44 -7 -4 -6
-8 3 -12 8 -3 9 -6 3 -6 -8 -1 -9 -12 -4 -36 5 -24 4 -35 -4 -35 -6 0 -4 -5 4
-10 11 -7 11 -10 2 -10 -10 0 -10 -5 -1 -21 8 -16 8 -23 -1 -29 -9 -6 -9 -9 1
-13 9 -3 9 -6 2 -6 -8 -1 -9 -10 -3 -31 5 -16 5 -30 0 -30 -4 0 -4 -17 1 -37
5 -25 5 -39 -3 -42 -6 -2 -5 -7 3 -12 9 -5 10 -9 3 -9 -8 0 -9 -11 -4 -35 5
-24 4 -35 -4 -35 -6 0 -4 -5 4 -10 11 -7 11 -10 2 -10 -10 0 -10 -5 -1 -21 8
-16 8 -23 -1 -29 -9 -6 -9 -9 1 -13 9 -3 9 -6 2 -6 -8 -1 -9 -10 -3 -31 5 -16
5 -30 0 -30 -4 0 -4 -17 1 -37 5 -24 4 -40 -3 -44 -7 -4 -6 -8 3 -12 8 -3 9
-6 3 -6 -8 -1 -9 -12 -4 -36 5 -24 4 -35 -4 -35 -6 0 -4 -5 4 -10 11 -7 11
-10 2 -10 -10 0 -10 -5 -1 -21 8 -16 8 -23 -1 -29 -9 -6 -9 -9 1 -13 9 -3 9
-6 2 -6 -8 -1 -9 -10 -3 -31 5 -16 5 -30 0 -30 -4 0 -4 -17 1 -37 5 -24 4 -40
-3 -44 -7 -4 -6 -8 3 -12 8 -3 9 -6 3 -6 -8 -1 -9 -12 -4 -36 5 -24 4 -35 -4
-35 -6 0 -4 -5 4 -10 11 -7 11 -10 2 -10 -10 0 -10 -5 -1 -21 8 -16 8 -23 -1
-29 -9 -6 -9 -9 1 -13 9 -3 9 -6 2 -6 -8 -1 -9 -10 -3 -31 5 -16 5 -30 0 -30
-4 0 -4 -17 1 -37 5 -24 4 -40 -3 -44 -7 -4 -6 -8 3 -12 8 -3 9 -6 3 -6 -8 -1
-9 -12 -4 -36 5 -24 4 -35 -4 -35 -6 0 -4 -5 4 -10 11 -7 11 -10 2 -10 -10 0
-10 -5 -1 -21 8 -16 8 -23 -1 -29 -9 -6 -9 -9 1 -13 9 -3 9 -6 2 -6 -8 -1 -9
-10 -3 -31 5 -16 5 -30 0 -30 -4 0 -4 -17 1 -37 5 -24 4 -40 -3 -44 -7 -4 -6
-8 3 -12 8 -3 9 -6 3 -6 -8 -1 -9 -12 -4 -36 5 -24 4 -35 -4 -35 -6 0 -4 -5 4
-10 11 -7 11 -10 2 -10 -10 0 -10 -5 -1 -21 8 -16 8 -23 -1 -29 -9 -6 -9 -9 1
-13 9 -3 9 -6 2 -6 -8 -1 -9 -10 -3 -31 5 -16 5 -30 0 -30 -4 0 -4 -17 1 -37
5 -24 4 -40 -3 -44 -7 -4 -6 -8 3 -12 8 -3 9 -6 3 -6 -8 -1 -9 -12 -4 -36 5
-24 4 -35 -4 -35 -6 0 -4 -5 4 -10 11 -7 11 -10 2 -10 -10 0 -10 -5 -1 -21 8
-16 8 -23 -1 -29 -9 -6 -9 -9 1 -13 9 -3 9 -6 2 -6 -8 -1 -9 -10 -3 -31 5 -16
5 -30 0 -30 -4 0 -4 -17 1 -37 5 -25 5 -39 -3 -42 -6 -2 -5 -7 3 -12 9 -5 10
-9 3 -9 -8 0 -9 -11 -4 -35 5 -24 4 -35 -4 -35 -6 0 -4 -5 4 -10 11 -7 11 -10
2 -10 -10 0 -10 -5 -1 -21 8 -16 8 -23 -1 -29 -9 -6 -9 -9 1 -13 9 -3 9 -6 2
-6 -8 -1 -9 -10 -3 -31 5 -16 5 -30 0 -30 -4 0 -4 -17 1 -37 5 -24 4 -40 -3
-44 -7 -4 -6 -8 3 -12 8 -3 9 -6 3 -6 -8 -1 -9 -12 -4 -36 5 -24 4 -35 -4 -35
-6 0 -4 -5 4 -10 11 -7 11 -10 2 -10 -10 0 -10 -5 -1 -21 8 -16 8 -23 -1 -29
-9 -6 -9 -9 1 -13 9 -3 9 -6 2 -6 -8 -1 -9 -10 -3 -31 5 -16 5 -30 0 -30 -4 0
-4 -17 1 -37 5 -24 4 -40 -3 -44 -7 -4 -6 -8 3 -12 8 -3 9 -6 3 -6 -8 -1 -9
-12 -4 -36 5 -24 4 -35 -4 -35 -6 0 -4 -5 4 -10 11 -7 11 -10 2 -10 -10 0 -10
-5 -1 -21 8 -16 8 -23 -1 -29 -9 -6 -9 -9 1 -13 9 -3 9 -6 2 -6 -8 -1 -9 -10
-3 -31 5 -16 5 -30 0 -30 -4 0 -4 -17 1 -37 5 -24 4 -40 -3 -44 -7 -4 -6 -8 3
-12 8 -3 9 -6 3 -6 -8 -1 -9 -12 -4 -36 5 -24 4 -35 -4 -35 -6 0 -4 -5 4 -10
11 -7 11 -10 2 -10 -10 0 -10 -5 -1 -21 8 -16 8 -23 -1 -29 -9 -6 -9 -9 1 -13
9 -3 9 -6 2 -6 -8 -1 -9 -10 -3 -31 5 -16 5 -30 0 -30 -4 0 -4 -17 1 -37 5
-24 4 -40 -3 -44 -7 -4 -6 -8 3 -12 8 -3 9 -6 3 -6 -8 -1 -9 -12 -4 -36 5 -24
4 -35 -4 -35 -6 0 -4 -5 4 -10 11 -7 11 -10 2 -10 -10 0 -10 -5 -1 -21 8 -16
8 -23 -1 -29 -9 -6 -9 -9 1 -13 9 -3 9 -6 2 -6 -8 -1 -9 -10 -3 -31 5 -16 5
-30 0 -30 -4 0 -4 -17 1 -37 5 -24 4 -40 -3 -44 -7 -4 -6 -8 3 -12 8 -3 9 -6
3 -6 -8 -1 -9 -12 -4 -36 5 -24 4 -35 -4 -35 -6 0 -4 -5 4 -10 11 -7 11 -10 2
-10 -10 0 -10 -5 -1 -21 8 -16 8 -23 -1 -29 -9 -6 -9 -9 1 -13 8 -3 9 -6 3 -6
-6 -1 -9 -14 -6 -31 2 -16 8 -27 13 -24 5 3 6 -3 2 -12 -5 -14 -2 -16 15 -12
12 4 25 1 29 -4 4 -7 1 -8 -7 -3 -9 5 -11 4 -6 -4 4 -6 13 -8 19 -4 18 11 49
14 67 7 26 -12 40 -13 34 -2 -4 6 2 8 16 3 16 -5 20 -4 15 5 -5 9 -2 10 11 3
11 -5 28 -8 39 -8 11 0 23 -4 27 -10 5 -6 8 -5 8 3 0 8 9 11 25 8 13 -3 27 0
31 5 3 5 11 6 17 2 6 -4 26 -7 44 -6 18 0 33 -5 33 -11 0 -7 3 -7 8 1 4 7 16
10 27 9 11 -2 25 1 32 6 7 5 14 5 17 -1 4 -6 14 -7 23 -4 12 5 14 3 8 -7 -6
-10 -4 -11 6 -4 16 10 117 15 139 7 28 -11 40 -11 34 -1 -4 6 2 8 16 3 17 -5
20 -4 15 5 -6 9 -3 10 10 3 10 -6 27 -8 38 -5 15 4 18 2 12 -9 -5 -8 2 -5 15
6 13 11 20 15 17 9 -8 -13 17 -27 28 -16 8 9 115 12 135 5 28 -11 40 -11 34
-1 -4 6 2 8 16 3 16 -5 20 -4 15 5 -6 9 -3 9 12 1 14 -7 24 -7 33 2 9 8 11 8
7 1 -9 -15 20 -27 29 -12 5 7 2 8 -6 3 -9 -5 -11 -4 -6 4 5 8 12 9 19 2 7 -5
24 -8 40 -6 15 2 27 -2 27 -8 0 -9 3 -8 8 0 4 7 18 11 30 8 12 -2 24 1 27 6 4
5 12 6 18 2 6 -4 26 -7 44 -6 18 0 33 -5 33 -11 0 -7 3 -7 8 1 4 7 16 10 27 9
11 -2 25 1 32 6 6 5 14 5 17 0 3 -5 24 -7 47 -5 24 2 49 -2 57 -9 13 -10 14
-10 8 0 -8 13 19 13 40 -1 6 -3 14 -3 18 1 13 12 160 11 175 -2 12 -8 13 -8 7
2 -8 13 19 13 40 -1 6 -3 14 -3 18 1 9 9 145 13 166 5 28 -11 40 -11 34 -1 -4
6 2 8 16 3 16 -5 20 -4 15 5 -5 9 -2 10 11 3 11 -5 28 -8 39 -8 11 0 23 -4 27
-10 5 -6 8 -5 8 3 0 8 9 11 25 8 13 -3 27 0 31 5 3 5 11 6 17 2 6 -4 26 -7 44
-6 18 0 33 -5 33 -11 0 -7 3 -7 8 1 4 7 16 10 27 9 11 -2 25 1 32 6 7 5 14 5
17 -1 4 -6 14 -7 23 -4 12 5 14 3 8 -7 -6 -10 -4 -11 6 -4 16 10 117 15 139 7
28 -11 40 -11 34 -1 -4 6 2 8 16 3 17 -5 20 -4 15 5 -6 9 -3 10 10 3 10 -6 27
-8 38 -5 15 4 18 2 12 -9 -5 -8 2 -5 15 6 13 11 20 15 17 9 -8 -13 17 -27 28
-16 8 9 115 12 135 5 28 -11 40 -11 34 -1 -4 6 2 8 16 3 16 -5 20 -4 15 5 -6
9 -3 9 12 1 14 -7 24 -7 33 2 9 8 11 8 7 1 -9 -15 20 -27 29 -12 5 7 2 8 -6 3
-9 -5 -11 -4 -6 4 5 8 12 9 19 2 7 -5 24 -8 40 -6 15 2 27 -2 27 -8 0 -9 3 -8
8 0 4 7 18 11 30 8 12 -2 24 1 27 6 4 5 12 6 18 2 6 -4 26 -7 44 -6 18 0 33
-5 33 -11 0 -7 3 -7 8 1 4 7 16 10 27 9 11 -2 25 1 32 6 6 5 14 5 17 0 3 -5
24 -7 47 -5 24 2 49 -2 57 -9 13 -10 14 -10 8 0 -8 13 19 13 40 -1 6 -3 14 -3
18 1 13 12 160 11 175 -2 12 -8 13 -8 7 2 -8 13 19 13 40 -1 6 -3 14 -3 18 1
9 9 145 13 166 5 28 -11 40 -11 34 -1 -4 6 2 8 16 3 16 -5 20 -4 15 5 -5 9 -2
10 11 3 11 -5 28 -8 39 -8 11 0 23 -4 27 -10 5 -6 8 -5 8 3 0 8 9 11 25 8 13
-3 27 0 31 5 3 5 11 6 17 2 6 -4 26 -7 44 -6 18 0 33 -5 33 -11 0 -7 3 -7 8 1
4 7 16 10 27 9 11 -2 26 2 34 8 11 8 13 8 7 -1 -4 -7 -3 -13 3 -13 5 0 12 6
14 13 4 10 6 10 6 0 1 -7 6 -13 13 -13 6 0 8 3 5 7 -4 3 -1 13 6 21 10 13 9
14 -3 8 -8 -4 -4 2 10 14 l25 21 -25 -6 -25 -6 25 22 c16 14 19 20 8 16 -10
-3 -20 -2 -23 3 -4 6 1 10 9 10 9 0 16 4 16 10 0 5 -3 9 -7 9 -24 -4 -25 4 -3
17 l25 15 -25 -6 -25 -6 25 21 25 21 -25 -6 -25 -6 25 22 c16 14 19 20 8 16
-10 -3 -20 -2 -23 3 -4 6 1 10 9 10 9 0 16 4 16 10 0 5 -3 9 -7 9 -24 -4 -25
4 -3 17 l25 15 -25 -6 -25 -6 25 21 25 21 -25 -6 -25 -6 25 22 25 22 -25 -7
c-23 -6 -23 -6 -7 7 18 15 24 33 7 22 -11 -7 -11 -5 -14 40 -1 20 5 34 19 43
14 10 15 12 3 8 -10 -3 -20 -1 -23 4 -4 6 1 10 9 10 9 0 16 5 16 11 0 5 -4 7
-10 4 -11 -7 -11 -5 -14 40 -1 20 5 34 19 43 14 10 15 12 3 8 -10 -3 -20 -1
-23 4 -4 6 1 10 9 10 9 0 16 5 16 11 0 5 -4 7 -10 4 -11 -7 -11 -5 -14 40 -1
20 5 34 19 43 14 10 15 12 3 8 -10 -3 -20 -1 -23 4 -4 6 1 10 9 10 9 0 16 5
16 11 0 5 -4 7 -10 4 -11 -7 -11 -5 -14 40 -1 20 5 34 19 43 14 10 15 12 3 8
-10 -3 -20 -1 -23 4 -4 6 1 10 9 10 9 0 16 5 16 11 0 5 -4 8 -9 5 -5 -3 -11 1
-15 9 -3 8 0 17 6 21 7 4 8 3 4 -4 -5 -8 -2 -10 8 -6 16 6 23 25 9 23 -27 -4
-34 2 -19 17 9 8 14 20 10 25 -3 6 0 17 7 25 7 8 8 14 3 13 -21 -4 -35 2 -29
11 4 6 10 8 15 5 5 -3 7 4 5 16 -3 13 1 29 7 36 6 8 7 13 2 12 -21 -4 -35 2
-29 11 4 6 10 8 15 5 5 -3 7 4 5 16 -3 13 1 29 7 36 6 8 7 13 2 12 -21 -4 -35
2 -29 11 4 6 10 8 15 5 5 -3 7 4 5 16 -3 13 1 29 7 36 6 8 7 13 2 12 -21 -4
-35 2 -29 11 4 6 10 8 15 5 5 -3 7 4 5 16 -3 13 1 29 7 36 6 8 7 13 2 12 -21
-4 -35 2 -29 11 4 6 10 8 15 5 5 -3 7 4 5 16 -3 13 1 29 7 36 6 8 7 13 2 12
-21 -4 -35 2 -29 11 4 6 10 8 15 5 5 -3 7 4 5 16 -3 13 1 29 7 36 6 8 7 13 2
12 -21 -4 -35 2 -29 11 4 6 10 8 15 5 5 -3 7 4 5 16 -3 13 1 29 7 36 6 8 7 13
2 12 -21 -4 -35 2 -29 11 4 6 10 8 14 6 4 -3 8 1 8 9 0 8 -4 12 -9 9 -4 -3 -8
-1 -8 5 0 5 8 15 18 21 14 9 13 10 -8 5 l-25 -6 25 21 25 21 -25 -6 -25 -6 25
22 c22 19 23 21 4 15 -19 -6 -21 -3 -19 29 2 21 11 43 21 51 18 14 18 15 -6 9
l-25 -6 25 22 c22 19 23 21 4 15 -19 -6 -21 -3 -19 29 2 21 11 43 21 51 18 14
18 15 -6 9 l-25 -6 25 22 c22 19 23 21 4 15 -19 -6 -21 -3 -19 29 2 21 11 43
21 51 18 14 18 15 -6 9 l-25 -6 25 22 c22 19 23 21 4 15 -19 -6 -21 -3 -19 29
2 21 11 43 21 51 18 14 18 15 -6 9 l-25 -6 25 22 c22 19 23 21 4 15 -19 -6
-21 -3 -19 29 2 21 11 43 21 51 18 14 18 15 -6 9 l-25 -6 25 22 c22 19 23 21
4 15 -19 -6 -21 -3 -19 29 2 21 11 43 21 51 18 14 18 15 -6 9 l-25 -6 25 22
c22 19 23 21 4 15 -19 -6 -21 -3 -19 29 2 21 11 43 21 51 18 14 18 15 -6 9
l-25 -6 25 22 c22 19 23 21 4 15 -19 -6 -21 -3 -19 29 2 21 11 43 21 51 18 14
18 15 -6 9 l-25 -6 25 22 c22 19 23 21 4 15 -19 -6 -21 -3 -19 29 2 21 11 43
21 51 18 14 18 15 -6 9 l-25 -6 25 22 c22 19 23 21 4 15 -19 -6 -21 -3 -19 30
2 20 9 40 16 45 12 8 6 13 -12 11 -3 -1 -6 6 -6 14 0 17 9 18 27 2 12 -11 12
-10 1 5 -11 14 -11 20 -1 33 8 8 9 14 4 13 -21 -4 -35 2 -29 11 4 6 10 8 15 5
5 -3 7 4 5 16 -3 13 1 29 7 36 6 8 7 13 2 12 -21 -4 -35 2 -29 11 4 6 10 8 15
5 5 -3 7 4 5 16 -3 13 1 29 7 36 6 8 7 13 2 12 -21 -4 -35 2 -29 11 4 6 10 8
15 5 5 -3 7 4 5 16 -3 13 1 29 7 36 6 8 7 13 2 12 -21 -4 -35 2 -29 11 4 6 10
8 15 5 5 -3 7 4 5 16 -3 13 1 29 7 36 6 8 7 13 2 12 -21 -4 -35 2 -29 11 4 6
10 8 15 5 5 -3 7 4 5 16 -3 13 1 29 7 36 6 8 7 13 2 12 -20 -4 -35 2 -29 11 3
5 13 6 23 3 14 -5 13 -2 -3 11 -11 10 -14 15 -7 11 17 -9 15 0 -4 19 -12 12
-12 16 -2 16 10 0 9 3 -2 10 -12 8 -13 11 -1 19 11 7 11 9 0 14 -12 4 -11 7 1
16 12 8 12 11 1 11 -11 0 -11 3 0 17 12 14 12 16 0 8 -11 -6 -13 -3 -8 14 3
12 -1 27 -9 35 -8 8 -14 26 -14 41 0 18 -4 24 -12 19 -10 -6 -10 -4 0 7 6 7
12 17 12 22 0 4 -6 5 -12 1 -9 -5 -8 -2 1 10 13 15 12 18 -6 22 -17 5 -20 12
-16 35 2 17 0 29 -7 29 -6 0 -8 5 -5 10 3 6 1 10 -5 10 -7 0 -9 7 -6 15 3 9
-1 18 -9 22 -13 4 -13 8 -3 22 7 9 8 13 4 9 -5 -4 -17 2 -27 14 -22 25 -24 32
-6 23 6 -4 4 0 -5 8 -10 8 -18 19 -18 26 0 6 -4 11 -10 11 -5 0 -10 7 -10 15
0 8 -4 15 -10 15 -5 0 -9 3 -9 8 3 19 -2 33 -11 27 -5 -3 -10 1 -10 9 0 9 -5
16 -11 16 -5 0 -8 4 -5 9 3 5 -3 11 -13 14 -11 2 -28 23 -38 46 -11 23 -23 38
-28 34 -4 -5 -5 0 -2 9 3 10 1 20 -5 24 -7 5 -9 2 -4 -7 4 -8 -1 -4 -10 9 -9
12 -22 22 -30 22 -7 0 -16 5 -20 12 -5 7 -2 9 7 4 8 -4 5 0 -5 8 -11 9 -26 16
-34 16 -8 0 -12 6 -9 14 4 10 1 13 -8 10 -8 -3 -22 1 -30 10 -9 9 -13 16 -8
16 4 1 -9 10 -29 21 -21 11 -38 24 -38 29 0 5 -6 7 -14 4 -7 -3 -21 7 -30 21
-10 14 -23 24 -29 22 -19 -7 -48 13 -40 26 4 7 -1 6 -11 -2 -15 -12 -17 -12
-14 0 2 9 -4 13 -14 11 -10 -2 -18 2 -18 9 0 8 -4 8 -16 -1 -8 -8 -14 -9 -13
-4 1 5 1 16 0 24 -1 13 -2 13 -11 0 -6 -9 -10 -10 -10 -3 0 6 -9 10 -20 8 -11
-2 -20 1 -20 7 0 5 -7 7 -16 4 -8 -3 -12 -2 -9 4 5 9 -24 15 -49 11 -4 -1 -15
4 -24 11 -9 7 -13 8 -10 3 4 -6 -2 -11 -13 -11 -21 0 -26 12 -7 18 7 3 5 7 -6
11 -10 4 -15 3 -11 -3 3 -6 -3 -10 -15 -10 -13 0 -19 -4 -14 -11 4 -7 -1 -7
-15 1 -17 9 -26 8 -39 -2 -15 -12 -16 -11 -3 5 8 9 21 15 30 12 9 -2 22 -1 29
4 9 5 2 8 -20 9 -18 0 -39 -5 -47 -11 -12 -9 -13 -9 -7 1 4 7 1 12 -9 12 -9 0
-13 -4 -10 -10 3 -5 1 -10 -4 -10 -6 0 -11 5 -11 10 0 6 -7 10 -15 10 -8 0
-15 -6 -15 -12 0 -8 -3 -9 -8 -3 -4 6 -18 11 -31 13 -17 3 -21 0 -16 -10 6
-10 5 -11 -6 0 -16 14 -63 17 -54 2 3 -5 1 -10 -4 -10 -6 0 -11 5 -11 10 0 6
-7 10 -16 10 -8 0 -12 -4 -9 -10 3 -5 1 -10 -4 -10 -6 0 -11 5 -11 10 0 14
-37 12 -43 -2 -4 -10 -6 -10 -6 0 -1 6 -6 12 -12 12 -5 0 -7 -4 -4 -10 3 -5 1
-10 -4 -10 -6 0 -11 5 -11 11 0 8 -6 7 -17 -2 -11 -10 -14 -10 -9 -1 4 7 1 12
-9 12 -9 0 -14 -4 -10 -9 3 -5 1 -13 -5 -16 -6 -4 -9 -1 -8 7 2 8 -8 14 -26
16 -18 2 -26 0 -21 -7 3 -6 1 -11 -4 -11 -6 0 -11 5 -11 11 0 8 -6 7 -17 -2
-11 -10 -14 -10 -9 -1 4 7 1 12 -9 12 -9 0 -13 -4 -10 -10 3 -5 1 -10 -4 -10
-6 0 -11 4 -11 8 0 4 -11 9 -26 10 -14 1 -23 -2 -19 -7 3 -5 1 -13 -5 -16 -6
-4 -9 -1 -8 6 4 18 -33 24 -43 7 -6 -10 -9 -10 -9 0 0 6 -5 12 -11 12 -5 0 -7
-4 -4 -10 3 -5 1 -10 -4 -10 -6 0 -11 5 -11 11 0 8 -6 7 -17 -2 -11 -10 -14
-10 -9 -1 4 7 1 12 -9 12 -9 0 -14 -4 -10 -9 3 -5 1 -13 -5 -16 -6 -4 -9 -1
-8 7 2 8 -8 14 -26 16 -18 2 -26 0 -21 -7 3 -6 1 -11 -4 -11 -6 0 -11 5 -11
11 0 8 -6 7 -17 -2 -11 -10 -14 -10 -9 -1 4 7 1 12 -9 12 -9 0 -13 -4 -10 -10
3 -5 1 -10 -4 -10 -6 0 -11 4 -11 9 0 5 -25 9 -55 9 -36 -1 -52 -5 -48 -12 3
-6 0 -5 -8 2 -16 14 -63 17 -54 2 3 -5 1 -10 -4 -10 -6 0 -11 5 -11 10 0 6 -7
10 -16 10 -8 0 -12 -4 -9 -10 3 -5 1 -10 -4 -10 -6 0 -11 4 -11 8 0 4 -11 9
-26 10 -17 1 -23 -2 -18 -11 5 -9 4 -9 -7 1 -16 14 -63 17 -54 2 3 -5 1 -10
-4 -10 -6 0 -11 5 -11 10 0 6 -7 10 -16 10 -8 0 -12 -4 -9 -10 3 -5 1 -10 -4
-10 -6 0 -11 5 -11 11 0 8 -6 7 -17 -2 -11 -10 -14 -10 -9 -1 4 7 1 12 -9 12
-9 0 -14 -4 -10 -9 3 -5 1 -13 -5 -16 -6 -4 -9 -1 -8 7 2 8 -8 14 -26 16 -18
2 -26 0 -21 -7 3 -6 1 -11 -4 -11 -6 0 -11 5 -11 10 0 6 -9 10 -21 10 -11 0
-18 -4 -15 -8 3 -5 -1 -9 -9 -9 -8 0 -12 4 -9 9 3 4 -1 8 -10 8 -8 0 -17 -6
-19 -12 -4 -10 -6 -10 -6 0 -1 6 -6 12 -12 12 -5 0 -7 -4 -4 -10 3 -5 1 -10
-4 -10 -6 0 -11 5 -11 11 0 8 -6 7 -17 -2 -11 -10 -14 -10 -9 -1 4 7 1 12 -9
12 -9 0 -14 -4 -10 -9 3 -5 1 -13 -5 -16 -6 -4 -9 -1 -8 7 2 8 -8 14 -26 16
-18 2 -26 0 -21 -7 3 -6 1 -11 -4 -11 -6 0 -11 5 -11 10 0 6 -9 10 -21 10 -11
0 -18 -4 -15 -8 3 -5 -1 -9 -9 -9 -8 0 -12 4 -9 9 3 4 -1 8 -10 8 -8 0 -17 -6
-19 -12 -4 -10 -6 -10 -6 0 -1 6 -6 12 -12 12 -5 0 -7 -4 -4 -10 3 -5 1 -10
-4 -10 -6 0 -11 5 -11 11 0 8 -6 7 -17 -2 -11 -10 -14 -10 -9 -1 4 7 1 12 -9
12 -9 0 -14 -4 -10 -9 3 -5 1 -13 -5 -16 -6 -4 -9 -1 -8 7 2 8 -8 14 -26 16
-18 2 -26 0 -21 -7 3 -6 1 -11 -4 -11 -6 0 -11 5 -11 10 0 6 -12 10 -27 10
-22 0 -25 -2 -13 -10 9 -6 10 -10 3 -10 -6 0 -15 5 -18 10 -9 15 -38 12 -29
-2 6 -10 4 -10 -7 0 -16 14 -63 17 -54 2 3 -5 1 -10 -4 -10 -6 0 -11 5 -11 10
0 6 -7 10 -16 10 -8 0 -12 -4 -9 -10 3 -5 1 -10 -4 -10 -6 0 -11 4 -11 8 0 4
-11 9 -26 10 -17 1 -23 -2 -18 -11 5 -9 4 -9 -7 1 -16 14 -63 17 -54 2 3 -5 1
-10 -4 -10 -6 0 -11 5 -11 10 0 6 -7 10 -16 10 -8 0 -12 -4 -9 -10 3 -5 1 -10
-4 -10 -6 0 -11 5 -11 10 0 14 -37 12 -43 -2 -4 -10 -6 -10 -6 0 -1 6 -6 12
-12 12 -5 0 -7 -4 -4 -10 3 -5 1 -10 -4 -10 -6 0 -11 5 -11 11 0 8 -6 7 -17
-2 -11 -10 -14 -10 -9 -1 4 7 1 12 -9 12 -9 0 -14 -4 -10 -9 3 -5 1 -13 -5
-16 -6 -4 -9 -1 -8 7 2 8 -8 14 -26 16 -18 2 -26 0 -21 -7 3 -6 1 -11 -4 -11
-6 0 -11 5 -11 11 0 8 -6 7 -17 -2 -11 -10 -14 -10 -9 -1 4 7 1 12 -9 12 -9 0
-13 -4 -10 -10 3 -5 1 -10 -4 -10 -6 0 -11 4 -11 8 0 4 -11 9 -26 10 -14 1
-23 -2 -19 -7 3 -5 1 -13 -5 -16 -6 -4 -9 -1 -8 6 4 18 -33 24 -43 7 -6 -10
-9 -10 -9 0 0 6 -5 12 -11 12 -5 0 -7 -4 -4 -10 3 -5 1 -10 -4 -10 -6 0 -11 5
-11 11 0 8 -6 7 -17 -2 -11 -10 -14 -10 -9 -1 4 7 1 12 -9 12 -9 0 -14 -4 -10
-9 3 -5 1 -13 -5 -16 -6 -4 -9 -1 -8 7 2 8 -8 14 -26 16 -18 2 -26 0 -21 -7 3
-6 1 -11 -4 -11 -6 0 -11 5 -11 11 0 8 -6 7 -17 -2 -11 -10 -14 -10 -9 -1 4 7
1 12 -9 12 -9 0 -13 -4 -10 -10 3 -5 1 -10 -4 -10 -6 0 -11 4 -11 9 0 5 -25 9
-55 9 -36 -1 -52 -5 -48 -12 3 -6 0 -5 -8 2 -16 14 -63 17 -54 2 3 -5 1 -10
-4 -10 -6 0 -11 5 -11 10 0 6 -7 10 -16 10 -8 0 -12 -4 -9 -10 3 -5 1 -10 -4
-10 -6 0 -11 4 -11 8 0 4 -11 9 -26 10 -17 1 -23 -2 -18 -11 5 -9 4 -9 -7 1
-16 14 -63 17 -54 2 3 -5 1 -10 -4 -10 -6 0 -11 5 -11 10 0 6 -7 10 -16 10 -8
0 -12 -4 -9 -10 3 -5 1 -10 -4 -10 -6 0 -11 5 -11 11 0 8 -6 7 -17 -2 -11 -10
-14 -10 -9 -1 4 7 1 12 -9 12 -9 0 -14 -4 -10 -9 3 -5 1 -13 -5 -16 -6 -4 -9
-1 -8 7 2 8 -8 14 -26 16 -18 2 -26 0 -21 -7 3 -6 1 -11 -4 -11 -6 0 -11 5
-11 10 0 14 -77 13 -86 -2z m53 -4 c-3 -3 -12 -4 -19 -1 -8 3 -5 6 6 6 11 1
17 -2 13 -5z m4313 -3488 c0 -3 -4 -8 -10 -11 -5 -3 -10 -1 -10 4 0 6 5 11 10
11 6 0 10 -2 10 -4z"/>
<path d="M700 9340 c-9 -6 -10 -10 -3 -10 6 0 15 5 18 10 8 12 4 12 -15 0z"/>
<path d="M9605 8030 c-3 -6 1 -7 9 -4 18 7 21 14 7 14 -6 0 -13 -4 -16 -10z"/>
<path d="M9605 8000 c-3 -5 -1 -10 4 -10 6 0 11 5 11 10 0 6 -2 10 -4 10 -3 0
-8 -4 -11 -10z"/>
<path d="M9605 7910 c-3 -6 1 -7 9 -4 18 7 21 14 7 14 -6 0 -13 -4 -16 -10z"/>
<path d="M9605 7880 c-3 -5 -1 -10 4 -10 6 0 11 5 11 10 0 6 -2 10 -4 10 -3 0
-8 -4 -11 -10z"/>
<path d="M9605 7790 c-3 -6 1 -7 9 -4 18 7 21 14 7 14 -6 0 -13 -4 -16 -10z"/>
<path d="M9605 7760 c-3 -5 -1 -10 4 -10 6 0 11 5 11 10 0 6 -2 10 -4 10 -3 0
-8 -4 -11 -10z"/>
<path d="M9605 7670 c-3 -6 1 -7 9 -4 18 7 21 14 7 14 -6 0 -13 -4 -16 -10z"/>
<path d="M9605 7640 c-3 -5 -1 -10 4 -10 6 0 11 5 11 10 0 6 -2 10 -4 10 -3 0
-8 -4 -11 -10z"/>
<path d="M9605 7550 c-3 -6 1 -7 9 -4 18 7 21 14 7 14 -6 0 -13 -4 -16 -10z"/>
<path d="M9605 7520 c-3 -5 -1 -10 4 -10 6 0 11 5 11 10 0 6 -2 10 -4 10 -3 0
-8 -4 -11 -10z"/>
<path d="M9605 7430 c-3 -6 1 -7 9 -4 18 7 21 14 7 14 -6 0 -13 -4 -16 -10z"/>
<path d="M9605 7400 c-3 -5 -1 -10 4 -10 6 0 11 5 11 10 0 6 -2 10 -4 10 -3 0
-8 -4 -11 -10z"/>
<path d="M9605 7310 c-3 -6 1 -7 9 -4 18 7 21 14 7 14 -6 0 -13 -4 -16 -10z"/>
<path d="M9605 7280 c-3 -5 -1 -10 4 -10 6 0 11 5 11 10 0 6 -2 10 -4 10 -3 0
-8 -4 -11 -10z"/>
<path d="M9605 7190 c-3 -6 1 -7 9 -4 18 7 21 14 7 14 -6 0 -13 -4 -16 -10z"/>
<path d="M9605 7160 c-3 -5 -1 -10 4 -10 6 0 11 5 11 10 0 6 -2 10 -4 10 -3 0
-8 -4 -11 -10z"/>
<path d="M9605 7070 c-3 -6 1 -7 9 -4 18 7 21 14 7 14 -6 0 -13 -4 -16 -10z"/>
<path d="M9605 7040 c-3 -5 -1 -10 4 -10 6 0 11 5 11 10 0 6 -2 10 -4 10 -3 0
-8 -4 -11 -10z"/>
<path d="M9605 6950 c-3 -6 1 -7 9 -4 18 7 21 14 7 14 -6 0 -13 -4 -16 -10z"/>
<path d="M9605 6920 c-3 -5 -1 -10 4 -10 6 0 11 5 11 10 0 6 -2 10 -4 10 -3 0
-8 -4 -11 -10z"/>
<path d="M9605 6020 c-3 -5 -2 -10 4 -10 5 0 13 5 16 10 3 6 2 10 -4 10 -5 0
-13 -4 -16 -10z"/>
<path d="M9605 5990 c-3 -6 1 -7 9 -4 18 7 21 14 7 14 -6 0 -13 -4 -16 -10z"/>
<path d="M9605 5900 c-3 -5 -2 -10 4 -10 5 0 13 5 16 10 3 6 2 10 -4 10 -5 0
-13 -4 -16 -10z"/>
<path d="M9605 5870 c-3 -6 1 -7 9 -4 18 7 21 14 7 14 -6 0 -13 -4 -16 -10z"/>
<path d="M9605 5780 c-3 -5 -2 -10 4 -10 5 0 13 5 16 10 3 6 2 10 -4 10 -5 0
-13 -4 -16 -10z"/>
<path d="M9605 5750 c-3 -6 1 -7 9 -4 18 7 21 14 7 14 -6 0 -13 -4 -16 -10z"/>
<path d="M9605 5660 c-3 -5 -2 -10 4 -10 5 0 13 5 16 10 3 6 2 10 -4 10 -5 0
-13 -4 -16 -10z"/>
<path d="M9605 5630 c-3 -6 1 -7 9 -4 18 7 21 14 7 14 -6 0 -13 -4 -16 -10z"/>
<path d="M446 4818 c5 -8 0 -9 -15 -5 -15 3 -29 -1 -41 -13 -10 -10 -20 -16
-23 -14 -3 3 -5 -296 -5 -663 0 -479 4 -672 12 -682 8 -11 8 -13 0 -8 -16 9
-16 -532 0 -552 8 -11 8 -13 0 -8 -16 9 -16 -292 0 -312 8 -11 8 -13 0 -8 -8
5 -11 -159 -12 -601 0 -334 2 -615 5 -626 4 -15 7 -16 15 -5 7 10 8 5 6 -18
-3 -18 -1 -30 3 -28 4 3 10 -2 13 -11 3 -8 2 -12 -4 -9 -18 11 -10 -20 8 -34
13 -9 18 -25 18 -51 -1 -29 3 -40 16 -43 10 -3 18 -13 18 -22 0 -9 -4 -14 -8
-11 -5 3 -9 -1 -9 -9 0 -8 2 -13 5 -10 10 9 43 -17 38 -30 -3 -8 -1 -17 5 -20
5 -4 7 -11 4 -16 -3 -5 2 -6 11 -2 12 4 15 3 10 -5 -4 -7 -2 -12 6 -12 9 0 9
-3 -2 -10 -12 -8 -10 -10 9 -10 18 0 22 -4 18 -20 -3 -11 -1 -20 5 -20 5 0 6
-5 3 -10 -4 -6 -1 -9 7 -8 7 2 12 -3 11 -9 -2 -7 3 -13 11 -13 8 0 18 -5 22
-12 5 -7 3 -8 -6 -3 -9 6 -11 4 -6 -4 5 -7 14 -10 22 -7 8 3 11 0 7 -10 -3 -9
3 -21 16 -30 11 -8 21 -21 21 -29 0 -15 14 -30 54 -59 14 -10 23 -23 19 -29
-3 -6 -1 -7 5 -3 7 4 12 2 12 -3 0 -13 21 -10 33 4 5 6 6 3 3 -8 -4 -12 1 -20
17 -26 13 -5 31 -21 41 -36 11 -16 23 -24 32 -21 9 3 12 1 9 -4 -3 -6 -2 -10
4 -10 5 0 12 6 14 13 3 6 6 2 6 -11 1 -13 5 -21 9 -18 5 3 15 -4 22 -15 9 -11
26 -19 45 -19 23 0 27 -3 15 -10 -13 -8 -12 -10 3 -10 9 0 17 -4 17 -9 0 -5
11 -8 25 -6 17 1 25 -3 25 -13 0 -9 7 -13 20 -9 11 3 22 1 25 -3 3 -4 14 -6
25 -3 12 3 20 2 18 -3 -2 -5 1 -10 6 -11 5 -1 12 -7 17 -14 6 -10 11 -10 25 2
11 9 15 9 10 2 -5 -9 1 -13 19 -13 17 0 24 -4 19 -12 -5 -8 0 -9 15 -5 18 4
21 2 16 -11 -5 -14 -3 -13 14 2 12 11 21 14 26 6 3 -5 11 -8 16 -5 5 4 9 0 9
-7 0 -10 3 -9 9 1 8 13 12 13 27 0 10 -8 15 -9 11 -2 -10 16 39 11 56 -6 9
-10 8 -11 -7 -5 -13 5 -17 4 -12 -4 11 -17 33 -15 46 6 8 12 10 12 7 2 -4 -12
3 -16 29 -17 19 0 34 3 34 8 0 5 5 9 11 9 5 0 8 -4 4 -9 -8 -13 38 -10 47 4 5
6 8 6 8 -2 0 -7 5 -13 11 -13 5 0 8 4 5 8 -3 5 1 9 9 9 8 0 12 -4 10 -7 -3 -4
7 -7 20 -7 14 0 25 5 25 11 0 7 3 8 8 0 9 -12 82 -15 82 -3 0 5 5 9 11 9 5 0
8 -4 4 -9 -8 -13 38 -10 47 4 5 6 8 6 8 -2 0 -7 5 -13 11 -13 5 0 8 4 5 8 -3
5 1 9 9 9 8 0 12 -3 10 -7 -2 -4 9 -7 26 -8 19 0 27 3 23 10 -4 6 -2 8 4 4 5
-3 12 -3 15 1 2 5 2 2 1 -4 -2 -7 1 -13 6 -13 6 0 10 6 10 13 0 8 3 8 8 2 9
-14 55 -17 47 -4 -4 5 -1 9 4 9 6 0 11 -4 11 -9 0 -5 11 -8 25 -8 13 0 23 3
20 7 -2 3 2 7 10 7 8 0 12 -4 9 -9 -3 -4 0 -8 5 -8 6 0 11 6 11 13 0 8 3 9 8
1 4 -6 23 -11 42 -11 19 0 38 5 42 11 6 8 8 8 8 0 0 -6 11 -11 25 -11 13 0 22
3 19 8 -3 5 0 9 5 9 6 0 11 -4 11 -9 0 -5 11 -8 25 -8 13 0 23 3 20 7 -2 3 2
7 10 7 8 0 12 -4 9 -9 -3 -4 0 -8 5 -8 6 0 11 6 11 13 0 8 3 8 9 -2 8 -13 12
-13 27 0 11 9 15 9 10 2 -4 -7 -3 -13 3 -13 5 0 12 6 14 13 4 9 6 9 6 0 1 -7
6 -13 12 -13 5 0 7 6 3 13 -6 10 -4 10 7 0 19 -18 34 -16 19 2 -11 13 -10 14
4 9 9 -3 16 -10 16 -14 0 -4 11 -7 25 -7 22 0 24 2 13 16 -12 14 -11 15 6 1
22 -17 46 -22 46 -9 0 5 5 9 11 9 5 0 8 -4 4 -9 -8 -13 38 -10 47 4 5 6 8 6 8
-2 0 -7 5 -13 11 -13 5 0 8 4 5 8 -3 5 1 9 9 9 8 0 12 -4 10 -7 -3 -4 7 -7 20
-7 14 0 25 5 25 11 0 7 3 8 8 0 9 -12 82 -15 82 -3 0 5 5 9 11 9 5 0 8 -4 4
-9 -8 -13 38 -10 47 4 5 6 8 6 8 -2 0 -7 5 -13 11 -13 5 0 8 4 5 8 -3 5 1 9 9
9 8 0 12 -4 10 -7 -3 -4 7 -7 20 -7 14 0 25 5 25 11 0 7 3 8 8 0 9 -12 82 -15
82 -3 0 5 5 9 11 9 5 0 8 -4 4 -9 -8 -13 38 -10 47 4 5 6 8 6 8 -2 0 -7 5 -13
11 -13 5 0 8 4 5 8 -3 5 1 9 9 9 8 0 12 -3 10 -7 -2 -4 9 -7 26 -8 19 0 27 3
23 10 -4 6 -2 8 4 4 5 -3 12 -3 15 1 2 5 2 2 1 -5 -2 -6 1 -12 6 -12 6 0 10 6
10 13 0 8 3 8 8 2 9 -14 55 -17 47 -4 -4 5 -1 9 4 9 6 0 11 -4 11 -9 0 -5 11
-8 25 -8 13 0 23 3 20 7 -2 3 2 7 10 7 8 0 12 -4 9 -9 -3 -4 0 -8 5 -8 6 0 11
6 11 13 0 8 3 9 8 1 4 -6 23 -11 42 -11 19 0 38 5 42 11 6 8 8 8 8 0 0 -6 11
-11 25 -11 13 0 22 3 19 8 -3 5 0 9 5 9 6 0 11 -4 11 -9 0 -5 11 -8 25 -8 13
0 23 3 20 7 -2 3 2 7 10 7 8 0 12 -4 9 -9 -3 -4 0 -8 5 -8 6 0 11 6 11 13 0 8
3 8 9 -2 8 -13 12 -13 27 0 11 9 15 9 10 1 -4 -6 -3 -12 3 -12 5 0 12 6 14 13
4 9 6 9 6 0 1 -7 6 -13 12 -13 5 0 7 6 3 13 -6 9 -4 9 7 -1 19 -17 34 -15 19
3 -11 13 -10 14 4 9 9 -3 16 -10 16 -14 0 -4 11 -7 25 -7 22 0 24 2 13 16 -12
14 -11 15 6 1 22 -17 46 -22 46 -9 0 5 5 9 11 9 5 0 8 -4 4 -9 -8 -13 38 -10
47 4 5 6 8 6 8 -2 0 -7 5 -13 11 -13 5 0 8 4 5 8 -3 5 1 9 9 9 8 0 12 -4 10
-7 -3 -4 7 -7 20 -7 14 0 25 5 25 11 0 7 3 8 8 0 9 -12 82 -15 82 -3 0 5 5 9
11 9 5 0 8 -4 4 -9 -8 -13 38 -10 47 4 5 6 8 6 8 -2 0 -7 5 -13 11 -13 5 0 8
4 5 8 -3 5 1 9 9 9 8 0 12 -4 10 -7 -3 -4 7 -7 20 -7 14 0 25 5 25 11 0 7 3 8
8 0 9 -12 82 -15 82 -3 0 5 5 9 11 9 5 0 8 -4 4 -9 -8 -13 38 -10 47 4 5 6 8
6 8 -2 0 -7 5 -13 11 -13 5 0 8 4 5 8 -3 5 1 9 9 9 8 0 12 -3 10 -7 -2 -4 9
-7 26 -8 26 -1 28 2 18 14 -10 12 -9 13 5 8 9 -3 16 -10 16 -14 0 -12 74 -8
82 4 5 7 8 7 8 -1 0 -7 5 -13 11 -13 5 0 7 5 3 12 -4 6 -3 8 4 4 5 -3 12 -3
15 1 2 5 2 2 1 -4 -2 -7 0 -13 4 -13 5 0 14 6 21 13 10 9 12 9 7 0 -5 -9 3
-11 27 -10 46 4 74 26 73 59 -1 14 2 24 6 22 4 -3 8 0 8 5 0 6 -6 11 -12 11
-10 0 -9 3 1 9 11 7 11 9 0 14 -9 4 -10 8 -4 14 12 10 15 54 3 47 -4 -3 -8 -1
-8 5 0 5 6 12 13 14 9 4 8 8 -3 16 -13 10 -13 11 0 11 13 0 13 1 0 10 -9 6
-11 13 -5 18 12 8 15 53 3 46 -4 -3 -8 0 -8 5 0 6 5 11 11 11 8 0 8 4 0 14 -9
10 -9 16 -1 21 8 5 7 11 -1 22 -10 12 -10 16 2 24 12 8 12 10 -1 19 -13 9 -13
10 0 10 13 0 13 1 0 10 -9 6 -11 13 -5 18 12 8 15 53 3 46 -4 -3 -8 -1 -8 5 0
5 6 12 13 14 9 4 8 8 -3 16 -13 10 -13 11 0 11 13 0 13 1 0 10 -9 6 -11 13 -5
18 12 8 15 53 3 46 -4 -3 -8 -1 -8 5 0 5 6 12 13 14 9 4 8 8 -3 16 -13 10 -13
11 0 11 13 0 13 1 0 10 -13 9 -13 10 0 10 13 0 13 1 0 10 -13 9 -13 10 0 10
13 0 13 1 0 10 -13 9 -13 10 0 10 13 0 13 1 0 10 -13 9 -13 10 0 10 13 0 13 1
0 10 -13 9 -13 10 0 10 13 0 13 1 0 10 -13 9 -13 10 0 10 13 0 13 1 0 10 -13
9 -13 10 0 10 13 0 13 1 0 10 -13 9 -13 10 0 10 13 0 13 1 0 10 -13 9 -13 10
0 10 13 0 13 1 0 10 -13 9 -13 10 0 10 13 0 13 1 0 10 -13 9 -13 10 0 10 13 0
13 1 0 10 -13 9 -13 10 0 10 13 0 13 1 0 10 -13 9 -13 10 0 10 13 0 13 1 0 10
-13 9 -13 10 0 10 13 0 13 1 0 10 -13 9 -13 10 0 10 13 0 13 1 0 10 -13 9 -13
10 0 10 13 0 13 1 0 11 -10 7 -11 12 -3 15 8 4 9 14 3 34 -6 20 -5 30 3 34 8
3 7 8 -3 15 -13 10 -13 11 0 11 13 0 13 1 0 11 -10 7 -11 12 -3 15 8 4 9 14 3
34 -6 20 -5 30 3 34 8 3 7 8 -3 15 -13 10 -13 11 0 11 13 0 13 1 0 11 -10 7
-11 12 -3 15 8 4 9 14 3 34 -6 20 -5 30 3 34 8 3 7 8 -3 15 -13 10 -13 11 0
11 13 0 13 1 0 11 -10 7 -11 12 -3 15 8 4 9 14 3 34 -6 20 -5 30 3 34 8 3 7 8
-3 15 -13 10 -13 11 0 11 13 0 13 1 0 11 -10 7 -11 12 -3 15 8 4 9 14 3 34 -6
20 -5 30 3 34 8 3 7 8 -3 15 -13 10 -13 11 0 11 13 0 13 1 0 10 -13 9 -13 10
0 10 13 0 13 1 0 10 -13 9 -13 10 0 10 13 0 13 1 0 10 -13 9 -13 10 0 10 13 0
13 1 0 10 -13 9 -13 10 0 10 13 0 13 1 0 10 -13 9 -13 10 0 10 13 0 13 1 0 10
-13 9 -13 10 0 10 13 0 13 1 0 10 -13 9 -13 10 0 10 13 0 13 1 0 10 -13 9 -13
10 0 10 13 0 13 1 0 10 -13 9 -13 10 0 10 13 0 13 1 0 10 -13 9 -13 10 0 10
13 0 13 1 0 10 -13 9 -13 10 0 10 13 0 13 1 0 10 -13 9 -13 10 0 10 13 0 13 1
0 10 -13 9 -13 10 0 10 13 0 13 1 0 10 -13 9 -13 10 0 10 13 0 13 1 0 10 -13
9 -13 10 0 10 13 0 13 1 0 10 -13 9 -13 10 0 10 13 0 13 1 0 11 -11 8 -12 12
-2 16 6 2 12 9 12 14 0 6 -4 8 -8 5 -12 -7 -9 38 3 47 6 4 4 11 -5 17 -13 9
-13 10 0 10 13 0 13 1 0 11 -10 7 -11 12 -3 15 8 4 9 14 3 34 -6 20 -5 30 3
34 8 3 7 8 -3 15 -13 10 -13 11 0 11 13 0 13 1 0 11 -10 7 -11 12 -3 15 8 4 9
14 3 35 -6 20 -5 29 3 29 7 0 6 4 -3 10 -9 6 -10 10 -3 10 8 0 9 9 3 29 -6 21
-5 31 3 35 8 3 7 8 -3 15 -13 10 -13 11 0 11 13 0 13 1 0 11 -10 7 -11 12 -3
15 8 4 9 14 3 34 -6 20 -5 30 3 34 8 3 7 8 -3 15 -13 10 -13 11 0 11 13 0 13
1 0 11 -10 7 -11 12 -3 15 8 4 9 14 3 34 -6 20 -5 30 3 34 8 3 7 8 -3 15 -13
10 -13 11 0 11 13 0 13 1 0 10 -13 9 -13 10 0 10 13 0 13 1 0 10 -13 9 -13 10
0 10 13 0 13 1 0 10 -13 9 -13 10 0 10 13 0 13 1 0 10 -13 9 -13 10 0 10 13 0
13 1 0 10 -13 9 -13 10 0 10 13 0 13 1 0 10 -13 9 -13 10 0 10 13 0 13 1 0 10
-13 9 -13 10 0 10 13 0 13 1 0 10 -13 9 -13 10 0 10 13 0 13 1 0 10 -13 9 -13
10 0 10 13 0 13 1 0 10 -13 9 -13 10 0 10 13 0 13 1 0 10 -13 9 -13 10 0 10
13 0 13 1 0 10 -13 9 -13 10 0 10 13 0 13 1 0 10 -13 9 -13 10 0 10 13 0 13 1
0 10 -13 9 -13 10 0 10 13 0 13 1 0 10 -13 9 -13 10 0 10 13 0 13 1 0 10 -13
9 -13 10 0 10 13 0 13 1 0 11 -10 7 -11 12 -3 15 8 4 9 14 3 34 -6 20 -5 30 3
34 8 3 7 8 -3 15 -13 10 -13 11 0 11 13 0 13 1 0 11 -10 7 -11 12 -3 15 8 4 9
14 3 34 -6 20 -5 30 3 34 8 3 7 8 -3 15 -13 10 -13 11 0 11 13 0 13 1 0 11
-10 7 -11 12 -3 15 8 4 9 14 3 34 -6 20 -5 30 3 34 8 3 7 8 -3 15 -13 10 -13
11 0 11 13 0 13 1 0 11 -10 7 -11 12 -3 15 8 4 9 14 3 34 -6 20 -5 30 3 34 8
3 7 8 -3 15 -13 10 -13 11 0 11 13 0 13 1 0 11 -10 7 -11 12 -3 15 8 4 9 14 3
34 -6 20 -5 30 3 34 8 3 7 8 -3 15 -13 10 -13 11 0 11 13 0 13 1 0 10 -13 9
-13 10 0 10 13 0 13 1 0 10 -13 9 -13 10 0 10 13 0 13 1 0 10 -13 9 -13 10 0
10 13 0 13 1 0 10 -13 9 -13 10 0 10 13 0 13 1 0 10 -13 9 -13 10 0 10 13 0
13 1 0 10 -13 9 -13 10 0 10 13 0 13 1 0 10 -13 9 -13 10 0 10 13 0 13 1 0 10
-13 9 -13 10 0 10 13 0 13 1 0 10 -13 9 -13 10 0 10 13 0 13 1 0 10 -13 9 -13
10 0 10 13 0 13 1 0 10 -13 9 -13 10 0 10 13 0 13 1 0 10 -13 9 -13 10 0 10
13 0 13 1 0 10 -13 9 -13 10 0 10 13 0 13 1 0 10 -13 9 -13 10 0 10 13 0 13 1
0 10 -13 9 -13 10 0 10 13 0 13 1 0 10 -13 9 -13 10 0 10 13 0 13 1 0 11 -11
8 -12 12 -2 16 6 2 12 9 12 14 0 6 -4 8 -8 5 -12 -7 -9 38 3 47 6 4 4 11 -5
17 -13 9 -13 10 0 10 13 0 13 1 0 11 -10 7 -11 12 -3 15 8 4 9 14 3 34 -6 20
-5 30 3 34 8 3 7 8 -3 15 -13 10 -13 11 0 11 13 0 13 1 0 11 -10 7 -11 12 -3
15 8 4 9 14 3 35 -6 20 -5 29 3 29 7 0 6 4 -3 10 -9 6 -10 10 -3 10 8 0 9 9 3
29 -6 21 -5 31 3 35 8 3 7 8 -3 15 -13 10 -13 11 0 11 13 0 13 1 0 10 -9 6
-11 13 -5 18 6 4 10 14 10 22 0 8 -4 19 -10 23 -7 6 -6 10 1 13 15 6 -6 72
-25 79 -11 5 -12 3 -1 -10 11 -14 10 -14 -14 -5 -34 13 -49 13 -41 1 3 -6 -6
-7 -22 -2 -16 4 -53 7 -83 6 -30 -1 -60 2 -67 7 -7 5 -14 5 -18 -2 -3 -5 -18
-7 -32 -4 -17 5 -24 3 -19 -4 4 -7 -2 -8 -21 -3 -16 4 -53 7 -83 6 -30 -1 -60
2 -67 7 -7 5 -14 5 -18 -2 -3 -5 -18 -7 -32 -4 -17 5 -24 3 -19 -4 4 -7 -2 -8
-21 -3 -16 4 -53 7 -83 6 -30 -1 -60 2 -67 7 -7 5 -14 5 -18 -2 -3 -5 -18 -7
-32 -4 -17 5 -24 3 -19 -4 4 -7 -2 -8 -21 -3 -16 4 -53 7 -83 6 -30 -1 -60 2
-67 7 -7 5 -14 5 -18 -2 -3 -5 -18 -7 -32 -4 -17 5 -24 3 -19 -4 4 -7 -2 -8
-21 -3 -16 4 -53 7 -83 6 -30 -1 -60 2 -67 7 -7 5 -14 5 -18 -2 -3 -5 -18 -7
-32 -4 -17 5 -24 3 -19 -4 4 -7 -2 -8 -21 -3 -16 4 -53 7 -83 6 -30 -1 -60 2
-67 7 -7 5 -14 5 -18 -2 -3 -5 -18 -7 -32 -4 -17 5 -24 3 -19 -4 4 -7 -2 -8
-21 -3 -16 4 -53 7 -83 6 -30 -1 -60 2 -67 7 -7 5 -14 5 -18 -2 -3 -5 -18 -7
-32 -4 -17 5 -24 3 -19 -4 4 -7 -2 -8 -21 -3 -16 4 -53 7 -83 6 -30 -1 -60 2
-67 7 -7 5 -14 5 -18 -2 -3 -5 -18 -7 -32 -4 -17 5 -24 3 -19 -4 4 -7 -2 -8
-21 -3 -16 4 -53 7 -83 6 -30 -1 -60 2 -67 7 -7 5 -14 5 -18 -2 -3 -5 -18 -7
-32 -4 -17 5 -24 3 -19 -4 4 -7 -2 -8 -21 -3 -16 4 -53 7 -83 6 -30 -1 -60 2
-67 7 -7 5 -14 5 -18 -2 -3 -5 -18 -7 -32 -4 -17 5 -24 3 -19 -4 4 -7 -2 -8
-21 -3 -16 4 -53 7 -83 6 -30 -1 -60 2 -67 7 -7 5 -14 5 -18 -2 -3 -5 -18 -7
-32 -4 -17 5 -24 3 -19 -4 4 -7 -2 -8 -21 -3 -16 4 -53 7 -83 6 -30 -1 -60 2
-67 7 -7 5 -14 5 -18 -2 -3 -5 -18 -7 -32 -4 -17 5 -24 3 -19 -4 4 -7 -2 -8
-21 -3 -16 4 -53 7 -83 6 -30 -1 -60 2 -67 7 -7 5 -14 5 -18 -2 -3 -5 -18 -7
-32 -4 -17 5 -24 3 -19 -4 4 -7 -2 -8 -21 -3 -16 4 -53 7 -83 6 -30 -1 -60 2
-67 7 -7 5 -14 5 -18 -2 -3 -5 -18 -7 -32 -4 -17 5 -24 3 -19 -4 4 -7 -2 -8
-21 -3 -16 4 -53 7 -83 6 -30 -1 -60 2 -67 7 -7 5 -14 5 -18 -2 -3 -5 -18 -7
-32 -4 -17 5 -24 3 -19 -4 4 -7 -2 -8 -21 -3 -16 4 -53 7 -83 6 -30 -1 -60 2
-67 7 -7 5 -14 5 -18 -2 -3 -5 -18 -7 -32 -4 -17 5 -24 3 -19 -4 4 -7 -2 -8
-21 -3 -16 4 -53 7 -83 6 -30 -1 -60 2 -67 7 -7 5 -14 5 -18 -2 -3 -5 -18 -7
-32 -4 -17 5 -24 3 -19 -4 4 -7 -2 -8 -21 -3 -36 10 -104 8 -122 -3 -9 -6 -12
-5 -8 1 4 6 0 14 -9 17 -10 4 -13 2 -8 -6z"/>
<path d="M5305 4820 c-4 -6 -14 -9 -23 -5 -8 3 -19 0 -24 -7 -6 -10 -8 -10 -8
0 0 8 -6 6 -18 -5 -11 -10 -17 -21 -15 -25 2 -5 -2 -8 -9 -8 -9 0 -9 -3 2 -10
8 -5 10 -10 5 -10 -6 0 -11 -9 -11 -20 0 -11 5 -20 11 -20 5 0 3 -5 -5 -10
-11 -7 -11 -10 -2 -10 8 0 10 -5 5 -12 -11 -19 -13 -39 -2 -32 5 3 9 0 9 -5 0
-6 -6 -11 -12 -11 -9 0 -8 -4 2 -10 8 -5 10 -10 4 -10 -8 0 -9 -11 -4 -35 5
-24 4 -35 -4 -35 -6 0 -4 -5 4 -10 11 -7 11 -10 2 -10 -10 0 -10 -5 -2 -20 8
-15 8 -20 -2 -20 -9 0 -9 -3 2 -10 13 -9 13 -10 0 -10 -9 0 -11 -3 -5 -8 6 -4
10 -24 10 -45 0 -20 -4 -37 -10 -37 -5 0 -3 -5 5 -10 8 -5 10 -10 4 -10 -7 0
-9 -15 -4 -45 5 -30 3 -45 -4 -45 -6 0 -4 -5 4 -10 13 -9 13 -10 0 -10 -12 0
-13 -2 -1 -9 11 -7 11 -9 0 -14 -11 -4 -11 -6 -1 -6 8 -1 10 -6 5 -13 -11 -19
-13 -39 -2 -32 5 3 9 0 9 -5 0 -6 -6 -11 -12 -11 -9 0 -8 -4 2 -10 8 -5 10
-10 4 -10 -8 0 -9 -11 -4 -35 5 -24 4 -35 -4 -35 -6 0 -4 -5 4 -10 11 -7 11
-10 2 -10 -10 0 -10 -5 -2 -20 8 -15 8 -20 -2 -20 -9 0 -9 -3 2 -10 13 -9 13
-10 0 -10 -9 0 -11 -3 -5 -8 6 -4 10 -24 10 -45 0 -20 -4 -37 -10 -37 -5 0 -3
-5 5 -10 8 -5 10 -10 4 -10 -7 0 -9 -15 -4 -45 5 -30 3 -45 -4 -45 -6 0 -4 -5
4 -10 13 -9 13 -10 0 -10 -12 0 -13 -2 -1 -9 11 -7 11 -9 0 -14 -11 -4 -11 -6
-1 -6 8 -1 10 -6 5 -13 -11 -19 -13 -39 -2 -32 5 3 9 0 9 -5 0 -6 -6 -11 -12
-11 -9 0 -8 -4 2 -10 8 -5 10 -10 4 -10 -8 0 -9 -11 -4 -35 5 -24 4 -35 -4
-35 -6 0 -4 -5 4 -10 11 -7 11 -10 2 -10 -10 0 -10 -5 -2 -20 8 -15 8 -20 -2
-20 -9 0 -9 -3 2 -10 13 -9 13 -10 0 -10 -9 0 -11 -3 -5 -8 6 -4 10 -24 10
-45 0 -20 -4 -37 -10 -37 -5 0 -3 -5 5 -10 8 -5 10 -10 4 -10 -7 0 -9 -15 -4
-45 5 -30 3 -45 -4 -45 -6 0 -4 -5 4 -10 13 -9 13 -10 0 -10 -12 0 -13 -2 -1
-9 11 -7 11 -9 0 -14 -11 -4 -11 -6 -1 -6 8 -1 10 -6 5 -13 -11 -19 -13 -39
-2 -32 5 3 9 0 9 -5 0 -6 -6 -11 -12 -11 -9 0 -8 -4 2 -10 8 -5 10 -10 4 -10
-8 0 -9 -11 -4 -35 5 -24 4 -35 -4 -35 -6 0 -4 -5 4 -10 11 -7 11 -10 2 -10
-10 0 -10 -5 -2 -20 8 -15 8 -20 -2 -20 -9 0 -9 -3 2 -10 13 -9 13 -10 0 -10
-9 0 -11 -3 -5 -8 6 -4 10 -24 10 -45 0 -20 -4 -37 -10 -37 -5 0 -3 -5 5 -10
8 -5 10 -10 4 -10 -7 0 -9 -15 -4 -45 5 -30 3 -45 -4 -45 -6 0 -4 -5 4 -10 13
-9 13 -10 0 -10 -12 0 -13 -2 -1 -9 11 -7 11 -9 0 -14 -11 -4 -11 -6 -1 -6 8
-1 10 -6 5 -13 -11 -19 -13 -39 -2 -32 5 3 9 0 9 -5 0 -6 -6 -11 -12 -11 -9 0
-8 -4 2 -10 8 -5 10 -10 4 -10 -8 0 -9 -11 -4 -35 5 -24 4 -35 -4 -35 -6 0 -4
-5 4 -10 11 -7 11 -10 2 -10 -10 0 -10 -5 -2 -20 8 -15 8 -20 -2 -20 -9 0 -9
-3 2 -10 13 -9 13 -10 0 -10 -9 0 -11 -3 -5 -8 6 -4 10 -24 10 -45 0 -20 -4
-37 -10 -37 -5 0 -3 -5 5 -10 8 -5 10 -10 4 -10 -7 0 -9 -15 -4 -45 5 -30 3
-45 -4 -45 -6 0 -4 -5 4 -10 13 -9 13 -10 0 -10 -12 0 -13 -2 -1 -9 11 -7 11
-9 0 -14 -11 -4 -11 -6 -1 -6 8 -1 10 -6 5 -13 -11 -19 -13 -39 -2 -32 5 3 9
0 9 -5 0 -6 -6 -11 -12 -11 -9 0 -8 -4 2 -10 8 -5 10 -10 4 -10 -8 0 -9 -11
-4 -35 5 -24 4 -35 -4 -35 -6 0 -4 -5 4 -10 11 -7 11 -10 2 -10 -10 0 -10 -5
-2 -20 8 -15 8 -20 -2 -20 -9 0 -9 -3 2 -10 13 -9 13 -10 0 -10 -9 0 -11 -3
-5 -8 6 -4 10 -24 10 -45 0 -20 -4 -37 -10 -37 -5 0 -3 -5 5 -10 8 -5 10 -10
4 -10 -7 0 -9 -15 -4 -45 5 -30 3 -45 -4 -45 -7 0 -7 -3 -1 -8 14 -10 14 -52
1 -52 -6 0 -4 -5 4 -10 13 -9 13 -10 0 -10 -13 0 -13 -1 0 -10 12 -8 13 -11 1
-19 -11 -7 -11 -9 0 -14 9 -4 10 -6 2 -6 -7 -1 -10 -7 -8 -14 11 -30 12 -87 1
-87 -6 0 -5 -4 3 -9 11 -7 11 -9 0 -14 -12 -4 -11 -7 1 -16 13 -10 13 -11 0
-11 -9 0 -11 -3 -5 -8 6 -4 10 -24 10 -45 0 -20 -4 -37 -10 -37 -5 0 -3 -5 5
-10 10 -6 11 -10 3 -10 -9 0 -10 -7 -3 -26 7 -18 7 -23 -2 -18 -7 4 -8 3 -4
-5 11 -18 12 -101 1 -101 -5 0 -3 -5 5 -10 13 -9 13 -10 0 -10 -13 0 -13 -1 0
-10 12 -8 13 -11 1 -19 -11 -7 -11 -9 0 -14 9 -4 10 -6 2 -6 -7 -1 -10 -7 -8
-13 11 -31 12 -88 1 -88 -6 0 -5 -4 3 -9 11 -7 11 -9 0 -14 -12 -4 -11 -7 1
-16 13 -10 13 -11 0 -11 -9 0 -11 -3 -5 -8 6 -4 10 -24 10 -45 0 -20 -4 -37
-10 -37 -5 0 -3 -5 5 -10 10 -6 11 -10 3 -10 -9 0 -10 -7 -3 -26 7 -18 7 -23
-2 -18 -7 4 -8 3 -4 -5 11 -18 12 -101 1 -101 -5 0 -3 -5 5 -10 13 -9 13 -10
0 -10 -13 0 -13 -1 0 -10 12 -8 13 -11 1 -19 -11 -7 -11 -9 0 -14 9 -4 10 -6
2 -6 -7 -1 -10 -7 -8 -13 11 -31 12 -88 1 -88 -6 0 -5 -4 3 -9 11 -7 11 -9 0
-14 -12 -4 -11 -7 1 -16 13 -10 13 -11 0 -11 -9 0 -11 -3 -5 -8 6 -4 10 -24
10 -45 0 -20 -4 -37 -10 -37 -5 0 -3 -5 5 -10 11 -7 11 -10 2 -10 -7 0 -11 -4
-8 -9 4 -5 7 -28 8 -51 1 -22 4 -37 7 -32 3 6 22 9 43 8 28 -1 34 -4 26 -14
-8 -9 -13 -10 -18 -2 -5 8 -9 7 -13 -3 -6 -15 15 -18 29 -4 12 12 26 8 18 -5
-4 -7 -3 -8 4 -4 6 4 9 12 6 20 -3 7 2 13 10 13 8 0 13 -5 9 -10 -3 -5 3 -6
16 -2 17 5 20 3 15 -12 -5 -17 -5 -17 6 0 13 20 31 23 26 5 -1 -7 -1 -10 1 -5
3 4 11 7 19 7 9 0 12 -5 8 -12 -4 -7 -3 -8 4 -4 6 4 9 12 6 20 -3 7 2 13 10
13 8 0 13 -5 9 -10 -3 -5 3 -6 16 -2 17 5 20 3 15 -12 -5 -17 -5 -17 6 0 13
20 31 23 26 5 -1 -7 -1 -10 1 -5 3 4 11 7 19 7 9 0 12 -5 8 -12 -4 -7 -3 -8 4
-4 6 4 9 12 6 20 -3 7 2 13 10 13 8 0 13 -5 9 -10 -3 -5 3 -6 16 -2 17 5 20 3
15 -12 -5 -17 -5 -17 6 0 13 20 31 23 26 5 -1 -7 -1 -10 1 -5 3 4 11 7 19 7 9
0 12 -5 8 -12 -4 -7 -3 -8 4 -4 6 4 9 12 6 20 -3 7 2 13 10 13 8 0 13 -5 9
-10 -3 -5 3 -6 16 -2 17 5 20 3 15 -12 -5 -17 -5 -17 6 -1 13 21 31 24 26 6
-1 -7 -1 -10 1 -5 7 11 31 8 37 -5 3 -7 4 -4 1 8 -4 14 0 21 9 21 9 0 13 -5 9
-10 -3 -5 4 -6 17 -2 15 5 20 3 16 -3 -3 -6 -2 -14 4 -17 6 -4 9 -1 8 6 -2 6
3 14 11 17 8 2 11 0 7 -6 -3 -6 -1 -14 5 -18 8 -4 9 -3 5 4 -4 7 -1 12 8 12 8
0 17 -6 20 -12 3 -7 4 -4 1 8 -4 14 0 21 9 21 9 0 13 -5 9 -10 -3 -5 4 -6 17
-2 15 5 20 3 16 -3 -3 -6 -2 -14 4 -17 6 -4 9 -1 8 6 -2 6 3 14 11 17 8 2 11
0 7 -6 -3 -6 -1 -14 5 -18 8 -4 9 -3 5 4 -4 7 -1 12 8 12 8 0 17 -6 20 -12 3
-7 4 -4 1 8 -4 14 0 21 9 21 9 0 13 -5 9 -10 -3 -5 4 -6 17 -2 15 5 20 3 16
-3 -3 -6 -2 -14 4 -17 6 -4 9 -1 8 6 -2 6 3 14 11 17 8 2 11 0 7 -6 -3 -6 -1
-14 5 -18 8 -4 9 -3 5 4 -4 7 -1 12 8 12 8 0 17 -6 20 -12 3 -7 4 -4 1 8 -4
14 0 21 9 21 9 0 13 -5 9 -10 -3 -5 4 -6 17 -2 15 5 20 3 16 -3 -3 -6 -2 -14
4 -17 6 -4 9 -1 8 6 -2 7 5 15 15 17 9 2 17 -2 17 -8 0 -6 -5 -8 -12 -4 -7 5
-8 3 -4 -5 6 -9 13 -8 27 5 30 27 51 27 44 1 -5 -18 -4 -19 4 -7 10 13 12 13
21 0 5 -8 10 -10 10 -5 0 6 -4 15 -9 20 -6 6 -1 11 15 11 13 1 24 -2 24 -8 0
-5 -4 -6 -10 -3 -6 3 -7 -1 -4 -9 5 -14 8 -14 21 -1 21 21 39 19 22 -2 -13
-17 -13 -17 7 0 24 20 35 22 30 5 -1 -7 -1 -10 1 -5 3 4 11 7 19 7 9 0 12 -5
8 -12 -4 -7 -3 -8 4 -4 6 4 9 12 6 20 -3 7 2 13 10 13 8 0 13 -5 9 -10 -3 -5
3 -6 16 -2 17 5 20 3 15 -12 -5 -17 -5 -17 6 0 13 20 31 23 26 5 -1 -7 -1 -10
1 -5 3 4 11 7 19 7 9 0 12 -5 8 -12 -4 -7 -3 -8 4 -4 6 4 9 12 6 20 -3 7 2 13
10 13 8 0 13 -5 9 -10 -3 -5 3 -6 16 -2 17 5 20 3 15 -12 -5 -17 -5 -17 6 0
13 20 31 23 26 5 -1 -7 -1 -10 1 -5 3 4 11 7 19 7 9 0 12 -5 8 -12 -4 -7 -3
-8 4 -4 6 4 9 12 6 20 -3 7 2 13 10 13 8 0 13 -5 9 -10 -3 -5 3 -6 16 -2 17 5
20 3 15 -12 -5 -17 -5 -17 6 0 13 20 31 23 26 4 -1 -6 -1 -9 1 -4 3 4 11 7 19
7 9 0 12 -5 8 -12 -4 -7 -3 -8 4 -4 6 4 9 12 6 20 -3 7 2 13 10 13 8 0 13 -5
9 -10 -3 -5 3 -6 16 -2 17 5 20 3 15 -12 -5 -17 -5 -17 6 -1 13 21 31 24 26 6
-1 -7 -1 -10 1 -5 3 4 11 7 19 7 9 0 12 -5 8 -12 -4 -7 -3 -8 4 -4 6 4 9 12 6
20 -3 7 2 13 10 13 8 0 13 -5 9 -10 -3 -5 3 -6 16 -2 17 5 20 3 15 -12 -5 -17
-5 -17 6 0 13 20 31 23 26 5 -1 -7 -1 -10 1 -5 7 11 31 8 37 -5 3 -7 4 -4 1 8
-4 14 0 21 9 21 9 0 13 -5 9 -10 -3 -5 4 -6 17 -2 15 5 20 3 16 -3 -3 -6 -2
-14 4 -17 6 -4 9 -1 8 6 -2 6 3 14 11 17 8 2 11 0 7 -6 -3 -6 -1 -14 5 -18 8
-4 9 -3 5 4 -4 7 -1 12 8 12 8 0 17 -6 20 -12 3 -7 4 -4 1 8 -4 14 0 21 9 21
9 0 13 -5 9 -10 -3 -5 4 -6 17 -2 15 5 20 3 16 -3 -3 -6 -2 -14 4 -17 6 -4 9
-1 8 6 -2 6 3 14 11 17 8 2 11 0 7 -6 -3 -6 -1 -14 5 -18 8 -4 9 -3 5 4 -4 7
-1 12 8 12 8 0 17 -6 20 -12 3 -7 4 -4 1 8 -4 14 0 21 9 21 9 0 13 -5 9 -10
-3 -5 4 -6 17 -2 15 5 20 3 16 -3 -3 -6 -2 -14 4 -17 6 -4 9 -1 8 6 -2 6 3 14
11 17 8 2 11 0 7 -6 -3 -6 -1 -14 5 -18 8 -4 9 -3 5 4 -4 7 -1 12 8 12 8 0 17
-6 20 -12 3 -7 4 -4 1 8 -4 14 0 21 9 21 9 0 13 -5 9 -10 -3 -5 4 -6 17 -2 15
5 20 3 16 -3 -3 -6 -2 -14 4 -17 6 -4 9 -1 8 6 -2 7 5 15 15 17 9 2 17 -2 17
-8 0 -6 -5 -8 -12 -4 -7 5 -8 3 -4 -5 6 -9 13 -8 27 5 30 27 51 27 44 1 -5
-18 -4 -19 4 -7 10 13 12 13 21 0 5 -8 10 -10 10 -5 0 6 -4 15 -9 20 -6 6 -1
11 15 11 13 1 24 -2 24 -8 0 -5 -4 -6 -10 -3 -6 3 -7 -1 -4 -9 5 -14 8 -14 21
-1 21 21 39 19 22 -2 -13 -17 -13 -17 7 -1 24 21 35 23 30 6 -1 -7 -1 -10 1
-5 3 4 11 7 19 7 9 0 12 -5 8 -12 -4 -7 -3 -8 4 -4 6 4 9 12 6 20 -3 7 2 13
10 13 8 0 13 -5 9 -10 -3 -5 3 -6 16 -2 17 5 20 3 15 -12 -5 -17 -5 -17 6 0
13 20 31 23 26 5 -1 -7 -1 -10 1 -5 3 4 11 7 19 7 9 0 12 -5 8 -12 -4 -7 -3
-8 4 -4 6 4 9 12 6 20 -3 7 2 13 10 13 8 0 13 -5 9 -10 -3 -5 3 -6 16 -2 17 5
20 3 15 -12 -5 -17 -5 -17 6 0 13 20 31 23 26 5 -1 -7 -1 -10 1 -5 3 4 11 7
19 7 9 0 12 -5 8 -12 -4 -7 -3 -8 4 -4 6 4 9 12 6 20 -3 7 2 13 10 13 8 0 13
-5 9 -10 -3 -5 3 -6 16 -2 17 5 20 3 15 -12 -5 -17 -5 -17 6 0 13 20 31 23 26
5 -1 -7 -1 -10 1 -5 3 4 11 7 19 7 9 0 12 -5 8 -12 -4 -7 -3 -8 4 -4 6 4 9 12
6 20 -3 7 2 13 10 13 8 0 13 -5 9 -10 -3 -5 3 -6 16 -2 17 5 20 3 15 -12 -5
-17 -5 -17 6 0 13 20 31 23 26 5 -1 -7 -1 -10 1 -5 3 4 11 7 19 7 9 0 12 -5 8
-12 -4 -7 -3 -8 4 -4 6 4 9 12 6 20 -3 7 2 13 10 13 8 0 13 -5 9 -10 -3 -5 3
-6 16 -2 17 5 20 3 15 -12 -5 -17 -5 -17 6 -1 13 21 31 24 26 6 -1 -7 -1 -10
1 -5 7 11 31 8 37 -5 3 -7 4 -4 1 8 -4 14 0 21 9 21 9 0 13 -5 9 -10 -3 -5 4
-6 17 -2 15 5 20 3 16 -3 -3 -6 -2 -14 4 -17 6 -4 9 -1 8 5 -2 7 8 16 22 21
23 8 23 8 7 -5 -10 -8 -14 -17 -8 -20 5 -3 12 0 14 6 4 10 8 9 17 -2 9 -12 10
-11 6 6 -4 14 -2 21 8 21 9 0 12 -5 9 -10 -4 -7 1 -7 13 -3 37 16 57 19 51 9
-3 -5 0 -10 8 -10 8 0 12 4 9 9 -3 5 16 8 43 6 34 -2 52 1 63 12 8 9 11 10 6
3 -12 -19 0 -16 20 4 17 18 48 28 39 13 -3 -4 4 -10 14 -13 15 -3 18 -1 14 11
-5 11 -2 14 11 9 10 -4 15 -3 11 3 -3 6 1 10 10 10 9 0 13 4 10 10 -3 6 1 7 9
4 9 -3 13 -11 10 -18 -3 -6 4 0 16 14 16 18 20 20 16 7 -3 -11 -2 -16 4 -12 6
3 10 13 10 21 0 8 5 12 10 9 6 -4 17 -1 25 5 11 9 15 9 15 1 0 -8 4 -8 14 1 8
7 12 17 9 21 -3 5 3 7 13 5 11 -2 25 3 32 12 12 13 12 13 7 0 -4 -8 5 -1 20
15 14 17 23 23 19 15 -4 -8 3 -5 15 8 12 12 26 22 32 22 6 0 7 6 3 13 -6 9 -5
9 7 1 11 -9 17 -9 26 1 6 7 9 16 6 19 -4 3 -1 6 6 6 7 0 9 4 6 10 -4 6 1 7 11
3 14 -5 16 -3 11 11 -4 10 -3 15 3 11 9 -6 70 21 70 31 0 3 -5 2 -12 -2 -7 -5
-8 -3 -4 5 5 7 15 10 23 7 8 -3 12 -2 10 2 -7 10 19 32 28 24 4 -4 6 -2 5 3
-4 19 0 36 8 32 4 -3 12 1 19 8 10 11 10 15 0 18 -9 4 -9 6 1 6 6 1 12 8 12
16 0 8 6 14 13 12 6 -1 11 3 10 10 -2 7 6 17 17 23 11 6 20 18 20 26 0 8 5 12
10 9 6 -4 10 5 10 20 0 21 4 26 16 21 14 -5 15 -4 4 9 -11 13 -10 14 6 9 10
-4 16 -4 12 1 -4 4 1 15 10 24 10 9 12 12 5 7 -10 -6 -12 -4 -7 8 3 9 10 16
15 16 4 0 6 7 3 15 -4 10 0 15 11 15 9 0 14 4 10 9 -3 5 -1 12 5 16 5 3 10 15
10 27 0 15 4 18 16 14 14 -5 15 -4 5 8 -10 11 -8 17 6 25 10 6 12 11 6 11 -19
0 -10 38 13 55 14 11 15 14 4 15 -9 0 -11 3 -5 8 14 10 17 32 4 32 -5 0 -7 5
-4 10 4 6 10 8 15 5 5 -3 7 4 5 16 -3 17 -2 19 10 9 11 -9 12 -7 8 10 -4 13 0
26 8 32 11 8 10 8 -5 4 -18 -6 -18 -5 -1 20 9 15 12 23 6 20 -12 -8 -10 28 2
40 4 4 2 13 -4 21 -9 10 -8 13 2 13 11 0 11 2 -1 10 -13 8 -13 10 1 10 9 0 20
7 23 16 10 26 7 29 -9 8 -13 -18 -14 -18 -9 8 3 19 0 28 -8 28 -9 0 -8 3 2 10
12 8 13 13 2 30 -10 17 -10 20 3 20 9 0 12 6 8 17 -4 11 -3 14 6 9 10 -6 10
-4 0 12 -7 12 -17 18 -22 15 -11 -6 14 39 28 50 6 5 3 7 -7 3 -10 -3 -20 -1
-23 4 -3 5 2 10 12 12 15 3 15 4 -1 21 -20 19 -8 24 14 5 11 -10 11 -9 0 7 -8
11 -19 23 -25 27 -6 5 -5 8 3 8 6 0 12 7 12 15 0 8 5 15 12 15 6 0 8 3 5 6 -4
4 -12 2 -20 -4 -10 -8 -13 -7 -13 7 0 11 6 17 13 14 9 -4 11 0 6 13 -5 13 -3
15 8 9 11 -7 11 -5 -1 11 -8 10 -19 22 -25 26 -6 5 -5 8 3 8 6 0 12 7 12 15 0
8 5 15 12 15 6 0 8 3 5 6 -4 4 -12 2 -20 -4 -10 -8 -13 -7 -13 7 0 11 6 17 13
14 9 -4 11 0 6 13 -5 13 -3 15 8 9 11 -7 11 -5 -1 11 -8 10 -19 22 -25 26 -6
5 -5 8 3 8 6 0 12 7 12 15 0 8 5 15 12 15 6 0 8 3 5 6 -4 4 -12 2 -20 -4 -10
-8 -13 -7 -13 7 0 11 6 17 13 14 9 -4 11 0 6 13 -5 13 -3 15 8 9 11 -7 11 -5
-1 11 -8 10 -19 22 -25 26 -6 5 -5 8 3 8 6 0 12 7 12 15 0 8 5 15 12 15 6 0 8
3 5 6 -4 4 -12 2 -20 -4 -10 -8 -13 -7 -13 7 0 11 6 17 13 14 9 -4 11 0 6 13
-5 13 -3 15 8 9 8 -5 3 4 -11 19 -16 18 -19 25 -8 21 9 -4 19 -1 24 6 4 7 3
10 -4 5 -12 -7 -25 10 -27 37 -1 12 2 14 9 7 5 -5 15 -10 21 -10 6 0 7 3 0 8
-5 4 -17 16 -25 26 -14 18 -13 18 10 12 14 -4 21 -4 15 1 -5 4 -17 17 -25 27
-14 18 -13 18 10 11 l25 -7 -22 19 c-24 22 -21 36 5 25 14 -5 15 -4 2 10 -8 9
-17 14 -20 13 -3 -2 -6 5 -6 16 0 12 4 15 10 9 6 -6 15 -10 21 -10 6 0 7 3 0
8 -5 4 -17 16 -25 26 -14 18 -13 18 10 12 14 -4 21 -4 15 1 -5 4 -17 17 -25
27 -14 18 -13 18 10 11 l25 -7 -22 19 c-24 22 -21 36 5 25 14 -5 15 -4 2 10
-8 9 -17 14 -20 13 -3 -2 -6 5 -6 16 0 12 4 15 10 9 6 -6 15 -10 21 -10 6 0 7
3 0 8 -5 4 -17 16 -25 26 -14 18 -13 18 10 12 14 -4 21 -4 15 1 -5 4 -17 17
-25 27 -14 18 -13 18 10 11 l25 -7 -22 19 c-24 22 -21 36 5 25 14 -5 15 -4 2
10 -8 9 -17 14 -20 13 -3 -2 -6 5 -6 16 0 12 4 15 10 9 6 -6 15 -10 21 -10 6
0 7 3 0 8 -5 4 -17 16 -25 26 -14 18 -13 18 10 12 14 -4 21 -4 15 1 -5 4 -17
17 -25 27 -14 18 -13 18 10 11 l25 -7 -22 19 c-22 20 -22 34 0 29 7 -2 9 -1 5
1 -5 3 -8 11 -8 19 0 8 -5 14 -12 14 -6 0 -8 3 -5 6 4 4 14 1 24 -7 11 -9 9
-2 -7 20 -13 19 -19 31 -12 27 7 -4 12 -1 12 8 0 8 6 17 13 20 6 3 1 3 -13 0
-22 -4 -23 -3 -9 8 9 7 14 19 11 27 -3 9 0 11 9 6 7 -5 2 7 -11 25 -13 18 -19
30 -12 26 7 -4 12 -1 12 8 0 8 6 17 13 20 6 3 1 3 -13 0 -22 -4 -23 -3 -9 8 9
7 14 19 11 27 -3 9 0 11 9 6 7 -5 2 7 -11 25 -13 18 -19 30 -12 26 7 -4 12 -1
12 8 0 8 6 17 13 20 6 3 1 3 -13 0 -22 -4 -23 -3 -9 8 9 7 14 19 11 27 -3 9 0
11 9 6 7 -5 2 7 -11 25 -13 18 -19 30 -12 26 7 -4 12 -1 12 8 0 8 6 17 13 20
6 3 1 3 -13 0 -22 -4 -23 -3 -9 8 9 7 14 19 11 27 -3 9 0 11 9 6 7 -5 2 7 -11
25 -13 18 -19 30 -12 26 7 -4 12 -1 12 8 0 8 6 17 13 20 6 3 1 3 -13 0 -22 -4
-23 -3 -9 8 9 7 14 19 11 27 -3 9 0 11 9 6 7 -5 2 7 -11 25 -13 18 -19 30 -12
26 7 -4 12 -1 12 8 0 8 6 17 13 20 6 3 1 3 -13 0 -22 -4 -23 -3 -9 8 9 7 14
19 11 27 -3 9 0 11 9 6 7 -5 2 7 -11 25 -13 18 -19 30 -12 26 7 -4 12 -1 12 8
0 8 6 17 13 20 6 3 1 3 -13 0 -22 -4 -23 -3 -9 8 9 7 14 19 11 27 -3 9 0 11 9
6 7 -5 2 7 -11 25 -13 18 -19 30 -12 26 7 -4 12 -1 12 8 0 8 6 17 13 20 6 3 1
3 -13 0 -22 -4 -23 -3 -9 8 9 7 14 19 11 27 -3 9 0 11 9 6 7 -5 2 7 -11 25
-13 18 -19 30 -12 26 7 -4 12 -1 12 8 0 8 6 17 13 20 6 3 1 3 -13 0 -22 -4
-23 -3 -9 8 9 7 14 19 11 27 -3 9 0 11 9 6 7 -5 2 7 -11 25 -13 18 -19 30 -12
26 7 -4 12 -1 12 8 0 8 6 17 13 20 6 3 1 3 -13 0 -22 -4 -23 -3 -9 8 9 7 14
19 11 27 -3 9 0 11 8 6 9 -5 11 -4 6 4 -4 6 -11 9 -16 6 -5 -3 -11 -1 -14 4
-4 5 -1 13 5 17 8 4 9 3 5 -4 -5 -8 -1 -10 9 -5 12 4 13 8 5 13 -9 5 -9 9 -1
14 6 4 11 13 11 19 0 7 -5 4 -11 -5 -15 -27 -25 -22 -24 12 0 18 3 26 9 20 6
-6 15 -10 21 -10 6 0 7 3 0 8 -5 4 -17 16 -25 26 -14 18 -13 18 10 12 14 -4
21 -4 15 1 -5 4 -17 17 -25 27 -14 18 -13 18 10 11 l25 -7 -22 19 c-24 22 -21
36 5 25 14 -5 15 -4 2 10 -8 9 -17 14 -20 13 -3 -2 -6 5 -6 16 0 12 4 15 10 9
6 -6 15 -10 21 -10 6 0 7 3 0 8 -5 4 -17 16 -25 26 -14 18 -13 18 10 12 14 -4
21 -4 15 1 -5 4 -17 17 -25 27 -14 18 -13 18 10 11 l25 -7 -22 19 c-24 22 -21
36 5 25 14 -5 15 -4 2 10 -8 9 -17 14 -20 13 -3 -2 -6 5 -6 16 0 12 4 15 10 9
6 -6 15 -10 21 -10 6 0 7 3 0 8 -5 4 -17 16 -25 26 -14 18 -13 18 10 12 14 -4
21 -4 15 1 -5 4 -17 17 -25 27 -14 18 -13 18 10 11 l25 -7 -22 19 c-16 14 -19
23 -12 30 8 8 8 17 0 31 -8 14 -8 23 -1 27 6 4 9 1 8 -6 -2 -6 4 -14 12 -16
12 -4 12 -3 2 5 -8 5 -13 12 -13 16 3 19 0 27 -8 22 -5 -3 -8 2 -7 11 0 9 -5
18 -13 21 -9 3 -11 0 -6 -8 6 -9 4 -11 -6 -5 -7 5 -46 9 -85 9 -40 1 -76 4
-80 9 -4 4 -16 -1 -27 -10 -11 -10 -17 -12 -13 -5 5 8 0 12 -14 12 -12 0 -19
-4 -16 -9 3 -4 -6 -6 -19 -3 -15 2 -22 9 -18 16 5 8 3 8 -8 -1 -15 -12 -113
-13 -125 0 -4 4 -16 -1 -27 -10 -11 -10 -17 -12 -13 -5 5 8 0 12 -14 12 -12 0
-19 -4 -16 -9 3 -4 -6 -6 -19 -3 -15 2 -22 9 -18 16 5 8 3 8 -8 -1 -15 -12
-113 -13 -125 0 -4 4 -16 -1 -27 -10 -11 -10 -17 -12 -13 -5 5 8 0 12 -14 12
-12 0 -19 -4 -16 -9 3 -4 -6 -6 -19 -3 -15 2 -22 9 -18 16 5 8 3 8 -8 -1 -15
-12 -113 -13 -125 0 -4 4 -16 -1 -27 -10 -11 -10 -17 -12 -13 -5 5 8 0 12 -14
12 -12 0 -19 -4 -16 -9 3 -4 -6 -6 -19 -3 -15 2 -22 9 -18 16 5 8 3 8 -8 -1
-15 -12 -106 -12 -126 0 -6 4 -14 3 -18 -3 -3 -5 -18 -7 -32 -4 -17 5 -24 3
-19 -4 4 -7 -2 -8 -21 -3 -16 4 -53 7 -83 6 -30 -1 -60 2 -67 7 -7 5 -14 5
-18 -2 -3 -5 -18 -7 -32 -4 -17 5 -24 3 -19 -4 4 -7 -2 -8 -21 -3 -16 4 -53 7
-83 6 -30 -1 -60 2 -67 7 -7 5 -14 5 -18 -2 -3 -5 -18 -7 -32 -4 -17 5 -24 3
-19 -4 4 -7 -2 -8 -21 -3 -16 4 -53 7 -83 6 -30 -1 -60 2 -67 7 -7 5 -14 5
-18 -2 -3 -5 -18 -7 -32 -4 -17 5 -24 3 -19 -4 4 -7 -2 -8 -21 -3 -16 4 -53 7
-83 6 -30 -1 -60 2 -67 7 -7 5 -14 5 -18 -2 -3 -5 -18 -7 -32 -4 -17 5 -24 3
-19 -4 4 -7 -2 -8 -21 -3 -16 4 -53 7 -83 6 -30 -1 -60 2 -67 7 -7 5 -14 5
-18 -2 -3 -5 -18 -7 -32 -4 -17 5 -24 3 -19 -4 4 -7 -2 -8 -21 -3 -16 4 -53 7
-83 6 -30 -1 -60 2 -67 7 -7 5 -14 5 -18 -2 -3 -5 -18 -7 -32 -4 -17 5 -24 3
-19 -4 4 -7 -2 -8 -21 -3 -16 4 -53 7 -83 6 -30 -1 -60 2 -67 7 -7 5 -14 5
-18 -2 -3 -5 -18 -7 -32 -4 -17 5 -24 3 -19 -4 4 -7 -2 -8 -21 -3 -16 4 -53 7
-83 6 -30 -1 -60 2 -67 7 -7 5 -14 5 -18 -2 -3 -5 -18 -7 -32 -4 -17 5 -24 3
-19 -4 4 -7 -2 -8 -21 -3 -16 4 -53 7 -83 6 -30 -1 -60 2 -67 7 -7 5 -14 5
-18 -2 -3 -5 -18 -7 -32 -4 -17 5 -24 3 -19 -4 4 -7 -2 -8 -21 -3 -16 4 -53 7
-83 6 -30 -1 -60 2 -67 7 -7 5 -14 5 -18 -2 -3 -5 -18 -7 -32 -4 -17 5 -24 3
-19 -4 4 -7 -2 -8 -21 -3 -16 4 -53 7 -83 6 -30 -1 -60 2 -67 7 -7 5 -14 5
-18 -2 -3 -5 -18 -7 -32 -4 -17 5 -24 3 -19 -4 4 -7 -2 -8 -21 -3 -16 4 -53 7
-83 6 -30 -1 -60 2 -67 7 -7 5 -14 5 -18 -2 -3 -5 -18 -7 -32 -4 -17 5 -24 3
-19 -4 4 -7 -2 -8 -21 -3 -16 4 -53 7 -83 6 -30 -1 -60 2 -67 7 -7 5 -14 5
-18 -2z"/>
<path d="M636 807 c3 -10 9 -15 12 -12 3 3 0 11 -7 18 -10 9 -11 8 -5 -6z"/>
<path d="M6276 403 c-6 -14 -5 -15 5 -6 7 7 10 15 7 18 -3 3 -9 -2 -12 -12z"/>
<path d="M7556 403 c-6 -14 -5 -15 5 -6 7 7 10 15 7 18 -3 3 -9 -2 -12 -12z"/>
</g>
</svg>
