<?xml version="1.0" encoding="UTF-8"?>
<svg style="enable-background:new 0 0 240 234" version="1.1" viewBox="0 0 240 234" xml:space="preserve" xmlns="http://www.w3.org/2000/svg">
<title>Adobe Dreamweaver CC logo</title>
<style type="text/css">
	.st0{fill:#470137;}
	.st1{fill:#FF61F6;}
</style>
<g id="vlpa">
	<g id="vlpb">
		<g id="vlpc">
			<g id="vlpd">
				<path class="st0" d="M42.5,0h155C221,0,240,19,240,42.5v149c0,23.5-19,42.5-42.5,42.5h-155C19,234,0,215,0,191.5v-149      C0,19,19,0,42.5,0z"/>
			</g>
		</g>
	</g>
	<g id="vlpe">
		<g id="vlpf">
			<path class="st1" d="m22.8 164v-102c-0.1-0.6 0.4-1.2 1-1.3h0.1c1.5-0.1 3.8-0.2 6.7-0.2 3-0.1 6.4-0.1 10.4-0.2s8.2-0.1 12.7-0.1c12.2 0 22.4 2.2 30.4 6.6 7.7 4.1 14 10.4 18.1 18.1 4 7.7 6 16.5 6 26.5 0.1 7-0.9 13.9-3.1 20.5-1.9 5.6-4.8 10.8-8.6 15.4-3.5 4.2-7.7 7.8-12.3 10.7-4.5 2.8-9.5 4.9-14.7 6.3-5 1.3-10.2 2-15.4 2h-11.3c-4 0-7.8 0-11.2-0.1-3.5-0.1-6.1-0.1-7.8-0.2-0.7 0-1-0.6-1-1.6zm21.1-84.4v66.7c1.1 0 2.1 0 3.1 0.1 0.9 0.1 1.9 0.1 2.8 0.2 1 0.1 2.1 0.1 3.3 0.1 4.6 0.1 9.2-0.7 13.6-2.3 4-1.4 7.5-3.7 10.5-6.8 3-3.2 5.3-7 6.7-11.1 1.6-4.8 2.4-9.9 2.4-15 0.1-4.8-0.7-9.6-2.3-14.1-2.8-7.8-9.1-13.8-17.1-16.2-4.3-1.3-8.7-2-13.2-1.9-2 0-3.7 0-5.1 0.1-1.4 0-3 0.1-4.7 0.2z"/>
			<path class="st1" d="m198 165h-18.7c-0.4 0.1-0.9-0.1-1.2-0.4-0.3-0.4-0.5-0.8-0.6-1.2-1.9-8-3.5-15.2-4.8-21.3-1.3-6.2-2.4-11.4-3.2-15.7s-1.5-7.9-2.1-10.9c-0.5-3-1-5.5-1.3-7.6h-0.1c-1 4.4-1.9 8.7-2.8 12.8-0.8 4.1-1.8 8.3-2.8 12.5s-2.1 8.8-3.4 13.8c-1.2 5-2.6 10.5-4.1 16.4-0.2 1.1-0.7 1.6-1.6 1.6h-18.7c-0.5 0.1-1-0.1-1.4-0.3-0.3-0.3-0.5-0.7-0.7-1.1l-19.5-77.3c-0.3-0.9 0.1-1.3 1.2-1.3h18.9c0.9 0 1.4 0.3 1.5 1 2 8.8 3.7 16.4 5 22.8s2.4 11.8 3.1 16.3 1.4 8.2 1.9 11 0.9 5.2 1.2 7h0.3c0.2-1.6 0.4-3.1 0.7-4.7 0.4-1.9 0.9-4.4 1.5-7.5s1.3-6.7 2.2-10.9 1.9-9 3.1-14.6c1.1-5.5 2.7-11.8 4.6-18.9 0-0.4 0.2-0.9 0.4-1.3 0.1-0.2 0.5-0.3 1.1-0.3h19.6c0.6 0 0.9 0.4 1 1.1 1.7 7.3 3.1 13.7 4.3 19.2 1.1 5.5 2.1 10.4 3 14.7 0.8 4.2 1.5 7.9 1.9 10.9 0.4 3.1 0.9 5.6 1.3 7.7 0.3 1.7 0.6 3.4 0.7 5.1h0.3c0.5-2 0.9-4.4 1.3-7.1s0.9-5.7 1.6-9.1c0.6-3.4 1.3-7.1 2.1-11.2 0.7-4.1 1.7-8.6 2.8-13.7 1.1-5 2.3-10.5 3.7-16.4 0.2-0.9 0.6-1.3 1.3-1.3h17.5c0.9 0 1.2 0.5 1 1.4l-21.6 77.1c-0.1 0.4-0.3 0.8-0.6 1.1 0 0.5-0.4 0.7-0.9 0.6z"/>
		</g>
	</g>
</g>
</svg>
