<?xml version="1.0" encoding="utf-8"?>
<!-- Generator: Adobe Illustrator 21.0.0, SVG Export Plug-In . SVG Version: 6.00 Build 0)  -->
<svg version="1.1" id="Layer_1" xmlns="http://www.w3.org/2000/svg" xmlns:xlink="http://www.w3.org/1999/xlink" x="0px" y="0px"
	 viewBox="0 0 182 71.9" style="enable-background:new 0 0 182 71.9;" xml:space="preserve">
<style type="text/css">
	.st0{clip-path:url(#SVGID_2_);fill:#0094A1;}
	.st1{clip-path:url(#SVGID_2_);fill:#FFFFFF;}
</style>
<g>
	<defs>
		<rect id="SVGID_1_" y="0" width="182" height="71.9"/>
	</defs>
	<clipPath id="SVGID_2_">
		<use xlink:href="#SVGID_1_"  style="overflow:visible;"/>
	</clipPath>
	<path class="st0" d="M175,2.8c0-0.1,0-0.1,0-0.2c0-0.1-0.1-0.1-0.2-0.2c-0.1,0-0.2-0.1-0.2-0.1c-0.1,0-0.2,0-0.3,0H174v1h0.2
		c0.2,0,0.3,0,0.4,0c0.1,0,0.2-0.1,0.3-0.1c0.1,0,0.1-0.1,0.1-0.2C175,3,175,2.9,175,2.8 M176.6,5.4h-1.2l-1.1-1.3H174v1.3h-0.9V1.8
		h1.4c0.3,0,0.5,0,0.6,0c0.2,0,0.3,0.1,0.5,0.2c0.2,0.1,0.3,0.2,0.4,0.3c0.1,0.1,0.1,0.3,0.1,0.5c0,0.3-0.1,0.5-0.2,0.7
		c-0.1,0.2-0.3,0.3-0.6,0.4L176.6,5.4z M177.4,3.7c0-0.8-0.3-1.5-0.8-2c-0.6-0.6-1.2-0.9-2-0.9c-0.8,0-1.5,0.3-2,0.9
		c-0.6,0.6-0.8,1.2-0.8,2c0,0.8,0.3,1.5,0.8,2c0.6,0.6,1.2,0.9,2,0.9c0.8,0,1.5-0.3,2-0.9C177.1,5.1,177.4,4.5,177.4,3.7 M178.2,3.7
		c0,1-0.4,1.9-1.1,2.6c-0.7,0.7-1.6,1.1-2.6,1.1c-1,0-1.9-0.4-2.6-1.1c-0.7-0.7-1.1-1.6-1.1-2.6c0-1,0.4-1.9,1.1-2.6
		c0.7-0.7,1.6-1.1,2.6-1.1c1,0,1.9,0.4,2.6,1.1C177.9,1.8,178.2,2.7,178.2,3.7"/>
	<path class="st0" d="M25.1,3.7c-9,0-16.7,4.7-20.8,11.3C0.8,21.2,0,31.2,0,37.8c0,6.6,0.8,16.7,4.3,22.8c4,6.6,11.7,11.3,20.8,11.3
		h131.8c9,0,16.7-4.7,20.8-11.3c3.5-6.1,4.3-16.2,4.3-22.8c0-6.6-0.8-16.7-4.3-22.8c-4-6.6-11.7-11.3-20.8-11.3H25.1z"/>
	<path class="st1" d="M112.8,34.1h11.1v-0.3c0-5.1-2-5.4-5.7-5.4C113.7,28.3,112.9,29.7,112.8,34.1 M34.9,28.6
		c3.6,0,5.6,0.4,5.6,5.3v0.2H29.6C29.7,29.9,30.6,28.6,34.9,28.6 M19.5,38c0,11.9,3,16.2,15.6,16.2c4.7,0,8.5-0.4,11.3-1.9
		c2.6-1.5,4.2-4.1,4.2-8.8h-9.9c-0.1,3.4-2.4,3.8-5.6,3.8c-4.6,0-5.5-1.9-5.5-7.6v-0.2h21V38c0-13-3.5-16.3-15.5-16.3
		C22.3,21.7,19.5,25.7,19.5,38 M57.3,32.1c0,6.4,2.2,9.3,15.6,9.3c1.2,0,3.1-0.1,4.2,0.4c1,0.5,1.5,1.4,1.5,3c0,2.8-1,3.1-5.8,3.1
		c-2.6,0-5.3-0.1-5.5-3.6H57.3c0.1,7,3.4,9.3,9.6,9.8c1.9,0.1,3.9,0.1,6,0.1c8.5,0,15.6-1.4,15.6-10.6c0-8.8-4.6-9.4-15.6-9.7
		c-5.5-0.1-5.8-1.3-5.8-3.1c0-2.1,0.2-2.8,5.8-2.8c2,0,4.1,0.2,4.5,2.7h9.5v-1.3c0-7.6-8-7.7-14-7.7C63.8,21.7,57.3,21.9,57.3,32.1
		 M140.1,21.7h24.8V29h-7.4v24.9h-10.1V29h-7.4V21.7z M102.9,37.8c0-12.3,2.7-16.2,15.5-16.2c11.9,0,15.4,3.2,15.4,16.2v1.4h-21v0.3
		c0,5.7,0.9,7.7,5.6,7.7c3.1,0,5.5-0.3,5.7-3.8h9.7c-0.1,4.5-1.6,7.1-4.2,8.6c-2.7,1.5-6.5,1.9-11.2,1.9
		C105.9,53.9,102.9,49.7,102.9,37.8 M12.2,59.9C7.1,54.4,6,45.9,6,37.8c0-8.1,1.1-16.6,6.2-22.1c3.2-3.4,9.4-6,14.6-6h67.9v56.2
		H26.8C21.5,65.9,15.4,63.3,12.2,59.9"/>
</g>
</svg>
