<?xml version="1.0" encoding="UTF-8"?><svg id="a" xmlns="http://www.w3.org/2000/svg" viewBox="0 0 128.4 53.72"><path d="M6.9,32.18c.43,.24,3.11,3.47,4.97,4.95,.33,.27,1.44,1.24,1.38,1.56-.18-1.08-1.07-2.07-1.22-3.91l-.04-5.22,11.07,.08v4.76c1.26-.46,12.75-7.53,14.18-8.39-.85-.7-2.39-1.53-3.34-2.13l-10.84-6.67v5.19l-11.06-.05,.02-9.84c1.38-.19,16.73-.06,19.52-.06,4.24,0,3.9,.92,5.42,1.13h.17c-.46-.8-.58-.49-1.13-1.27-.41-.58-.73-.76-1.19-1.24-1.13-1.2-2.13-1.86-2.35-2.71-.73-.77-3.18-2.42-4.73-2.8-1.64-.39-20.44-.24-22.48-.16V26.93c-.01,1.36,.36,4.49,1.65,5.25h0Z" style="fill:#fefefe; fill-rule:evenodd;"/><path d="M6.9,32.18c-1.29-.76-1.66-3.89-1.66-5.25V5.38c2.05-.08,20.85-.23,22.49,.16,1.55,.37,4,2.03,4.73,2.8-.31-.55-4.11-4.74-4.7-5.29C25.83,1.28,24.3,.07,20.51,0H.05C-.02,6.47,0,12.94,0,19.41,0,24.7,.22,26.34,4.01,30.14c3.75,3.76,2.63,2.45,2.89,2.04h0Z" style="fill:#004266; fill-rule:evenodd;"/><path d="M12.13,22.32l11.05-.03v-5.11c.89,.3,13.06,8.06,14.19,8.77-1.41,1.08-11.99,7.18-14.19,8.44v-4.83l-11.07,.05c.12,3.99-.47,5.87,1.37,9.01,1.24,2.12,3.37,3.91,6.62,4,6.19,.18,14.63,0,21.05-.03v-14.79c0-5.13,.75-9.46-2.33-12.6-3.52-3.59-6.63-2.77-11.9-2.77l-14.81,.06v9.83h0Z" style="fill:#3ab6f2; fill-rule:evenodd;"/><g><path d="M69,28.91h-10.19v13.32h-3.79V12.07h15.7v3.25h-11.91v10.33h10.19v3.25Z" style="fill:#fff;"/><path d="M75.4,42.23V12.07h7.19c3.52,0,6.25,1.1,8.2,3.3s2.92,5.3,2.92,9.29v5.05c0,3.99-.99,7.07-2.96,9.25-1.97,2.17-4.84,3.26-8.59,3.26h-6.75Zm3.79-26.9v23.65h3.04c2.66,0,4.61-.76,5.84-2.29s1.86-3.79,1.88-6.79v-5.35c0-3.18-.61-5.51-1.83-7-1.22-1.49-3.07-2.23-5.54-2.23h-3.4Z" style="fill:#fff;"/><path d="M104.5,12.07l7.87,24.6,7.87-24.6h4.89v30.15h-3.79v-11.74l.35-11.76-7.89,23.51h-2.9l-7.85-23.42,.35,11.68v11.74h-3.79V12.07h4.89Z" style="fill:#fff;"/></g></svg>