<svg viewBox="0 0 512 512" xmlns="http://www.w3.org/2000/svg"><g transform="translate(0 -540.36)"><path d="m471.95 793.41c0 120.9-98.01 218.9-218.9 218.9-120.9 0-218.9-98.01-218.9-218.9 0-120.9 98.01-218.9 218.9-218.9 120.9 0 218.9 98.01 218.9 218.9" fill="#f6a254" fill-rule="evenodd"/><path d="m86.41 165.75v94.97h1v1h1v1h1v1h.969v.969h1v1h1v1h1v1h1v1h1v1h.969v.969h1v1h1v1h1v1h1v1h1v1h.969v.969h1v1h1v1h1v1h1v1h1v1h.969v.969h1v1h1v1h1v1h1v.625c-.794-.451-1.588-.886-2.375-1.344-.696-.408-1.371-.592-1.969-.625-2.588-.145-3.95 2.791-1.438 5.063.165.149.335.289.5.438.146.177.311.36.5.531-.013-.001-.013.02 0 .031.247.223.502.434.75.656.086.09.152.193.25.281-.026-.001-.025.04 0 .063.291.263.583.52.875.781.043.042.079.084.125.125-.039-.002-.037.06 0 .094.331.299.668.578 1 .875-.052-.003-.081.049-.031.094.327.296.671.581 1 .875-.04.019-.05.08 0 .125.327.296.671.581 1 .875-.041.026-.056.074 0 .125.323.291.644.585.969.875-.012.035-.013.085.031.125.312.282.624.564.938.844-.014.04.013.111.063.156.313.283.623.563.938.844-.016.045.006.105.063.156.308.278.628.536.938.813-.017.05-.031.1.031.156.306.276.63.538.938.813-.019.055-.006.125.063.188.311.281.625.565.938.844-.006.054 0 .1.063.156.301.272.603.542.906.813-.007.059.026.126.094.188.303.273.602.541.906.813-.001.059.028.128.094.188.301.272.604.542.906.813.008.054.035.135.094.188.291.263.582.52.875.781-.001.067.019.12.094.188.301.272.604.543.906.813.004.067.019.12.094.188.301.272.604.543.906.813.011.063.026.126.094.188.289.261.584.522.875.781.004.075.042.144.125.219.291.263.583.52.875.781.013.07.05.151.125.219.291.262.583.52.875.781.015.071.048.15.125.219.281.254.561.498.844.75.015.075.076.146.156.219.279.252.563.499.844.75.009.088.029.163.125.25.289.261.585.522.875.781.022.071.05.151.125.219.279.252.563.5.844.75.018.083.067.169.156.25.28.253.562.499.844.75.019.087.063.166.156.25.279.252.564.5.844.75.025.08.072.174.156.25.269.243.542.477.813.719.021.092.089.192.188.281.27.244.541.476.813.719.027.085.066.168.156.25.267.241.544.479.813.719.023.098.082.186.188.281.267.241.544.479.813.719.029.091.091.194.188.281.268.242.543.478.813.719.03.094.087.191.188.281.259.234.521.455.781.688.03.097.116.219.219.313.259.233.521.455.781.688.031.1.112.216.219.313.258.233.522.456.781.688.032.103.078.182.188.281.257.232.523.457.781.688.033.106.106.211.219.313.257.232.523.457.781.688.034.109.103.208.219.313.269.243.542.478.813.719.04.093.09.193.188.281.247.223.502.435.75.656.036.115.128.234.25.344.258.233.522.456.781.688.042.099.115.218.219.313.259.234.521.455.781.688.043.1.082.186.188.281.257.232.523.457.781.688.044.104.109.214.219.313.256.231.524.458.781.688.045.106.107.211.219.313.257.232.523.457.781.688.046.109.104.209.219.313.247.223.502.434.75.656.047.114.13.235.25.344.252.228.496.461.75.688.049.105.14.213.25.313.258.233.522.456.781.688.051.099.115.219.219.313.248.224.501.434.75.656.051.111.102.207.219.313.256.231.524.458.781.688.053.103.111.215.219.313.246.223.502.435.75.656.054.115.129.234.25.344.246.222.503.435.75.656.055.118.126.232.25.344.247.223.501.434.75.656.056.109.135.24.25.344.236.213.481.413.719.625.057.122.153.259.281.375.243.219.475.438.719.656.058.112.132.206.25.313.245.222.503.436.75.656.059.123.121.227.25.344.24.216.478.441.719.656.06.116.159.233.281.344.241.217.477.44.719.656.061.119.157.231.281.344.248.224.501.434.75.656.062.114.13.236.25.344.23.207.457.419.688.625.064.123.183.258.313.375.231.208.455.418.688.625.065.125.15.225.281.344.246.222.503.436.75.656.065.12.124.23.25.344.246.222.503.436.75.656.066.114.13.236.25.344.235.212.483.415.719.625.068.123.151.258.281.375.236.213.482.413.719.625.069.125.149.256.281.375.23.208.456.419.688.625.07.127.178.254.313.375.226.204.46.391.688.594.071.129.145.252.281.375.234.211.484.415.719.625.072.129.146.253.281.375.228.206.458.421.688.625.073.133.172.248.313.375.24.217.477.441.719.656.071.116.159.233.281.344.225.204.461.392.688.594.075.133.172.28.313.406.224.202.462.393.688.594.076.135.17.278.313.406.225.203.461.392.688.594.077.135.171.278.313.406.216.195.44.369.656.563.078.139.166.274.313.406.225.203.461.392.688.594.079.138.167.275.313.406.223.201.463.394.688.594.08.14.165.273.313.406.229.207.457.419.688.625.078.125.181.256.313.375.215.194.44.37.656.563.082.144.192.3.344.438.22.199.435.397.656.594.082.137.199.276.344.406.22.198.435.397.656.594.081.13.176.251.313.375.224.202.463.393.688.594.084.14.165.273.313.406.218.197.437.399.656.594.085.141.195.272.344.406.214.193.441.371.656.563.087.15.186.295.344.438.219.198.436.398.656.594.085.135.201.277.344.406.208.188.416.376.625.563.088.146.221.298.375.438.204.184.42.348.625.531.09.156.18.289.344.438.224.202.462.393.688.594.087.136.169.277.313.406.222.201.464.395.688.594.088.137.167.275.313.406.207.187.417.377.625.563.092.151.216.294.375.438.214.194.441.37.656.563.09.141.195.303.344.438.219.198.436.397.656.594.089.133.203.279.344.406.197.178.395.354.594.531.095.156.242.32.406.469.199.179.394.353.594.531.096.156.21.288.375.438.208.188.416.376.625.563.095.15.216.294.375.438.213.193.442.371.656.563.095.148.188.297.344.438.196.177.396.355.594.531.099.162.236.315.406.469.198.179.395.354.594.531.098.155.242.321.406.469.209.188.415.376.625.563.096.144.223.3.375.438.188.17.373.331.563.5.102.167.231.31.406.469.195.177.397.356.594.531.101.159.238.317.406.469.201.182.423.351.625.531.101.157.21.319.375.469.203.183.421.35.625.531.102.158.209.318.375.469.187.169.374.332.563.5.106.172.257.336.438.5.196.177.396.355.594.531.102.152.245.323.406.469.198.179.394.354.594.531.103.154.212.291.375.438.185.167.376.334.563.5.109.177.251.332.438.5.196.177.397.356.594.531.105.157.241.319.406.469.19.172.402.329.594.5.108.167.23.341.406.5.192.173.4.328.594.5.109.168.229.34.406.5.186.168.375.333.563.5.107.161.267.346.438.5.188.17.374.332.563.5.108.163.234.313.406.469.197.178.396.355.594.531.109.164.233.312.406.469.186.168.375.333.563.5.114.178.249.33.438.5.181.163.38.307.563.469.114.176.252.364.438.531.182.164.38.306.563.469.115.177.25.362.438.531.181.164.38.306.563.469.116.178.249.361.438.531.17.154.36.285.531.438.117.18.278.39.469.563.172.155.358.284.531.438.118.182.246.358.438.531.181.163.381.307.563.469.119.183.244.357.438.531.196.177.396.356.594.531.112.158.239.317.406.469.175.158.355.312.531.469.118.178.281.362.469.531.175.158.355.312.531.469.119.179.28.36.469.531.17.153.36.285.531.438.123.189.27.382.469.563.166.15.333.289.5.438.121.182.277.358.469.531.169.153.361.286.531.438.125.192.266.379.469.563.169.153.361.286.531.438.126.193.265.378.469.563.197.178.395.355.594.531.114.157.239.318.406.469.164.148.335.291.5.438.125.188.302.383.5.563.166.15.333.289.5.438.126.189.3.382.5.563.187.169.374.333.563.5.117.161.236.314.406.469.163.147.336.292.5.438.128.192.297.379.5.563.164.148.335.291.5.438.129.194.295.377.5.563.164.148.335.291.5.438.13.195.294.376.5.563.181.164.38.307.563.469.124.174.253.365.438.531.154.139.313.268.469.406.132.198.322.404.531.594.154.139.313.268.469.406.133.2.32.403.531.594.171.154.359.285.531.438.126.178.249.361.438.531.153.138.315.27.469.406.135.203.317.4.531.594.153.138.314.269.469.406.136.204.316.399.531.594.164.148.335.291.5.438.131.187.302.384.5.563.171.154.359.285.531.438.13.183.275.387.469.563.143.129.294.247.438.375.139.209.342.426.563.625.155.14.313.268.469.406.136.198.29.373.5.563.175.158.355.313.531.469.131.181.277.358.469.531.17.153.36.286.531.438.134.188.269.382.469.563.143.129.293.247.438.375.143.215.336.42.563.625.164.149.334.291.5.438.134.187.302.384.5.563.175.158.354.313.531.469.13.174.284.364.469.531.138.125.267.251.406.375.144.212.338.391.563.594.142.128.294.248.438.375.147.22.33.415.563.625.163.147.335.292.5.438.138.192.297.379.5.563.164.148.334.291.5.438.139.193.295.377.5.563.142.128.294.248.438.375.146.212.338.422.563.625.154.139.313.269.469.406.141.196.324.406.531.594.155.14.312.268.469.406.142.197.291.374.5.563.135.122.27.254.406.375.151.223.358.412.594.625.175.158.354.313.531.469.134.178.28.361.469.531.164.148.334.292.5.438.139.189.3.381.5.563.158.143.34.266.5.406.143.197.291.405.5.594.133.12.272.225.406.344.153.223.358.443.594.656.155.14.312.269.469.406.144.196.323.405.531.594.143.13.292.247.438.375.148.206.313.396.531.594.136.123.269.254.406.375.154.221.36.414.594.625.152.137.315.271.469.406.147.2.319.402.531.594.142.128.294.249.438.375.152.213.337.421.563.625.166.15.332.291.5.438.142.188.3.382.5.563.143.129.292.248.438.375.149.204.346.43.563.625.143.129.293.248.438.375.15.205.314.397.531.594.151.137.315.272.469.406.151.206.312.396.531.594.125.113.248.232.375.344.161.232.38.435.625.656.144.13.292.248.438.375.153.209.341.425.563.625.143.129.292.248.438.375.154.21.34.424.563.625.143.129.293.249.438.375.155.211.339.423.563.625.15.135.285.274.438.406.15.199.32.372.531.563.141.128.294.25.438.375.156.214.336.42.563.625.141.127.294.251.438.375.157.215.335.419.563.625.165.149.332.293.5.438.146.188.3.382.5.563.142.128.293.25.438.375.156.21.34.424.563.625.152.138.313.272.469.406.15.196.323.405.531.594.135.122.268.225.406.344.161.22.361.446.594.656.122.11.251.205.375.313.163.225.355.441.594.656.125.113.279.202.406.313.167.233.347.465.594.688 104.51-16.08 184.62-106.09 185.31-214.94-.032-.03-.061-.064-.094-.094-.317-.346-.633-.653-.969-.969-.316-.344-.666-.686-1-1-.318-.346-.664-.684-1-1-.32-.348-.661-.682-1-1-.322-.351-.659-.68-1-1-.324-.353-.657-.677-1-1-.316-.344-.635-.653-.969-.969-.318-.346-.664-.683-1-1-.317-.345-.665-.684-1-1-.319-.347-.663-.681-1-1-.321-.349-.661-.679-1-1-.323-.352-.659-.677-1-1-.325-.354-.657-.675-1-1-.317-.345-.635-.651-.969-.969-.317-.345-.666-.682-1-1-.318-.346-.665-.681-1-1-.32-.348-.663-.679-1-1-.322-.35-.661-.677-1-1-.324-.353-.659-.675-1-1-.315-.344-.637-.652-.969-.969-.317-.346-.666-.681-1-1-.317-.345-.667-.681-1-1-.319-.347-.665-.679-1-1-.321-.349-.663-.677-1-1-.323-.351-.661-.675-1-1-.314-.342-.639-.652-.969-.969-.316-.344-.668-.681-1-1-.317-.345-.667-.68-1-1-.318-.346-.666-.679-1-1-.32-.348-.664-.677-1-1-.322-.35-.662-.675-1-1-.318-.346-.635-.679-.969-1-.315-.343-.67-.65-1-.969-.317-.345-.668-.68-1-1-.318-.346-.667-.678-1-1-.319-.347-.666-.677-1-1-.321-.349-.664-.676-1-1-.322-.351-.662-.674-1-1-.314-.342-.64-.65-.969-.969-.315-.344-.67-.68-1-1-.317-.345-.668-.679-1-1-.318-.347-.667-.677-1-1-.32-.348-.665-.676-1-1-.321-.35-.664-.674-1-1-.313-.341-.642-.651-.969-.969-.314-.343-.671-.68-1-1-.316-.344-.67-.678-1-1-.318-.346-.668-.677-1-1-.319-.348-.666-.675-1-1-.32-.349-.665-.674-1-1-.465-.507-.942-.979-1.438-1.438-.173-.179-.355-.359-.531-.531-.315-.343-.671-.679-1-1-.317-.345-.67-.677-1-1-5.01-5.453-11.733-8.156-20.16-8.156-6.342 0-11.772 1.542-16.281 4.656v-.563h-1v-1h-1v-1h-.969v-.969h-1v-1h-1v-1h-1v-1h-1v-1h-1v-1h-1v-1h-.969v-.969h-1v-1h-1v-1h-1v-1h-1v-1h-1v-1h-.969v-.969h-1v-1h-1v-1h-1v-1h-1v-1h-1v-1h-.969v-.969h-1v-1h-1v-1h-1v-1h-1v-1h-1v-1h-.969v-.969h-1v-1.001h-1v-1h-1v-1h-10.969v21.875h-.406v-.969h-1v-1h-1v-1h-1v-1h-1v-1h-1v-1h-.969v-.969h-1v-1h-1v-1h-1v-1h-1v-1h-1v-1h-.969v-.969h-1v-1h-1v-1h-1v-1h-1v-1h-1v-1h-.969v-.969h-1v-1.001h-1v-1h-1v-1h-10.969v26.75c0 .855.078 2.518.281 5 .203 2.442.378 4.061.5 4.875h-.375c-.005-.005-.026.005-.031 0-.41-.456-.845-.897-1.281-1.313-.324-.348-.661-.676-1-1-4.697-5.04-11.01-7.562-18.875-7.563-8.749 0-15.533 3.074-20.375 9.219-3.97 5.081-6.285 11.796-6.969 20.16-.082-.075-.166-.146-.25-.219-.072-.108-.161-.223-.25-.313-.221-.221-.452-.418-.688-.625-.082-.14-.172-.266-.281-.375-.228-.228-.507-.412-.75-.625-.078-.133-.146-.24-.25-.344-.269-.269-.553-.533-.844-.781-.053-.074-.094-.156-.156-.219-.24-.24-.493-.464-.75-.688-.071-.121-.156-.218-.25-.313-.241-.241-.491-.462-.75-.688-.067-.114-.161-.223-.25-.313-.284-.284-.568-.551-.875-.813-.042-.058-.075-.138-.125-.188-.254-.254-.508-.482-.781-.719-.06-.101-.139-.202-.219-.281-.255-.255-.507-.481-.781-.719-.056-.095-.113-.176-.188-.25-.261-.261-.532-.539-.813-.781-.052-.089-.118-.149-.188-.219-.268-.268-.555-.533-.844-.781-.048-.082-.092-.154-.156-.219-.27-.27-.554-.531-.844-.781-.045-.076-.097-.159-.156-.219-.276-.276-.547-.557-.844-.813-.041-.07-.102-.133-.156-.188-.277-.277-.545-.556-.844-.813-.037-.063-.107-.138-.156-.188-.284-.284-.568-.55-.875-.813-.032-.052-.052-.115-.094-.156-.286-.286-.598-.58-.906-.844-.032-.059-.049-.111-.094-.156-.287-.287-.596-.578-.906-.844-.03-.058-.051-.113-.094-.156-.277-.277-.576-.524-.875-.781-.03-.093-.065-.159-.125-.219-.284-.284-.569-.55-.875-.813-.025-.077-.075-.138-.125-.188-.293-.293-.589-.573-.906-.844-.02-.062-.054-.117-.094-.156-.29-.29-.593-.544-.906-.813-.013-.074-.052-.115-.094-.156-.302-.302-.611-.597-.938-.875-.009-.044-.005-.099-.031-.125-.308-.308-.635-.622-.969-.906 0-.042-.011-.074-.031-.094-.165-.165-.358-.31-.531-.469-.159-.174-.302-.365-.469-.531-3.988-3.988-10.09-5.969-18.313-5.969-4.517 0-8.631.888-12.375 2.719-2.269 1.085-4.244 2.448-5.906 4.094l-.063-.406c0-.002-.063-.219-.063-.219h-.813l-.156-.813c0-.001-.031-.188-.031-.188h-.813l-.156-.844-.031-.125h-.813l-.156-.906v-.094h-.813l-.188-.969v-.031h-.78l-.188-1h-7.75c-.055-.037-.1-.09-.156-.125-.027-.181-.107-.343-.219-.438-.25-.218-.51-.393-.781-.563-.024-.181-.108-.344-.219-.438-.251-.219-.509-.392-.781-.563-.021-.182-.078-.314-.188-.406-.26-.227-.561-.419-.844-.594-.02-.172-.053-.319-.156-.406-.262-.228-.56-.418-.844-.594-.016-.179-.052-.318-.156-.406-.257-.224-.534-.42-.813-.594-.011-.184-.083-.318-.188-.406-.258-.225-.533-.419-.813-.594-.01-.174-.089-.323-.188-.406-.271-.236-.549-.444-.844-.625-.011-.159-.065-.298-.156-.375-.268-.233-.553-.414-.844-.594 0-.182-.028-.293-.125-.375-.269-.235-.583-.444-.875-.625 0-.17-.034-.298-.125-.375-.275-.24-.576-.472-.875-.656 0-.158-.041-.273-.125-.344-.236-.206-.496-.398-.75-.563-.042-.039-.081-.088-.125-.125 0-.146-.047-.247-.125-.313-.251-.218-.511-.421-.781-.594-.034-.031-.058-.064-.094-.094 0-.134-.054-.252-.125-.313-.226-.197-.446-.371-.688-.531-.07-.068-.144-.125-.219-.188 0-.121-.029-.227-.094-.281-.205-.179-.406-.32-.625-.469-.092-.093-.181-.197-.281-.281 0-.109-.004-.17-.063-.219-.157-.137-.335-.256-.5-.375-.136-.152-.281-.306-.438-.438 0-.097-.011-.144-.063-.188-.158-.138-.334-.255-.5-.375-.137-.153-.28-.305-.438-.438 0-.085-.017-.149-.063-.188-.163-.142-.329-.283-.5-.406-.138-.154-.28-.304-.438-.438 0-.073-.024-.123-.063-.156-.153-.133-.309-.258-.469-.375-.151-.174-.293-.351-.469-.5 0-.061-.03-.098-.063-.125-.154-.134-.308-.258-.469-.375-.152-.175-.292-.351-.469-.5 0-.049-.037-.103-.063-.125-.126-.109-.245-.214-.375-.313-.176-.215-.382-.415-.594-.594 0-.036.02-.046 0-.063-.107-.093-.233-.196-.344-.281-.196-.251-.415-.484-.656-.688 0-.024.013-.02 0-.031-.108-.094-.233-.195-.344-.281-.196-.252-.413-.482-.656-.688 0-.012.007-.026 0-.031-.078-.068-.17-.123-.25-.188-.221-.305-.465-.572-.75-.813-1.262-1.099-2.76-1.656-4.469-1.656-1.831 0-3.364.558-4.625 1.656-1.221 1.099-1.844 2.871-1.844 5.313 0 2.401.623 4.142 1.844 5.281.158.142.334.281.5.406.153.193.321.395.5.563 0 .012-.006.026 0 .031.157.142.303.282.469.406.152.192.322.365.5.531 0 .024.019.051.031.063.156.141.304.251.469.375.151.19.324.367.5.531 0 .036.013.077.031.094.166.15.324.276.5.406.139.171.277.319.438.469 0 .048.007.071.031.094.155.14.337.284.5.406.138.17.309.32.469.469 0 .06.001.097.031.125.211.19.43.373.656.531.095.106.177.215.281.313 0 .072.026.122.063.156.21.19.431.343.656.5.095.106.178.216.281.313 0 .084.02.148.063.188.202.183.408.347.625.5.09.099.184.19.281.281 0 .096.045.173.094.219.244.221.484.417.75.594.051.053.102.106.156.156 0 .107.039.199.094.25.237.214.462.39.719.563.051.053.103.106.156.156 0 .119.033.193.094.25.253.229.536.444.813.625.031.031.062.064.094.094 0 .131.027.219.094.281.287.259.589.49.906.688 0 .143.021.244.094.313.279.252.568.494.875.688.006.136.052.245.125.313.278.251.569.464.875.656.006.15.046.27.125.344.275.249.54.465.844.656.011.142.078.271.156.344.275.248.541.466.844.656.015.14.046.239.125.313.268.242.58.469.875.656.016.147.042.266.125.344.26.235.559.442.844.625.015.163.065.29.156.375.269.243.547.469.844.656.023.14.073.266.156.344.264.238.554.441.844.625.023.154.065.29.156.375.256.231.532.414.813.594.024.163.092.317.188.406.264.239.521.441.813.625.029.149.065.258.156.344.259.234.559.444.844.625.031.155.061.286.156.375.251.227.537.448.813.625.033.157.09.284.188.375.26.235.526.444.813.625.036.15.092.286.188.375.247.223.51.42.781.594.036.166.115.31.219.406.253.229.534.417.813.594.039.156.087.312.188.406.244.22.483.391.75.563.039.174.14.335.25.438.249.225.508.389.781.563.043.165.081.307.188.406.242.219.516.423.781.594.044.17.109.304.219.406.246.222.51.422.781.594.047.16.112.307.219.406.13.118.269.209.406.313v3.563h-.344v-.969h-1v-1h-1v-1h-1v-1h-1v-1h-1v-1h-.969v-.969h-1v-1h-1v-1h-1v-1h-1v-1h-1v-1h-.969v-.969h-1v-1h-1v-1h-1v-1h-1v-1h-1v-1h-.969v-.969h-1v-1h-1v-1h-1v-1h-10.969v13.938h-1.813c.063-.067.938-1 .938-1h-1.938c.063-.067.938-1 .938-1h-1.938c.063-.067.938-1 .938-1h-1.938c.063-.067.938-1 .938-1h-1.875c.059-.063.906-.969.906-.969h-1.938c.063-.067.938-1 .938-1h-1.938c.063-.067.938-1 .938-1h-1.938c.063-.067.938-1 .938-1h-1.938c.063-.067.938-1 .938-1h-1.938c.063-.067.938-1 .938-1h-1.875c.059-.063.906-.969.906-.969h-1.938c.063-.067.938-1 .938-1h-1.938l.938-1h-1.938l.938-1h-12.813l-.844.875h-.719v-.969h-1v-1h-1v-1h-1v-1h-1v-1h-1v-1h-1v-1h-.969v-.969h-1v-1h-1v-1h-1v-1h-1v-1h-1v-1h-.969v-.969h-1v-1h-1v-1h-1v-1h-1v-1h-1v-1h-.969v-.969h-1v-1h-1v-1h-1v-1h-1v-1h-1v-1h-.969v-.969h-1v-1h-1v-1h-1v-1h-10.864m66.906 42.03v.875h-.813c.055-.058.805-.867.813-.875m-40.41 78.81h.375v.219c-.127-.071-.248-.147-.375-.219" fill-opacity=".235" transform="translate(0 540.36)"/><g fill-rule="evenodd"><path d="m256 541.36c-140.83 0-255 114.17-255 255s114.17 255 255 255 255-114.17 255-255-114.17-255-255-255m8.827 44.931c120.9 0 218.9 98 218.9 218.9s-98 218.9-218.9 218.9-218.93-98-218.93-218.9 98.03-218.9 218.93-218.9" fill-opacity=".067"/><g fill-opacity=".129"><path d="m256 544.79c-138.94 0-251.57 112.63-251.57 251.57s112.63 251.54 251.57 251.54 251.57-112.6 251.57-251.54-112.63-251.57-251.57-251.57m5.885 38.556c120.9 0 218.9 98 218.9 218.9s-98 218.9-218.9 218.9-218.93-98-218.93-218.9 98.03-218.9 218.93-218.9"/><path d="m256 548.72c-136.77 0-247.64 110.87-247.64 247.64s110.87 247.64 247.64 247.64 247.64-110.87 247.64-247.64-110.87-247.64-247.64-247.64m2.942 31.691c120.9 0 218.9 98 218.9 218.9s-98 218.9-218.9 218.9-218.93-98-218.93-218.9 98.03-218.9 218.93-218.9"/></g><path d="m253.04 548.22c-135.42 0-245.19 109.78-245.19 245.19 0 135.42 109.78 245.19 245.19 245.19 135.42 0 245.19-109.78 245.19-245.19 0-135.42-109.78-245.19-245.19-245.19zm0 26.297c120.9 0 218.9 98 218.9 218.9s-98 218.9-218.9 218.9-218.93-98-218.93-218.9 98.03-218.9 218.93-218.9z" fill="#fff" stroke="#000" stroke-opacity=".31" stroke-width="4.904"/></g><text x="729.64001" y="771.71997"><tspan x="729.64001" y="771.71997"/></text><text transform="scale(4.0128 .2492)" x="378.91" y="2747.6399"/><text x="1310.91" y="691.71997"><tspan x="1310.91" y="691.71997"/></text><text transform="scale(4.0128 .2492)" x="523.76001" y="2426.6001"/><text x="239.33" y="510.45999"><tspan x="239.33" y="510.45999"/></text><text transform="scale(4.0128 .2492)" x="256.72" y="1699.25"/><text x="1337.38" y="293.98999"><tspan x="1337.38" y="293.98999"/></text><text transform="scale(4.0128 .2492)" x="530.35999" y="830.57001"/><text x="1918.65" y="213.99001"><tspan x="1918.65" y="213.99001"/></text><text transform="scale(4.0128 .2492)" x="675.21002" y="509.54001"/><text x="1529.53" y="-258.41"><tspan x="1529.53" y="-258.41"/></text><text transform="scale(4.0128 .2492)" x="578.23999" y="-1386.12"/><text x="2110.79" y="-338.42001"><tspan x="2110.79" y="-338.42001"/></text><text transform="scale(4.0128 .2492)" x="723.09003" y="-1707.16"/><text x="277.98999" y="1076.3"><tspan x="277.98999" y="1076.3"/></text><g fill="#fff" transform="matrix(.94379 0 0 .94379 14.39 42.34)"><text font-family="Sans" font-size="132.46" letter-spacing="0" word-spacing="0" x="65.050003" y="803.94"><tspan x="65.050003" y="803.94">kindle</tspan></text><g fill-rule="evenodd" transform="translate(-802.9 454.57)"><path d="m1188 400.42c-34.999 25.797-85.73 39.561-129.41 39.561-61.24 0-116.38-22.651-158.09-60.32-3.277-2.963-.341-7 3.592-4.693 45.01 26.19 100.67 41.947 158.17 41.947 38.775 0 81.43-8.02 120.65-24.67 5.925-2.517 10.88 3.88 5.086 8.18"/><path d="m1202.6 383.77c-4.457-5.715-29.573-2.7-40.846-1.363-3.434.419-3.959-2.569-.865-4.719 20-14.08 52.827-10.01 56.655-5.296 3.828 4.745-.996 37.647-19.794 53.35-2.884 2.412-5.637 1.127-4.352-2.071 4.221-10.539 13.685-34.16 9.202-39.902"/></g></g></g></svg>