<svg height="96" width="96" xmlns="http://www.w3.org/2000/svg" xmlns:xlink="http://www.w3.org/1999/xlink"><linearGradient id="a"><stop offset="0"/><stop offset="1" stop-opacity="0"/></linearGradient><linearGradient id="b"><stop offset="0" stop-color="#fff"/><stop offset="1" stop-color="#fff" stop-opacity="0"/></linearGradient><linearGradient id="c" gradientUnits="userSpaceOnUse" x1="148" x2="148" y1="90" y2="5.987717"><stop offset="0" stop-color="#2276c5"/><stop offset="1" stop-color="#68baf4"/></linearGradient><radialGradient id="d" cx="47.999981" cy="47.999424" gradientTransform="matrix(1.3452582 -.00000004 .00000003 1.1448837 -16.572388 -6.954329)" gradientUnits="userSpaceOnUse" r="34.937546" xlink:href="#a"/><linearGradient id="e"><stop offset="0" stop-color="#666"/><stop offset="1" stop-color="#333"/></linearGradient><linearGradient id="f" gradientTransform="matrix(4.4806049 0 0 4.4787412 -651.59679 -4376.6526)" gradientUnits="userSpaceOnUse" x1="121.30617" x2="121.30617" xlink:href="#e" y1="976.37823" y2="992.4245"/><linearGradient id="g" gradientUnits="userSpaceOnUse" x1="48" x2="48" y1="74" y2="16"><stop offset="0" stop-color="#dfdfdf"/><stop offset="1" stop-color="#fefefe"/></linearGradient><linearGradient id="h" gradientUnits="userSpaceOnUse" x1="32" x2="32" y1="81" y2="8"><stop offset="0" stop-color="#b3b3b3"/><stop offset="1" stop-color="#e6e6e6"/></linearGradient><linearGradient id="i"><stop offset="0" stop-opacity=".588235"/><stop offset=".11780351" stop-opacity=".470588"/><stop offset=".23809524" stop-opacity=".392157"/><stop offset="1" stop-opacity=".313726"/></linearGradient><linearGradient id="j" gradientUnits="userSpaceOnUse" spreadMethod="reflect" x1="90" x2="48" xlink:href="#i" y1="88" y2="88"/><linearGradient id="k" gradientUnits="userSpaceOnUse" x1="39" x2="39" xlink:href="#A" y1="10" y2="94"/><linearGradient id="l" gradientUnits="userSpaceOnUse" x1="90" x2="79" xlink:href="#i" y1="32" y2="32"/><linearGradient id="m" gradientUnits="userSpaceOnUse" x1="24" x2="24" xlink:href="#b" y1="8" y2="136"/><linearGradient id="n" gradientTransform="matrix(1.0058652 0 0 .994169 100 0)" gradientUnits="userSpaceOnUse" x1="45.447727" x2="45.447727" y1="92.539597" y2="7.01654"><stop offset="0"/><stop offset="1" stop-opacity=".588235"/></linearGradient><linearGradient id="o" gradientTransform="translate(100 -1)" gradientUnits="userSpaceOnUse" x1="49" x2="49" xlink:href="#n" y1="91" y2="7"/><linearGradient id="p" gradientUnits="userSpaceOnUse" x1="78.523811" x2="78.523811" xlink:href="#b" y1="8" y2="128"/><linearGradient id="q" gradientTransform="translate(0 5)" gradientUnits="userSpaceOnUse" x1="56" x2="56" xlink:href="#n" y1="86" y2="2"/><linearGradient id="r" gradientTransform="matrix(1.0237656 0 0 1.0119048 -1.142594 4.976191)" gradientUnits="userSpaceOnUse" x1="56" x2="56" xlink:href="#n" y1="86" y2="2"/><linearGradient id="s" gradientTransform="matrix(.5 0 0 .64285715 -192 -63.072843)" gradientUnits="userSpaceOnUse" x1="516.04974" x2="495.66605" xlink:href="#t" y1="192.9848" y2="192.9848"/><linearGradient id="t"><stop offset="0" stop-color="#000061"/><stop offset="1" stop-color="#006f86" stop-opacity="0"/></linearGradient><linearGradient id="u" gradientTransform="matrix(9.81802 0 0 8 -2168.87 4579.1)" gradientUnits="userSpaceOnUse" x1="230" x2="230" y1="-581.63782" y2="-577.57336"><stop offset="0" stop-color="#44adeb"/><stop offset="1" stop-color="#aadcf7"/></linearGradient><linearGradient id="v" gradientTransform="matrix(-8.86632 0 0 8.1065 3146.88 -9585.56)" gradientUnits="userSpaceOnUse" x1="345" x2="345" xlink:href="#e" y1="1173" y2="1178"/><linearGradient id="w" gradientUnits="userSpaceOnUse" x1="45.69568" x2="60.36813" xlink:href="#b" y1="-51.8792" y2="-42.1565"/><linearGradient id="x" gradientTransform="matrix(8.86632 0 0 8.1065 -3046.88 -9583.06)" gradientUnits="userSpaceOnUse" x1="345" x2="345" y1="1173.9109" y2="1178"><stop offset="0" stop-color="#666"/><stop offset="1" stop-color="#1a1a1a"/></linearGradient><linearGradient id="y" gradientUnits="userSpaceOnUse" x1="55.54143" x2="55.54143" y1="-29.8252173808" y2="-37.7264163696"><stop offset="0" stop-color="#18a303"/><stop offset="1" stop-color="#106802"/></linearGradient><linearGradient id="z" gradientTransform="matrix(8.86632 0 0 8.1065 -3046.88 -9572.96)" gradientUnits="userSpaceOnUse" x1="345" x2="345" xlink:href="#A" y1="1173" y2="1178"/><linearGradient id="A"><stop offset="0" stop-color="#0369a3"/><stop offset="1" stop-color="#023f62"/></linearGradient><linearGradient id="B" gradientUnits="userSpaceOnUse" x1="36.37491" x2="36.37491" xlink:href="#C" y1="-49.7185" y2="-42.7617"/><linearGradient id="C"><stop offset="0" stop-color="#666"/><stop offset="1" stop-color="#666" stop-opacity=".5"/></linearGradient><radialGradient id="D" cx="-1535.3044" cy="-842.90808" gradientTransform="matrix(-3.31574 0 0 -7.58441 -5016.37 -6481.31)" gradientUnits="userSpaceOnUse" r="10"><stop offset="0" stop-color="#fff"/><stop offset="1" stop-color="#00a8ff" stop-opacity="0"/></radialGradient><linearGradient id="E" gradientUnits="userSpaceOnUse" x1="36.37491" x2="36.37491" xlink:href="#C" y1="-49.7185" y2="-38.009"/><linearGradient id="F" gradientUnits="userSpaceOnUse" x1="48.55026" x2="48.55026" xlink:href="#G" y1="-47.306" y2="-41.0862"/><linearGradient id="G"><stop offset="0" stop-color="#808080"/><stop offset="1" stop-color="#666"/></linearGradient><linearGradient id="H" gradientUnits="userSpaceOnUse" x1="48.55026" x2="48.55026" xlink:href="#G" y1="-46.056" y2="-39.5862"/><linearGradient id="I" gradientUnits="userSpaceOnUse" x1="36.375" x2="36.375" y1="-31.9978" y2="-25.8715"><stop offset="0" stop-color="#0369a3"/><stop offset="1" stop-color="#047fc6"/></linearGradient><linearGradient id="J" gradientUnits="userSpaceOnUse" x1="445.69522" x2="441.38797" y1="1103.5776" y2="1099.8198"><stop offset="0" stop-color="#e9b913"/><stop offset="1" stop-color="#ff0"/></linearGradient><radialGradient id="K" cx="58" cy="44.923077" gradientTransform="matrix(1.4285714 0 0 .76190473 -24.857143 9.772895)" gradientUnits="userSpaceOnUse" r="10.5" xlink:href="#a"/><linearGradient id="L" gradientTransform="matrix(-.5 0 0 .60714286 284 -55.679907)" gradientUnits="userSpaceOnUse" x1="516.04974" x2="495.66605" xlink:href="#t" y1="192.9848" y2="192.9848"/><linearGradient id="M" gradientTransform="matrix(.32258065 0 0 .4 -58.387096 676.65508)" gradientUnits="userSpaceOnUse" x1="297.25" x2="297.25" y1="-1601.6377" y2="-1516.6377"><stop offset="0" stop-color="#259dd2"/><stop offset="1" stop-color="#065d8d"/></linearGradient><linearGradient id="N" gradientTransform="matrix(.28571429 0 0 .28571433 -46.285714 491.89655)" gradientUnits="userSpaceOnUse" x1="298" x2="298" y1="-1587.6377" y2="-1507.6377"><stop offset="0" stop-color="#259dd2"/><stop offset="1" stop-color="#025583"/></linearGradient><g><g fill="url(#r)"><path d="m53.3125 4.03125c-1.660944.029867-3.310484.1096277-4.875.03125a.91518541.91518541 0 0 0 -.03125 0h-36.59375c-6.0093322-.072138-10.4543524 5.7368793-9.75 11.46875.0000552.04167-.0000546.08333 0 .125.030657 23.42145-.046636 46.822795.0625 70.25a.91518541.91518541 0 0 0 0 .0625c.4308375 5.815091 6.1647924 9.641692 11.65625 8.96875.04176-.0051.08327.0056.125 0 23.664871-.02956 47.328173.07409 71-.03125a.91518541.91518541 0 0 0 .0625 0c5.748886-.407646 9.581227-6.059657 8.96875-11.5-.0047-.04165.0052-.08338 0-.125-.02028-14.237769.04011-28.476387-.03125-42.71875-.000313-.06251.000318-.124988 0-.1875h-.03125c.067792-.678156-.098609-1.318653-.375-1.78125-.305232-.510869-.690282-.91175-.9375-1.21875-.190852-.237004-.197244-.299519-.21875-.3125.04226-.03439.0477-.05486.1875-.125a.91518541.91518541 0 0 0 .28125-.21875c1.002908-1.166896 1.19216-2.595203 1.1875-3.875s-.165415-2.491189-.0625-3.46875a.91518541.91518541 0 0 0 0-.125c-.101319-5.648479.217667-11.374187-.1875-17.125a.91518541.91518541 0 0 0 0-.09375c-.957103-5.3857799-6.428719-8.5659297-11.5625-7.96875-.03114.00362-.06264-.0039-.09375 0-4.997283.0843843-10.072909-.1781129-15.15625.125a.91518541.91518541 0 0 0 -.1875.03125c-2.037488.5411097-3.106149 2.4077475-3.15625 4.34375-.27118-.2688286-.486341-.4381079-.84375-.84375-.602373-.6836646-1.275415-1.4702387-2-2.125-.692056-.6253671-1.427186-1.168068-2.375-1.25v-.03125c-.04196-.0078-.08305.00743-.125 0-1.662179-.2945868-3.321235-.3103133-4.9375-.28125z" opacity=".08"/><path d="m11.8125 4.96875c-5.4415808-.065323-9.5544647 5.330299-8.84375 10.551217.031102 23.466019-.062402 46.935216.046906 70.399241.3910512 5.278088 5.7300608 8.791598 10.757639 8.112042 23.709989-.03009 47.422989.06024 71.131092-.04526 5.212418-.369606 8.750089-5.595491 8.126863-10.571789-.020917-14.345454.041786-28.698422-.03125-43.039201.374162-1.946174-3.121054-3.123182-.875-4.25 1.607435-1.87027.666451-4.572628.90625-6.850406-.10212-5.693153.215246-11.413209-.184524-17.087415-.866873-4.8780391-5.9102-7.8089575-10.620021-7.218429-5.069993.0900219-10.180489-.1758992-15.226705.125-1.927477.5118933-2.868815 2.6096806-2.46875 4.4754057-.534535 2.3983413-3.923624-4.2532249-6.322475-4.3395412-3.19826-.5948164-6.536955-.0978627-9.790672-.2608645-12.201868 0-24.403735 0-36.605603 0z" opacity=".1"/><path d="m11.84375 5.96875c-4.3594405.076166-7.875 3.6553323-7.875 8.03125v10.1875 50.625 10.1875c0 4.423744 3.607506 8.03125 8.03125 8.03125h6.3125 65.6875c4.35197 0 7.917827-3.48523 8.03125-7.8125a1.0169475 1.0169475 0 0 0 0-.03125v-10.375-33.96875h-.03125c.0039-.108903.0056-.234982 0-.34375a1.0169475 1.0169475 0 0 0 0-.03125c-.09472-.89596-.48688-1.722945-1.125-2.34375-.606226-.60129-1.316296-1.321757-1.9375-1.9375.04109.01058.08851.0301.09375.03125.0102.0022.14589.02973.15625.03125.01036.0015.177044.03047.1875.03125.01046.000778.177009-.000035.1875 0 .01049.000035.145788.000709.15625 0 .01046-.000709.177128-.0298.1875-.03125.01037-.0014.14603-.02908.15625-.03125.01022-.0022.177492-.02837.1875-.03125.01001-.0029.14651-.05893.15625-.0625.0097-.0036.146834-.05826.15625-.0625.0094-.0042.147208-.05763.15625-.0625.009-.0049.14763-.08828.15625-.09375.0086-.0055.148095-.08771.15625-.09375.0082-.006.117349-.118439.125-.125.0077-.0066.149138-.117956.15625-.125.0071-.007.08721-.117516.09375-.125.0065-.0075.119053-.117119.125-.125.0059-.0079.08842-.148016.09375-.15625.0053-.0082.08906-.147707.09375-.15625.0047-.0085.08971-.147441.09375-.15625.004-.0088.05913-.147218.0625-.15625.0034-.009.0598-.147038.0625-.15625.0027-.0092.02923-.178149.03125-.1875.002-.0094.02992-.146801.03125-.15625.0013-.0094-.00064-.177994 0-.1875a1.0169475 1.0169475 0 0 0 .03125-.03125c.000232-.007.000139-.08342 0-.125v-.03125-3.75-.03125c.000172-.03085.000086-.04788 0-.09375.000116-.0035-.000023-.03305 0-.0625s.00007-.04171 0-.0625v-.03125-8.625-3.75-.28125-3.125c0-4.423744-3.607506-8.03125-8.03125-8.03125h-16.21875a1.0169475 1.0169475 0 0 0 -.09375.03125c-.0083.0007875-.14804-.00125-.15625 0-.0082.00125-.116889.029542-.125.03125-.0081.00171-.117017.029093-.125.03125-.008.00216-.148424.028654-.15625.03125-.0078.0026-.117359.059477-.125.0625-.0076.00302-.11757.059064-.125.0625-.0074.00344-.117807.058665-.125.0625-.0072.00383-.118068.058284-.125.0625-.0069.00422-.0871.057921-.09375.0625-.0066.00458-.118654.088826-.125.09375-.0063.00492-.08773.088502-.09375.09375-.006.00525-.119315.088198-.125.09375-.0057.00555-.08842.087916-.09375.09375-.0053.00583-.08879.087655-.09375.09375-.005.0061-.08917.1186657-.09375.125-.0046.00633-.05831.1184485-.0625.125-.0042.00655-.05871.087003-.0625.09375-.0038.00675-.05912.1180795-.0625.125-.0034.00692-.05954.1179275-.0625.125-.003.00707-.05996.1490467-.0625.15625-.0025.0072-.02913.117687-.03125.125-.0021.00731-.02956.117598-.03125.125-.0017.0074-.02999.1487796-.03125.15625-.0013.00747-.03043.1174814-.03125.125-.000824.00752.00039.1174535 0 .125-.00039.00755-.000046.1486955 0 .15625.000046.00755-.000481.1174577 0 .125.000481.00754-.000915.1487399 0 .15625.000915.00751.0299.1175422.03125.125.00057.00316.02562.035701.03125.0625.0077.036544-.001.089489 0 .09375v2.9375c-.0095.04404-.03031.08853-.03125.09375-.0016.0089.000985.178521 0 .1875-.000985.009-.03088.147234-.03125.15625-.000365.009-.000256.147231 0 .15625.000256.009.03037.178512.03125.1875.000876.009-.0015.147328 0 .15625.0015.0089.02914.147428.03125.15625-1.997563-1.973833-4.155778-4.083756-6.03125-5.9375-.639614-.640103-1.481818-1.0126748-2.375-1.09375a1.0169475 1.0169475 0 0 0 -.09375-.03125h-45.15625a1.0169475 1.0169475 0 0 0 -.03125 0z" opacity=".2"/><path d="m11.875 7c-3.8194261.0667311-6.875 3.164073-6.875 7v10.1875 50.625 10.1875c0 3.878 3.122 7 7 7h6.3125 65.6875c3.814891 0 6.900658-3.022431 7-6.8125v-10.375-33.96875c.0049-.09479.0049-.186466 0-.28125-.06776-.640926-.379098-1.266706-.84375-1.71875-9.762119-9.682628-21.59588-21.365427-31.375-31.03125-.465334-.4656896-1.090569-.7526427-1.75-.8125zm55.90625 0a1.4434152 1.4266924 0 0 0 -1.21875 1.90625v3.125a1.4434152 1.4266924 0 0 0 .34375 1.4375l21.625 21.375a1.4434152 1.4266924 0 0 0 2.46875-.90625 1.4434152 1.4266924 0 0 0 0-.09375v-3.8125a1.4434152 1.4266924 0 0 0 0-.125 1.4434152 1.4266924 0 0 0 0-.09375v-8.65625-3.75-.28125-3.125c0-3.878-3.122-7-7-7z" opacity=".3"/></g><path d="m12 7c-3.324 0-6 2.676-6 6v11 50 11c0 3.324 2.676 6 6 6h7 65c3.324 0 6-2.676 6-6v-.71875-10.28125-33.5625c.0048-.09367.0048-.187581 0-.28125-.06619-.633386-.358634-1.240774-.8125-1.6875-9.535501-9.568715-21.104142-21.104142-30.65625-30.65625-.454532-.4602109-1.074627-.7533469-1.71875-.8125h-44.09375zm55.3125 0a1.4099078 1.4099078 0 0 0 -1.1875 1.875v3.09375a1.4099078 1.4099078 0 0 0 .34375 1.4375l21.125 21.125a1.4099078 1.4099078 0 0 0 2.40625-.90625 1.4099078 1.4099078 0 0 0 0-.09375v-3.78125a1.4099078 1.4099078 0 0 0 0-.125 1.4099078 1.4099078 0 0 0 0-.09375v-8.53125-3.71875-.28125-3.71875-.28125c0-3.324-2.676-6-6-6z" fill="url(#q)" opacity=".45"/></g><g><path d="m12 6c-3.324 0-6 2.676-6 6v11 50 11c0 3.324 2.676 6 6 6h7 65c3.324 0 6-2.676 6-6v-.71875-10.28125-33.5625c.0048-.09367.0048-.187581 0-.28125-.06619-.633386-.358634-1.240774-.8125-1.6875-9.535501-9.568715-21.104142-21.104142-30.65625-30.65625-.454532-.4602109-1.074627-.7533469-1.71875-.8125h-44.09375zm55.3125 0a1.4099078 1.4099078 0 0 0 -1.1875 1.875v3.09375a1.4099078 1.4099078 0 0 0 .34375 1.4375l21.125 21.125a1.4099078 1.4099078 0 0 0 2.40625-.90625 1.4099078 1.4099078 0 0 0 0-.09375v-3.78125a1.4099078 1.4099078 0 0 0 0-.125 1.4099078 1.4099078 0 0 0 0-.09375v-8.53125-3.71875-.28125-3.71875-.28125c0-3.324-2.676-6-6-6z" fill="url(#k)"/><rect fill="url(#c)" height="84" rx="6" width="84" x="106" y="6"/><path d="m114 6 26 26v4l-30-30z" fill="#f0f"/><path d="m-152.02625-3.741835c-1.15757 0-2.22285 1.023711-2.22285 2.266604v67.201748c0 1.08285 1.01251 2.22285 2.17034 2.22285h53.7684c1.29579 0 2.31036-1.08534 2.31036-2.17034v-41.779027c0-1.182972-.1434-1.736346-.98015-2.572902l-23.89999-23.882482c-.83684-.836446-1.47695-1.268027-2.66041-1.268948l-28.4857-.0175zm38.88232.0087c-1.91483 0-2.00143 1.993315-.9889 3.01047l14.89483 14.964838c1.215 1.220507 3.238.927359 3.238-.997642v-14.684794c0-1.183644-1.07142-2.292858-2.2491-2.292858h-14.89483z" fill="url(#f)"/><path d="m6 78v2c0 3.324 2.676 6 6 6h7 65c3.324 0 6-2.676 6-6v-.71875-1.28125c0 3.324-2.676 6-6 6h-65-7c-3.324 0-6-2.676-6-6z" fill="#fff" opacity=".05"/><path d="m12 6c-3.324 0-6 2.676-6 6v11 46 11c0 3.324 2.7094079 5.529915 6 6h7 65c3.324 0 6-2.676 6-6v-.71875-10.28125-29.5625c.0048-.09367.0048-.187581 0-.28125-.06619-.633386-.358634-1.240774-.8125-1.6875-9.535501-9.568715-21.104142-21.104142-30.65625-30.65625-.454532-.4602109-1.074627-.7533469-1.71875-.8125h-44.09375zm0 1.03125h.71875 44c.396194.036384.814172.2169286 1.09375.5 9.55295 9.55295 21.122606 21.089398 30.65625 30.65625.272632.268343.453196.650494.5 1.03125.000601.01173-.000361.01951 0 .03125.0014.04696.0024.07809 0 .125a1.0271693 1.0271693 0 0 0 0 .0625v29.5625 10.28125.71875c0 2.772771-2.195979 4.96875-4.96875 4.96875h-65-6.84375c-1.46171-.208816-2.7793089-.800562-3.6875-1.65625s-1.4375-1.929556-1.4375-3.3125v-11-46-11c0-2.7727705 2.1959795-4.96875 4.96875-4.96875z" fill="url(#m)" opacity=".23"/><path d="m112 6c-3.324 0-6 2.676-6 6v11 50 11c0 3.324 2.676 6 6 6h7 65c3.324 0 6-2.676 6-6v-.71875-10.28125-33.5625c.005-.09367.005-.187581 0-.28125-.0662-.633386-.35863-1.240774-.8125-1.6875-9.5355-9.568715-21.10414-21.104142-30.65625-30.65625-.45453-.4602109-1.07463-.7533469-1.71875-.8125h-44.09375z" fill="url(#o)" opacity=".45"/><path d="m167.3125 6a1.4099078 1.4099078 0 0 0 -.84375 2.40625l21.125 21.125a1.4099078 1.4099078 0 0 0 2.40625-.90625 1.4099078 1.4099078 0 0 0 0-.09375v-12.53125-3.71875-.28125c0-3.324-2.676-6-6-6z" fill="url(#o)" opacity=".45"/><path d="m67.3125 6a1.4099078 1.4099078 0 0 0 -.84375 2.40625l21.125 21.125a1.4099078 1.4099078 0 0 0 2.40625-.90625 1.4099078 1.4099078 0 0 0 0-.09375v-12.53125-3.71875-.28125c0-3.324-2.676-6-6-6zm0 1h.09375 16.59375c2.792209 0 5 2.2077914 5 5v.28125 3.71875 12.53125a.9909481.9909481 0 0 0 0 .03125c.0018.05319.0018-.02194 0 .03125-.0077.05689.01176-.02494 0 .03125s.01576-.02395 0 .03125.01967-.02268 0 .03125-.0078-.02113-.03125.03125c-.02349.05238.02718-.01931 0 .03125-.000573-.01238-.01588-.02424-.03125 0s-.0081.03527 0 .03125c-.03413.04616.0061-.01234-.03125.03125-.01868.0218-.0097.03399 0 .03125.0026-.0098-.0096-.0189-.03125 0-.0432.0378.01455-.0034-.03125.03125.0039-.0082-.0072-.01562-.03125 0-.04816.03124.01903.0035-.03125.03125-.05213.02403.02247.01102-.03125.03125s.02379-.01633-.03125 0 .02481-.01234-.03125 0 .02555-.0083-.03125 0 .026.02705-.03125.03125.02616-.000087-.03125 0 .02602.004-.03125 0 .02558-.02313-.03125-.03125c-.05683-.0081.02485.01217-.03125 0s.02383.01616-.03125 0 .02253.02007-.03125 0 .02096-.0074-.03125-.03125c-.05036-.02755.01701-.000157-.03125-.03125-.02413-.01555-.03521-.0082-.03125 0-.0459-.03447.01207.0064-.03125-.03125-.02166-.01884-.03391-.0098-.03125 0l-21.125-21.125a.9909481.9909481 0 0 0 0-.03125c-.03733-.04241.003.013689-.03125-.03125s-.000257.015993-.03125-.03125c-.03099-.047243.02758.018061 0-.03125-.02404-.051134-.01088.021453-.03125-.03125s.0166.022758 0-.03125.01275.023795 0-.03125-.02242.024557-.03125-.03125c-.0088-.055807.0049.025041 0-.03125s.000891.025245 0-.03125-.0031.025167 0-.03125-.0071.024808 0-.03125.02024.02417.03125-.03125-.01489.023255 0-.03125-.0187.022069 0-.03125c.02241-.051867.0052.018907.03125-.03125.02601-.050157-.02949.016947 0-.03125s-.0016.014746.03125-.03125c.01641-.022998.0086-.034633 0-.03125-.0016.010561.01177.02046.03125 0 .03896-.04092-.0105.00682.03125-.03125.02088-.019035.01076-.032575 0-.03125-.0036.00836.0079.015907.03125 0 .04669-.031815-.01757-.00281.03125-.03125.04882-.028441-.01946.024926.03125 0 .050707-.0249262-.021089-.0099631.03125-.03125z" fill="url(#p)" opacity=".12"/></g><g><path d="m14 12.03125c-1.155927 0-1.96875.812823-1.96875 1.96875v1c0-1.155927.812823-1.96875 1.96875-1.96875h.71875 41.34375c9.302007 9.302007 18.590178 18.61793 27.90625 27.90625v-1c-9.316072-9.28832-18.604243-18.604243-27.90625-27.90625h-41.34375z" opacity=".2"/><path d="m14 12.03125c-1.155927 0-1.96875.812823-1.96875 1.96875v1c0-1.155927.812823-1.96875 1.96875-1.96875h.71875 41.34375c9.302007 9.302007 18.590178 18.61793 27.90625 27.90625v-1c-9.316072-9.28832-18.604243-18.604243-27.90625-27.90625h-41.34375z" opacity=".2"/><path d="m14 12.03125c-1.155927 0-1.96875.812823-1.96875 1.96875v9 29 17 8.28125.71875c0 1.077732.717552 1.836973 1.75 1.9375.07491.0073.142073.01592.21875.03125h5 58 5c.07224 0 .1493-.0086.21875-.03125 1.032448-.100527 1.75-.859768 1.75-1.9375v-.71875-8.28125-17-12.0625c-9.316072-9.28832-18.604243-18.604243-27.90625-27.90625h-41.34375z" fill="url(#h)"/><path d="m17.90625 17.0625c-.459951.04302-.84925.475575-.84375.9375v9 38 9c-.0037.491884.445616.941233.9375.9375h5 55c.491884.0037.941233-.445616.9375-.9375v-9-23.40625c-.0027-.244241-.10626-.48584-.28125-.65625l-23.59375-23.59375c-.17041-.17499-.412009-.278532-.65625-.28125h-36.40625c-.03122-.0016-.06253-.0016-.09375 0z" fill="url(#d)" opacity=".6"/><path d="m18 18v9 38 9h5 55v-9-23.40625l-23.59375-23.59375z" fill="url(#g)"/><path d="m18 18v9 38 9h5 55v-9-23.40625l-23.59375-23.59375zm1 1h35.03125l22.96875 22.96875v23.03125 8h-54-4v-8-38z" fill="#fff" opacity=".7"/><path d="m14 12.03125c-1.155927 0-1.96875.812823-1.96875 1.96875v1c0-1.155927.812823-1.96875 1.96875-1.96875h.71875 41.34375c9.302007 9.302007 18.590178 18.61793 27.90625 27.90625v-1c-9.316072-9.28832-18.604243-18.604243-27.90625-27.90625h-41.34375z" opacity=".2"/><path d="m14 12.03125c-1.155927 0-1.96875.812823-1.96875 1.96875v9 33 13 8.28125.71875c0 1.077732.717552 1.836973 1.75 1.9375.07491.0073.142073.01592.21875.03125h5 58 5c.07224 0 .1493-.0086.21875-.03125 1.032448-.100527 1.75-.859768 1.75-1.9375v-.71875-8.28125-13-16.0625c-9.316072-9.28832-18.604243-18.604243-27.90625-27.90625h-41.34375zm0 .96875h.71875 40.9375c9.113593 9.114133 18.214692 18.240801 27.34375 27.34375v15.65625 13 8.28125.71875c0 .648416-.267049.909555-.875.96875-.0423.0076-.08409.01807-.125.03125h-5-58-5c.119302 0 .09888-.0094-.125-.03125-.607951-.059195-.875-.320334-.875-.96875v-.71875-8.28125-13-33-9c0-.702508.297492-1 1-1z" opacity=".1"/></g><path d="m6 80v4c0 3.324 2.676 6 6 6h72c3.324 0 6-2.676 6-6v-4c0 3.324-2.676 6-6 6h-72c-3.324 0-6-2.676-6-6z" fill="url(#j)"/><path d="m6 82v2c0 3.324 2.676 6 6 6h72c3.324 0 6-2.676 6-6v-2c0 3.324-2.676 6-6 6h-72c-3.324 0-6-2.676-6-6z" opacity=".1"/><path d="m6 83v1c0 3.324 2.676 6 6 6h72c3.324 0 6-2.676 6-6v-1c0 3.324-2.676 6-6 6h-72c-3.324 0-6-2.676-6-6z" opacity=".15"/><path d="m66.125 7.875v3.09375a1.4099078 1.4099078 0 0 0 .34375 1.4375l21.125 21.125a1.4099078 1.4099078 0 0 0 2.40625-.90625 1.4099078 1.4099078 0 0 0 0-.09375v-3.78125a1.4099078 1.4099078 0 0 1 -2.40625.78125l-21.125-21.125a1.4099078 1.4099078 0 0 1 -.34375-.53125z" fill="url(#l)"/><g><path d="m42 34h24v16h-24z" fill="url(#N)"/><path d="m56 34v16h10v-16z" fill="url(#s)" opacity=".5"/><path d="m30 36v2h10v-2zm-4 4v2h14v-2zm0 4v2h14v-2zm0 4v2h14v-2zm0 4v2h40v-2zm0 4v2h40v-2zm0 4v2h40v-2zm0 4v2h40v-2zm0 4v2h26v-2z" fill="url(#M)"/><path d="m30 36v2h6v-2zm-4 4v2h10v-2zm0 4v2h10v-2zm0 4v2h10v-2zm0 4v2h10v-2zm0 4v2h10v-2zm0 4v2h10v-2zm0 4v2h10v-2zm0 4v2h10v-2z" fill="url(#L)" opacity=".5"/><path d="m44 36h21v13h-21z" fill="url(#K)" opacity=".5"/><g transform="matrix(.2631452 0 0 .24957588 40.842258 54.488349)"><path d="m12.001465-73.997818h75.998436v48h-75.998436z" fill="url(#u)"/><path d="m67.34375-59.86c-15.06455 6.008-29.77881 14.2205-39.78125 27.25 20.47917 0 39.95543-.9876 60.4346-.9876l.003-9.0436c-5.06837-4.3947-14.40166-15.0328-20.65615-17.2188z" fill="#fff" opacity=".5"/><path d="m67.73365-58.9303c5.06659 2.5332 13.87172 11.3551 20.26345 17.733v7.5997h-58.26412c10.13459-12.6662 25.33429-20.2661 38.00067-25.3327z" fill="url(#v)"/><path d="m49.12987-44.2056s.44272-3.5773.44272-3.5773 6.65294-2.8463 6.65294-2.8463 3.74161-3.4959 3.74161-3.4959 6.57905-2.6676 6.57905-2.6676-1.71689 4.3216-1.71689 4.3216-2.56482 4.493-2.56482 4.493-1.52666 4.8826-1.52666 4.8826-1.05581 2.8131-1.05581 2.8131-10.55214-3.9232-10.55214-3.9232z" fill="#333"/><path d="m31.4375-67.0788c-6.44898 9.7171-11.85933 18.5139-19.43604 27.2131l.0676 7.0347c16.78125 0 44.49346.221 61.27471.221-14.05705-10.2048-29.3751-19.5806-38.09375-35.0312-1.2011 1.0694-3.04104-.519-3.8125.5624z" fill="url(#w)" opacity=".5"/><path d="m51.26735-47.5306c-7.58307-6.2914-11.39978-11.3997-16.46634-18.9996-1.48156.4474-1.42497.2772-2.53328 0 0 0-6.77802 10.0696-10.13314 15.1997-3.3551 5.1301-10.13459 12.6664-10.13459 12.6664v5.0665h58.26412s-13.91947-10.0546-18.99677-13.933z" fill="url(#x)"/><path d="m87.99992-38.6641h-3.26563s-14.46735 2.5333-14.46735 2.5333-14.29633-3.7999-16.44699-3.7999c-2.11303 0-8.88582 1.2666-10.15319 1.2666-.88823 0-6.33248-2.5332-7.61991-2.5332-2.12419 0-4.57202 2.6915-10.90522 3.7998 0 0-1.81956-4.0372-3.00704-3.7998-7.59985 2.9292-10.13459 2.5332-10.13459 2.5332v12.6664h75.9971s.002-12.6664.002-12.6664h.00028z" fill="url(#y)"/><path d="m12.00148-36.1308-.00099 10.1331h65.86679s2.53328-2.5333 2.53328-2.5333-2.53328-2.5332-2.53328-2.5332-5.06657-2.5334-5.06657-2.5334-12.66641-2.5332-12.66641-2.5332-12.6664-1.2667-12.6664-1.2667-11.39977 1.2667-11.39977 1.2667h-15.1997-8.86648z" fill="url(#z)"/><path d="m17.06803-41.1973s3.60932-5.7939 3.60932-5.7939 4.27798-5.063 4.27798-5.063 3.2666-5.9502 3.2666-5.9502 4.0458-5.9926 4.0458-5.9926-2.74602 7.5677-2.74602 7.5677-2.01069 6.2344-2.01069 6.2344-.97249 3.9328-.97249 3.9328-1.81468 4.19-1.81468 4.19c-.73049-.5328-1.65402-.5525-2.4869-.8228 0 0-2.37836.9322-2.37836.9322s-2.79056.7654-2.79056.7654z" fill="#333"/><path d="m26.36147-41.0854 2.72366-6.8784 1.32843-7.1007 1.92133-4.3839 1.19947-4.5486 1.66504 4.6804.47301 4.4696 2.01407 3.9818 1.99664 4.5749.37323 3.2315-3.35375.9414-3.18579-1.2421-3.5217 2.2848h-3.63364z" fill="url(#B)"/><path d="m59.01266-39.9261s-4.43728-3.1983-4.43728-3.1983-2.8341-2.261-2.8341-2.261 2.75251 4.2894 2.75251 4.2894 4.51887 1.1699 4.51887 1.1699z" fill="#808080"/><path d="m41.997818-88h32v76h-32z" fill="url(#D)" transform="matrix(0 -1 -1 0 0 0)"/><path d="m448.77203 1099.6875a7.5845342 4.6875 0 0 1 -7.58453 4.6875v-4.6875z" fill="#e9b913" opacity=".5" transform="matrix(0 1.97771 -3.2 0 3607 -946.62)"/><path d="m62.73029-42.9765s1.56591-5.0425 1.56591-5.0425 1.92131-4.3839 1.92131-4.3839 1.19949-4.5482 1.19949-4.5482 1.66502 4.6803 1.66502 4.6803 2.13549 3.9947 2.13549 3.9947 1.5391 3.9818 1.5391 3.9818-.2199 4.2582-.2199 4.2582 2.11487 2.1231 2.11487 2.1231-4.35374-.2356-4.35374-.2356-8.78699-1.8183-8.78699-1.8183 1.21952-3.0101 1.21952-3.0101z" fill="url(#E)"/><path d="m52.53397-41.1973s-3.68849-5.5898-3.68849-5.5898-6.54106-7.1331-6.54106-7.1331-5.41174-7.1153-5.41174-7.1153-2.09167-2.9615-2.09167-2.9615 2.267 7.6889 2.267 7.6889 2.48629 4.611 2.48629 4.611 2.2055 7.0438 2.2055 7.0438.64107 3.456.64107 3.456 2.27708.763 2.27708.763 3.48079-.8064 3.48079-.8064c1.46126-.1444 2.92258.026 4.37523.044z" fill="url(#F)"/><path d="m86.97077-40.1684s-2.97601-1.7897-2.97601-1.7897-4.16611-5.7083-4.16611-5.7083-6.12423-5.2942-6.12423-5.2942-4.78328-3.9905-4.78328-3.9905.92119 3.3345.92119 3.3345 4.22793 6.6695 4.22793 6.6695.46386 6.0147.46386 6.0147 2.54103 1.9517 2.54103 1.9517 5.69988-1.1083 5.69988-1.1083l4.19574-.078z" fill="url(#H)"/><path d="m12.02716-33.5313-.0257 7.5336h63.33202v-2.5333l-2.53326-2.5332-12.66643-2.5334-12.6664-1.2665-12.6664 1.2665-13.70914.3778z" fill="url(#I)"/><path d="m47.50168-36.0647-12.72043 1.4419-13.56901 1.0378-8.2752.029 8.15671.3393 13.98392-.021 12.39108-1.2813 12.6875 1.209 5.64415 1.101 6.9496 1.6177 2.28125 2.1875.3125 2.4063h1.15625l.20512-2.7873-3.41109-3.2617-13.20012-2.4813z" fill="#0088b7"/><path d="m39.86757-28.531s2.5333-2.5332 2.5333-2.5332h10.1331s7.59984 2.5332 7.59984 2.5332 2.53329 2.5333 2.53329 2.5333h-5.06655s-17.73298-2.5333-17.73298-2.5333z" fill="#1c99e0" opacity=".5"/><path d="m34.8125-63.9978 1.5625 5.9062c1.28434 2.3781 3.8039 3.3846 5.88388 5.4107 3.00348 2.9257 6.33881 6.3819 7.61612 7.4956l-1.03125-1.5938-6.53125-7.1562-5.40625-7.0938z" fill="#fff" opacity=".4"/><path d="m32.28125-63.9978-3.26961 7.6132-3.26164 9.1368-3.5736 4.3728c.51396.1149 2.10574.4962 2.54235.8147l1.8125-4.1875.96875-3.9375 2.03125-6.25z" opacity=".25"/><path d="m36.03125-41.1853c-2.06881 0-4.43308 2.5305-10.40625 3.6875l-.21875.125c.10772.037.48667.1051 1.8125-.094 1.76776-.2652 8.0599-2.9322 9.5625-2.8437 1.5026.088 5.99111 2.6508 6.875 2.5625.88388-.089 9.37776-1.3224 10.96875-.9688 1.59099.3535 16.1875 3.625 16.1875 3.625l13.9375-2.5625 3.25.094v-1.0938h-3.28125l-14.4375 2.5313s-14.31809-3.8125-16.46875-3.8125c-2.11303 0-8.88888 1.2812-10.15625 1.2812-.88823 0-6.33757-2.5312-7.625-2.5312z" fill="#ff0" opacity=".35"/><path d="m448.77203 1099.6875a7.5845342 4.6875 0 0 1 -7.58453 4.6875v-4.6875z" fill="url(#J)" opacity=".74" transform="matrix(0 1.71401 -2.77333 0 3137.8 -830.2)"/><g fill="#fff"><path d="m72-73.9978c0 8.8432 7.15662 16 16 16v-.9884c-8.29749 0-15.01158-6.7142-15.01158-15.0116z" opacity=".5"/><path d="m68.90625-56.9666.9375 3.3438 4.21875 6.6875.46875 6 2.53125 1.9687.4375-.094-2.25-2.25-.4375-5.75-2.41291-3.709 6.47541 3.459 5.125 5.3437-4.15625-5.6875-6.125-5.3125zm15.09375 15 .25.2813-.0625-.1563z" opacity=".4"/><path d="m12-73.9978v48h76v-48zm1 1h74v46h-74z" opacity=".35"/></g></g><path d="m56 52v2h10v-2zm0 4v2h10v-2zm0 4v2h10v-2zm0 4v2h10v-2z" fill="url(#s)" opacity=".5"/></g></svg>