<?xml version="1.0" encoding="UTF-8" standalone="no"?>
<!-- Created with Inkscape (http://www.inkscape.org/) -->

<svg
xmlns:dc="http://purl.org/dc/elements/1.1/"
xmlns:cc="http://creativecommons.org/ns#"
xmlns:rdf="http://www.w3.org/1999/02/22-rdf-syntax-ns#"
xmlns:svg="http://www.w3.org/2000/svg"
xmlns="http://www.w3.org/2000/svg"
version="1.1"
width="220"
height="50"
id="svg2">
<title
id="title6175">Linear Technology Corporation logo</title>
<defs
id="defs4">
<clipPath
id="clipPath4417">
<path
d="m 391.2,119.302 170.667,0 0,169.898 -170.667,0 0,-169.898 z"
id="path4419" />
</clipPath>
<clipPath
id="clipPath4225">
<path
d="m 391.2,119.302 170.667,0 0,169.898 -170.667,0 0,-169.898 z"
id="path4227" />
</clipPath>
<clipPath
id="clipPath4177">
<path
d="m 391.2,119.302 170.667,0 0,169.898 -170.667,0 0,-169.898 z"
id="path4179" />
</clipPath>
<clipPath
id="clipPath4157">
<path
d="m 79.378,258.616 15.648,0 0,6.721 -15.648,0 0,-6.721 z"
id="path4159" />
</clipPath>
<clipPath
id="clipPath4063">
<path
d="m 42.821,57.075 332.77,0 0,244.631 -332.77,0 0,-244.631 z"
id="path4065" />
</clipPath>
<clipPath
id="clipPath4035">
<path
d="m 82.091,246.45 10.309,0 0,6.906 -10.309,0 0,-6.906 z"
id="path4037" />
</clipPath>
<clipPath
id="clipPath4011">
<path
d="m 82.091,224.485 10.309,0 0,6.907 -10.309,0 0,-6.907 z"
id="path4013" />
</clipPath>
<clipPath
id="clipPath3987">
<path
d="m 68.113,76.3 10.309,0 0,6.907 -10.309,0 0,-6.907 z"
id="path3989" />
</clipPath>
<clipPath
id="clipPath3975">
<path
d="m 151.817,57.075 10.309,0 0,6.906 -10.309,0 0,-6.906 z"
id="path3977" />
</clipPath>
<clipPath
id="clipPath3955">
<path
d="m 151.817,57.075 10.309,0 0,6.906 -10.309,0 0,-6.906 z"
id="path3957" />
</clipPath>
<clipPath
id="clipPath3939">
<path
d="m 61.82,235.204 15.809,0 0,6.294 -15.809,0 0,-6.294 z"
id="path3941" />
</clipPath>
<clipPath
id="clipPath3923">
<path
d="m 61.82,268.035 15.809,0 0,6.294 -15.809,0 0,-6.294 z"
id="path3925" />
</clipPath>
<clipPath
id="clipPath3907">
<path
d="m 70.295,172.032 6.295,0 0,15.808 -6.295,0 0,-15.808 z"
id="path3909" />
</clipPath>
<clipPath
id="clipPath3883">
<path
d="m 67.433,107.526 14.774,0 0,16.511 -14.774,0 0,-16.511 z"
id="path3885" />
</clipPath>
<clipPath
id="clipPath3811">
<path
d="m 84.952,269.065 4.452,0 0,4.451 -4.452,0 0,-4.451 z"
id="path3813" />
</clipPath>
<clipPath
id="clipPath3795">
<path
d="m 84.952,236.234 4.452,0 0,4.451 -4.452,0 0,-4.451 z"
id="path3797" />
</clipPath>
<clipPath
id="clipPath3783">
<path
d="m 71.195,96.97 4.452,0 0,4.451 -4.452,0 0,-4.451 z"
id="path3785" />
</clipPath>
<clipPath
id="clipPath3771">
<path
d="m 71.195,129.357 4.452,0 0,4.451 -4.452,0 0,-4.451 z"
id="path3773" />
</clipPath>
<clipPath
id="clipPath3759">
<path
d="m 71.195,161.919 4.452,0 0,4.451 -4.452,0 0,-4.451 z"
id="path3761" />
</clipPath>
<clipPath
id="clipPath3715">
<path
d="m 154.826,90.711 4.453,0 0,4.451 -4.453,0 0,-4.451 z"
id="path3717" />
</clipPath>
<clipPath
id="clipPath3683">
<path
d="m 154.826,123.098 4.453,0 0,4.451 -4.453,0 0,-4.451 z"
id="path3685" />
</clipPath>
<clipPath
id="clipPath3651">
<path
d="m 155.072,156.026 3.963,0 0,3.961 -3.963,0 0,-3.961 z"
id="path3653" />
</clipPath>
<clipPath
id="clipPath3607">
<path
d="m 120.886,194.565 4.452,0 0,4.451 -4.452,0 0,-4.451 z"
id="path3609" />
</clipPath>
<clipPath
id="clipPath3595">
<path
d="m 154.826,188.464 4.453,0 0,4.451 -4.453,0 0,-4.451 z"
id="path3597" />
</clipPath>
<clipPath
id="clipPath3567">
<path
d="m 154.826,230.021 4.453,0 0,4.451 -4.453,0 0,-4.451 z"
id="path3569" />
</clipPath>
<clipPath
id="clipPath3535">
<path
d="m 154.826,263.001 4.453,0 0,4.451 -4.453,0 0,-4.451 z"
id="path3537" />
</clipPath>
<clipPath
id="clipPath3141">
<path
d="m 44.929,705 522.031,0 0,56.126 -522.031,0 0,-56.126 z"
id="path3143" />
</clipPath>
<clipPath
id="clipPath3107">
<path
d="M 0,792 612,792 612,0 0,0 0,792 z"
id="path3109" />
</clipPath>
<clipPath
id="clipPath3031">
<path
d="m 44.333,18 79.748,0 0,17.615 -79.748,0 0,-17.615 z"
id="path3033" />
</clipPath>
<clipPath
id="clipPath3017">
<path
d="M 0,792 612,792 612,0 0,0 0,792 z"
id="path3019" />
</clipPath>
</defs>
<metadata
id="metadata7">
<rdf:RDF>
<cc:Work
rdf:about="">
<dc:format>image/svg+xml</dc:format>
<dc:type
rdf:resource="http://purl.org/dc/dcmitype/StillImage" />
<dc:title>Linear Technology Corporation logo</dc:title>
<dc:creator>
<cc:Agent>
<dc:title>Linear Technology Corporation</dc:title>
</cc:Agent>
</dc:creator>
<dc:publisher>
<cc:Agent>
<dc:title>Linear Technology Corporation</dc:title>
</cc:Agent>
</dc:publisher>
<dc:source>http://www.linear.com</dc:source>
<dc:date>2015-07-22</dc:date>
</cc:Work>
</rdf:RDF>
</metadata>
<g
transform="translate(-0.09794001,-179.62551)"
id="layer1">
<g
transform="matrix(2.186886,0,0,2.186886,-128.48681,-244.89493)"
id="g6154">
<g
id="g6080">
<path
d="m 79.777875,194.62063 c -3.895,0 -8.5025,3.5613 -10.64,11.6625 -1.335,3.4725 -4.71875,9.4163 -9.8825,10.2162 l 24.735,0.01 1.61875,-3.01 -5.02,0 c -1.6575,-0.1337 -8.5575,-1.7363 -5.66375,-9.8825 3.47125,-9.77625 5.38625,-8.9925 4.8525,-8.9925"
id="path3037"
style="fill:#8e0a26;fill-opacity:1;fill-rule:nonzero;stroke:none" />
<path
d="m 85.722,216.49623 c 3.89375,0 8.50375,-3.5625 10.64,-11.6638 1.33625,-3.4725 4.7175,-9.415 9.88375,-10.2162 l -24.735,-0.006 -1.62,3.01125 5.02,0 c 1.65875,0.1325 8.55875,1.7363 5.665,9.8813 -3.47375,9.7775 -5.3875,8.9937 -4.85375,8.9937"
id="path3041"
style="fill:#8e0a26;fill-opacity:1;fill-rule:nonzero;stroke:none" />
</g>
<g
id="g6074">
<path
d="m 107.60763,194.54613 0,16.08 7.53125,0 0,-1.775 -5.75625,0 0,-14.305 -1.775,0 z"
id="path3025"
style="fill:#000000;fill-opacity:1;fill-rule:nonzero;stroke:none" />
<path
d="m 118.1825,194.54588 -1.775,0 0,16.07995 1.775,0 0,-16.07995 z"
id="path3043"
style="fill:#000000;fill-opacity:1;fill-rule:nonzero;stroke:none" />
<path
d="m 120.48888,194.55525 c 2.48625,0 4.82,1.68998 6.47,3.00998 l 0,-3.01873 1.775,0 0,16.08003 -1.775,0 0,-10.8675 c -1.3175,-1.0288 -3.5,-2.8788 -5.58,-3.3575 l 0,14.225 -1.775,0 0,-16.08003 0.885,0.009"
id="path3047"
style="fill:#000000;fill-opacity:1;fill-rule:nonzero;stroke:none" />
<path
d="m 151.3155,194.546 c 8.25875,-0.12125 9.85125,10.58753 1.665,12.65373 2.63375,1.5413 4,1.6488 5.96,1.6525 l 0,1.7738 c -2.54375,0 -3.99875,-0.066 -7.8875,-2.6375 l 0,-2.2325 0.58375,0 c 7.0125,-1.1013 6.10375,-9.3325 0,-9.445 l 0,14.315 -3.16875,0 -2.88875,-10.2975 -4.72125,0 0,-1.7763 4.2325,0 -0.62875,-2.2338 -4.00875,14.3125 -3.4,0 c -3.3775,0 -6.11375,-2.7625 -6.11375,-6.1387 l 0.001,-4.16 -1.1925,0 0,-1.775 1.1925,0 0,-4.00623 7.93875,0 0,1.77623 -6.1625,0 -0.001,2.23 6.13875,0 0,1.775 -6.14375,0 0.004,4.1725 c 0,2.3962 1.94125,4.3512 4.33875,4.3512 l 1.5975,0 0.002,1.7 4.48,-16.00248 2.655,0 4.0725,14.53248 0,-14.53373 1.455,0 z"
id="path3075"
style="fill:#000000;fill-opacity:1;fill-rule:nonzero;stroke:none" />
</g>
<g
id="g6062">
<path
d="m 110.04213,211.81783 2.105,0 0,-0.4562 -4.66625,0 0,0.4562 2.105,0 0,4.7425 0.45625,0 0,-4.7425 z"
id="path3051"
style="fill:#000000;fill-opacity:1;fill-rule:nonzero;stroke:none" />
<path
d="m 113.1,211.36133 0,5.1987 4.10875,0 0,-0.4562 -3.6525,0 0,-2.0038 3.3475,0 0,-0.4562 -3.3475,0 0,-1.8263 3.5,0 0,-0.4562 -3.95625,0 z"
id="path3055"
style="fill:#000000;fill-opacity:1;fill-rule:nonzero;stroke:none" />
<path
d="m 124.13763,213.64413 3.60125,0 0,-2.2825 0.45625,0 0,5.1988 -0.45625,0 0,-2.4601 -3.60125,0 0,2.4601 -0.45625,0 0,-5.1988 0.45625,0 0,2.2825 z"
id="path3059"
style="fill:#000000;fill-opacity:1;fill-rule:nonzero;stroke:none" />
<path
d="m 129.62225,211.37053 3.53125,4.4837 -0.002,-4.4925 0.465,0 0,5.1988 -0.4625,0 -3.59625,-4.5812 0.001,4.5775 -0.4575,0 0,-5.1988 0.52125,0.01 z"
id="path3063"
style="fill:#000000;fill-opacity:1;fill-rule:nonzero;stroke:none" />
<path
d="m 140.58125,216.10433 0,-4.7425 -0.4575,0 0,5.1987 3.78,0 0,-0.4562 -3.3225,0 z"
id="path3067"
style="fill:#000000;fill-opacity:1;fill-rule:nonzero;stroke:none" />
<path
d="m 158.89225,211.36013 -2.18875,3.0412 0.005,2.1588 -0.455,0 -0.001,-2.18 -2.18375,-3.02 0.5325,0 1.87875,2.6087 1.88,-2.6087 0.5325,0 z"
id="path3071"
style="fill:#000000;fill-opacity:1;fill-rule:nonzero;stroke:none" />
<path
d="m 134.78025,213.94133 c 0,-1.1912 0.80125,-2.1575 2.06875,-2.1575 1.26625,0 2.07,0.9663 2.07,2.1575 0,1.1925 -0.80375,2.1588 -2.07,2.1588 -1.2675,0 -2.06875,-0.9613 -2.06875,-2.1551 l -0.45375,0 c 0,1.4288 1.00375,2.5813 2.5225,2.5813 1.5175,0 2.5225,-1.1562 2.5225,-2.585 0,-1.4275 -1.005,-2.585 -2.5225,-2.585 -1.51875,0 -2.5225,1.1575 -2.5225,2.585"
id="path3079"
style="fill:#000000;fill-opacity:1;fill-rule:nonzero;stroke:none" />
<path
d="m 144.14,213.94133 c 0,-1.1912 0.8025,-2.1575 2.0675,-2.1575 1.26875,0 2.07125,0.9663 2.07125,2.1575 0,1.1925 -0.8025,2.1588 -2.07125,2.1588 -1.265,0 -2.0675,-0.9613 -2.0675,-2.1551 l -0.45375,0 c 0,1.4288 1.005,2.5813 2.52125,2.5813 1.51875,0 2.525,-1.1562 2.525,-2.585 0,-1.4275 -1.00625,-2.585 -2.525,-2.585 -1.51625,0 -2.52125,1.1575 -2.52125,2.585"
id="path3083"
style="fill:#000000;fill-opacity:1;fill-rule:nonzero;stroke:none" />
<path
d="m 149.37075,213.94313 c 0,1.4288 1.005,2.5838 2.52375,2.5838 0.915,0 1.6425,-0.4188 2.0775,-1.0663 l -0.002,1.0737 0.45625,0 0,-2.5862 -2.23125,0 0,0.4562 1.7275,0 c -0.18,0.9713 -0.92875,1.6963 -2.0275,1.6963 -1.2675,0 -2.07,-0.9637 -2.07,-2.1575 0,-1.1912 0.8025,-2.1588 2.07,-2.1588 0.9125,0 1.585,0.5026 1.88875,1.2288 l 0.48,0 c -0.335,-0.9674 -1.20125,-1.6524 -2.36875,-1.6524 -1.51875,0 -2.52375,1.1587 -2.52375,2.5862"
id="path3087"
style="fill:#000000;fill-opacity:1;fill-rule:nonzero;stroke:none" />
<path
d="m 122.32663,214.70913 c -0.2725,0.8038 -0.97125,1.3912 -1.94375,1.3912 -1.2675,0 -2.0675,-0.9637 -2.0675,-2.1575 0,-1.1912 0.8,-2.1587 2.0675,-2.1587 1.03625,0 1.76125,0.645 1.9925,1.5325 l 0.46375,0 c -0.2475,-1.1262 -1.16625,-1.9612 -2.45625,-1.9612 -1.5175,0 -2.5225,1.1587 -2.5225,2.5862 0,1.4288 1.005,2.5838 2.5225,2.5838 1.23375,0 2.12875,-0.7637 2.42,-1.8162 l -0.47625,0 z"
id="path3091"
style="fill:#000000;fill-opacity:1;fill-rule:nonzero;stroke:none" />
</g>
</g>
</g>
</svg>
