<svg viewBox="0 0 512 512" xmlns="http://www.w3.org/2000/svg"><text x="729.64" y="231.36"><tspan x="729.64" y="231.36"/></text><text transform="scale(4.0128 .2492)" x="378.91" y="579.26"/><text x="1310.91" y="151.36"><tspan x="1310.91" y="151.36"/></text><text transform="scale(4.0128 .2492)" x="523.76" y="258.22"/><text x="239.33" y="-29.9"><tspan x="239.33" y="-29.9"/></text><text transform="scale(4.0128 .2492)" x="256.72" y="-469.13"/><text x="1337.38" y="-246.37"><tspan x="1337.38" y="-246.37"/></text><text transform="scale(4.0128 .2492)" x="530.36" y="-1337.8"/><text x="1918.65" y="-326.37"><tspan x="1918.65" y="-326.37"/></text><text transform="scale(4.0128 .2492)" x="675.21" y="-1658.83"/><text x="1529.53" y="-798.77"><tspan x="1529.53" y="-798.77"/></text><text transform="scale(4.0128 .2492)" x="578.24" y="-3554.48"/><text x="2110.79" y="-878.78"><tspan x="2110.79" y="-878.78"/></text><text transform="scale(4.0128 .2492)" x="723.09" y="-3875.52"/><text x="277.99" y="535.94"><tspan x="277.99" y="535.94"/></text><text x="729.64" y="231.36"><tspan x="729.64" y="231.36"/></text><text transform="scale(4.0128 .2492)" x="378.91" y="579.26"/><text x="1310.91" y="151.36"><tspan x="1310.91" y="151.36"/></text><text transform="scale(4.0128 .2492)" x="523.76" y="258.22"/><text x="239.33" y="-29.9"><tspan x="239.33" y="-29.9"/></text><text transform="scale(4.0128 .2492)" x="256.72" y="-469.13"/><text x="1337.38" y="-246.37"><tspan x="1337.38" y="-246.37"/></text><text transform="scale(4.0128 .2492)" x="530.36" y="-1337.8"/><text x="1918.65" y="-326.37"><tspan x="1918.65" y="-326.37"/></text><text transform="scale(4.0128 .2492)" x="675.21" y="-1658.83"/><text x="1529.53" y="-798.77"><tspan x="1529.53" y="-798.77"/></text><text transform="scale(4.0128 .2492)" x="578.24" y="-3554.48"/><text x="2110.79" y="-878.78"><tspan x="2110.79" y="-878.78"/></text><text transform="scale(4.0128 .2492)" x="723.09" y="-3875.52"/><text x="277.99" y="535.94"><tspan x="277.99" y="535.94"/></text><text x="729.64" y="231.36"><tspan x="729.64" y="231.36"/></text><text transform="scale(4.0128 .2492)" x="378.91" y="579.26"/><text x="1310.91" y="151.36"><tspan x="1310.91" y="151.36"/></text><text transform="scale(4.0128 .2492)" x="523.76" y="258.22"/><text x="239.33" y="-29.9"><tspan x="239.33" y="-29.9"/></text><text transform="scale(4.0128 .2492)" x="256.72" y="-469.13"/><text x="1337.38" y="-246.37"><tspan x="1337.38" y="-246.37"/></text><text transform="scale(4.0128 .2492)" x="530.36" y="-1337.8"/><text x="1918.65" y="-326.37"><tspan x="1918.65" y="-326.37"/></text><text transform="scale(4.0128 .2492)" x="675.21" y="-1658.83"/><text x="1529.53" y="-798.77"><tspan x="1529.53" y="-798.77"/></text><text transform="scale(4.0128 .2492)" x="578.24" y="-3554.48"/><text x="2110.79" y="-878.78"><tspan x="2110.79" y="-878.78"/></text><text transform="scale(4.0128 .2492)" x="723.09" y="-3875.52"/><text x="277.99" y="535.94"><tspan x="277.99" y="535.94"/></text><text x="13.421" y="260.32"><tspan x="13.421" y="260.32"/></text><text transform="scale(4.0128 .2492)" x="200.43" y="695.45"/><text x="594.69" y="180.32"><tspan x="594.69" y="180.32"/></text><text transform="scale(4.0128 .2492)" x="345.27" y="374.43"/><text x="-476.89" y="-.942"><tspan x="-476.89" y="-.942"/></text><text transform="scale(4.0128 .2492)" x="78.24" y="-352.93"/><text x="621.16" y="-217.41"><tspan x="621.16" y="-217.41"/></text><text transform="scale(4.0128 .2492)" x="351.87" y="-1221.6"/><text x="1202.43" y="-297.42"><tspan x="1202.43" y="-297.42"/></text><text transform="scale(4.0128 .2492)" x="496.72" y="-1542.63"/><text x="813.31" y="-769.82"><tspan x="813.31" y="-769.82"/></text><text transform="scale(4.0128 .2492)" x="399.75" y="-3438.29"/><text x="1394.57" y="-849.82"><tspan x="1394.57" y="-849.82"/></text><text transform="scale(4.0128 .2492)" x="544.6" y="-3759.31"/><text x="-438.23" y="564.9"><tspan x="-438.23" y="564.9"/></text><text x="13.421" y="260.32"><tspan x="13.421" y="260.32"/></text><text transform="scale(4.0128 .2492)" x="200.43" y="695.45"/><text x="594.69" y="180.32"><tspan x="594.69" y="180.32"/></text><text transform="scale(4.0128 .2492)" x="345.27" y="374.43"/><text x="-476.89" y="-.942"><tspan x="-476.89" y="-.942"/></text><text transform="scale(4.0128 .2492)" x="78.24" y="-352.93"/><text x="621.16" y="-217.41"><tspan x="621.16" y="-217.41"/></text><text transform="scale(4.0128 .2492)" x="351.87" y="-1221.59"/><text x="1202.43" y="-297.42"><tspan x="1202.43" y="-297.42"/></text><text transform="scale(4.0128 .2492)" x="496.72" y="-1542.62"/><text x="813.31" y="-769.82"><tspan x="813.31" y="-769.82"/></text><text transform="scale(4.0128 .2492)" x="399.75" y="-3438.27"/><text x="1394.57" y="-849.82"><tspan x="1394.57" y="-849.82"/></text><text transform="scale(4.0128 .2492)" x="544.6" y="-3759.29"/><text x="-438.23" y="564.9"><tspan x="-438.23" y="564.9"/></text><text x="729.64" y="231.36"><tspan x="729.64" y="231.36"/></text><text transform="scale(4.0128 .2492)" x="378.91" y="579.26"/><text x="1310.91" y="151.36"><tspan x="1310.91" y="151.36"/></text><text transform="scale(4.0128 .2492)" x="523.76" y="258.22"/><text x="239.33" y="-29.9"><tspan x="239.33" y="-29.9"/></text><text transform="scale(4.0128 .2492)" x="256.72" y="-469.13"/><text x="1337.38" y="-246.37"><tspan x="1337.38" y="-246.37"/></text><text transform="scale(4.0128 .2492)" x="530.36" y="-1337.79"/><text x="1918.65" y="-326.37"><tspan x="1918.65" y="-326.37"/></text><text transform="scale(4.0128 .2492)" x="675.21" y="-1658.82"/><text x="1529.53" y="-798.77"><tspan x="1529.53" y="-798.77"/></text><text transform="scale(4.0128 .2492)" x="578.24" y="-3554.46"/><text x="2110.79" y="-878.78"><tspan x="2110.79" y="-878.78"/></text><text transform="scale(4.0128 .2492)" x="723.09" y="-3875.5"/><text x="277.99" y="535.94"><tspan x="277.99" y="535.94"/></text><text x="729.64" y="231.36"><tspan x="729.64" y="231.36"/></text><text transform="scale(4.0128 .2492)" x="378.91" y="579.26"/><text x="1310.91" y="151.36"><tspan x="1310.91" y="151.36"/></text><text transform="scale(4.0128 .2492)" x="523.76" y="258.22"/><text x="239.33" y="-29.9"><tspan x="239.33" y="-29.9"/></text><text transform="scale(4.0128 .2492)" x="256.72" y="-469.13"/><text x="1337.38" y="-246.37"><tspan x="1337.38" y="-246.37"/></text><text transform="scale(4.0128 .2492)" x="530.36" y="-1337.8"/><text x="1918.65" y="-326.37"><tspan x="1918.65" y="-326.37"/></text><text transform="scale(4.0128 .2492)" x="675.21" y="-1658.83"/><text x="1529.53" y="-798.77"><tspan x="1529.53" y="-798.77"/></text><text transform="scale(4.0128 .2492)" x="578.24" y="-3554.48"/><text x="2110.79" y="-878.78"><tspan x="2110.79" y="-878.78"/></text><text transform="scale(4.0128 .2492)" x="723.09" y="-3875.52"/><text x="277.99" y="535.94"><tspan x="277.99" y="535.94"/></text><text x="729.64" y="231.36"><tspan x="729.64" y="231.36"/></text><text transform="scale(4.0128 .2492)" x="378.91" y="579.26"/><text x="1310.91" y="151.36"><tspan x="1310.91" y="151.36"/></text><text transform="scale(4.0128 .2492)" x="523.76" y="258.22"/><text x="239.33" y="-29.9"><tspan x="239.33" y="-29.9"/></text><text transform="scale(4.0128 .2492)" x="256.72" y="-469.13"/><text x="1337.38" y="-246.37"><tspan x="1337.38" y="-246.37"/></text><text transform="scale(4.0128 .2492)" x="530.36" y="-1337.8"/><text x="1918.65" y="-326.37"><tspan x="1918.65" y="-326.37"/></text><text transform="scale(4.0128 .2492)" x="675.21" y="-1658.83"/><text x="1529.53" y="-798.77"><tspan x="1529.53" y="-798.77"/></text><text transform="scale(4.0128 .2492)" x="578.24" y="-3554.48"/><text x="2110.79" y="-878.78"><tspan x="2110.79" y="-878.78"/></text><text transform="scale(4.0128 .2492)" x="723.09" y="-3875.52"/><text x="277.99" y="535.94"><tspan x="277.99" y="535.94"/></text><text x="13.421" y="260.32"><tspan x="13.421" y="260.32"/></text><text transform="scale(4.0128 .2492)" x="200.43" y="695.45"/><text x="594.69" y="180.32"><tspan x="594.69" y="180.32"/></text><text transform="scale(4.0128 .2492)" x="345.27" y="374.43"/><text x="-476.89" y="-.942"><tspan x="-476.89" y="-.942"/></text><text transform="scale(4.0128 .2492)" x="78.24" y="-352.93"/><text x="621.16" y="-217.41"><tspan x="621.16" y="-217.41"/></text><text transform="scale(4.0128 .2492)" x="351.87" y="-1221.6"/><text x="1202.43" y="-297.42"><tspan x="1202.43" y="-297.42"/></text><text transform="scale(4.0128 .2492)" x="496.72" y="-1542.63"/><text x="813.31" y="-769.82"><tspan x="813.31" y="-769.82"/></text><text transform="scale(4.0128 .2492)" x="399.75" y="-3438.29"/><text x="1394.57" y="-849.82"><tspan x="1394.57" y="-849.82"/></text><text transform="scale(4.0128 .2492)" x="544.6" y="-3759.31"/><text x="-438.23" y="564.9"><tspan x="-438.23" y="564.9"/></text><text x="13.421" y="260.32"><tspan x="13.421" y="260.32"/></text><text transform="scale(4.0128 .2492)" x="200.43" y="695.45"/><text x="594.69" y="180.32"><tspan x="594.69" y="180.32"/></text><text transform="scale(4.0128 .2492)" x="345.27" y="374.43"/><text x="-476.89" y="-.942"><tspan x="-476.89" y="-.942"/></text><text transform="scale(4.0128 .2492)" x="78.24" y="-352.93"/><text x="621.16" y="-217.41"><tspan x="621.16" y="-217.41"/></text><text transform="scale(4.0128 .2492)" x="351.87" y="-1221.59"/><text x="1202.43" y="-297.42"><tspan x="1202.43" y="-297.42"/></text><text transform="scale(4.0128 .2492)" x="496.72" y="-1542.62"/><text x="813.31" y="-769.82"><tspan x="813.31" y="-769.82"/></text><text transform="scale(4.0128 .2492)" x="399.75" y="-3438.27"/><text x="1394.57" y="-849.82"><tspan x="1394.57" y="-849.82"/></text><text transform="scale(4.0128 .2492)" x="544.6" y="-3759.29"/><text x="-438.23" y="564.9"><tspan x="-438.23" y="564.9"/></text><g fill-rule="evenodd"><path d="m471.95 253.05c0 120.9-98.01 218.91-218.91 218.91s-218.91-98.01-218.91-218.91 98.01-218.91 218.91-218.91 218.91 98.01 218.91 218.91" fill="#3976c4"/><path d="m256 1c-140.83 0-255 114.17-255 255s114.17 255 255 255 255-114.17 255-255-114.17-255-255-255m8.827 44.931c120.9 0 218.9 98 218.9 218.9s-98 218.9-218.9 218.9-218.93-98-218.93-218.9 98.03-218.9 218.93-218.9" fill-opacity=".067"/><g fill-opacity=".129"><path d="m256 4.43c-138.94 0-251.57 112.63-251.57 251.57s112.63 251.57 251.57 251.57 251.57-112.63 251.57-251.57-112.63-251.57-251.57-251.57m5.885 38.556c120.9 0 218.9 98 218.9 218.9s-98 218.9-218.9 218.9-218.93-98-218.93-218.9 98.03-218.9 218.93-218.9"/><path d="m256 8.36c-136.77 0-247.64 110.87-247.64 247.64s110.87 247.64 247.64 247.64 247.64-110.87 247.64-247.64-110.87-247.64-247.64-247.64m2.942 31.691c120.9 0 218.9 98 218.9 218.9s-98 218.9-218.9 218.9-218.93-98-218.93-218.9 98.03-218.9 218.93-218.9"/></g><path d="m253.04 7.86c-135.42 0-245.19 109.78-245.19 245.19 0 135.42 109.78 245.19 245.19 245.19 135.42 0 245.19-109.78 245.19-245.19 0-135.42-109.78-245.19-245.19-245.19m0 26.297c120.9 0 218.9 98 218.9 218.9s-98 218.9-218.9 218.9-218.93-98-218.93-218.9 98.03-218.9 218.93-218.9z" fill="#fff" stroke="#000" stroke-opacity=".31" stroke-width="4.904"/></g><text x="729.64" y="231.36"><tspan x="729.64" y="231.36"/></text><text transform="scale(4.0128 .2492)" x="378.91" y="579.26"/><text x="1310.91" y="151.36"><tspan x="1310.91" y="151.36"/></text><text transform="scale(4.0128 .2492)" x="523.76" y="258.22"/><text x="239.33" y="-29.9"><tspan x="239.33" y="-29.9"/></text><text transform="scale(4.0128 .2492)" x="256.72" y="-469.13"/><text x="1337.38" y="-246.37"><tspan x="1337.38" y="-246.37"/></text><text transform="scale(4.0128 .2492)" x="530.36" y="-1337.8"/><text x="1918.65" y="-326.37"><tspan x="1918.65" y="-326.37"/></text><text transform="scale(4.0128 .2492)" x="675.21" y="-1658.83"/><text x="1529.53" y="-798.77"><tspan x="1529.53" y="-798.77"/></text><text transform="scale(4.0128 .2492)" x="578.24" y="-3554.48"/><text x="2110.79" y="-878.78"><tspan x="2110.79" y="-878.78"/></text><text transform="scale(4.0128 .2492)" x="723.09" y="-3875.52"/><text x="277.99" y="535.94"><tspan x="277.99" y="535.94"/></text><text x="13.421" y="260.32"><tspan x="13.421" y="260.32"/></text><text transform="scale(4.0128 .2492)" x="200.43" y="695.45"/><text x="594.69" y="180.32"><tspan x="594.69" y="180.32"/></text><text transform="scale(4.0128 .2492)" x="345.27" y="374.43"/><text x="-476.89" y="-.942"><tspan x="-476.89" y="-.942"/></text><text transform="scale(4.0128 .2492)" x="78.24" y="-352.93"/><text x="621.16" y="-217.41"><tspan x="621.16" y="-217.41"/></text><text transform="scale(4.0128 .2492)" x="351.87" y="-1221.6"/><text x="1202.43" y="-297.42"><tspan x="1202.43" y="-297.42"/></text><text transform="scale(4.0128 .2492)" x="496.72" y="-1542.63"/><text x="813.31" y="-769.82"><tspan x="813.31" y="-769.82"/></text><text transform="scale(4.0128 .2492)" x="399.75" y="-3438.29"/><text x="1394.57" y="-849.82"><tspan x="1394.57" y="-849.82"/></text><text transform="scale(4.0128 .2492)" x="544.6" y="-3759.31"/><text x="-438.23" y="564.9"><tspan x="-438.23" y="564.9"/></text><text x="13.421" y="260.32"><tspan x="13.421" y="260.32"/></text><text transform="scale(4.0128 .2492)" x="200.43" y="695.45"/><text x="594.69" y="180.32"><tspan x="594.69" y="180.32"/></text><text transform="scale(4.0128 .2492)" x="345.27" y="374.43"/><text x="-476.89" y="-.942"><tspan x="-476.89" y="-.942"/></text><text transform="scale(4.0128 .2492)" x="78.24" y="-352.93"/><text x="621.16" y="-217.41"><tspan x="621.16" y="-217.41"/></text><text transform="scale(4.0128 .2492)" x="351.87" y="-1221.59"/><text x="1202.43" y="-297.42"><tspan x="1202.43" y="-297.42"/></text><text transform="scale(4.0128 .2492)" x="496.72" y="-1542.62"/><text x="813.31" y="-769.82"><tspan x="813.31" y="-769.82"/></text><text transform="scale(4.0128 .2492)" x="399.75" y="-3438.27"/><text x="1394.57" y="-849.82"><tspan x="1394.57" y="-849.82"/></text><text transform="scale(4.0128 .2492)" x="544.6" y="-3759.29"/><text x="-438.23" y="564.9"><tspan x="-438.23" y="564.9"/></text><g fill-rule="evenodd"><path d="m130.8 114.88c-.307 8.335-.131 16.683-.178 25.02l38.432 38.432v191.7c-12.705.105-25.412.209-38.12.314-.052 8.662-.451 17.334-.039 25.988l69.14 69.14c16.973 4.221 34.725 6.475 53 6.475 108.05 0 197.81-78.29 215.67-181.24l-151.77-151.77c-1.034-1.034-2.111-2.036-3.232-3-21.13-17.823-50-22.13-76.81-20.594-30.06 1.22-60.25 8.844-90.29 2.668-5.317-.81-10.553-2.039-15.813-3.143" opacity=".25"/><path d="m130.8 114.89c-.307 8.335-.131 16.683-.177 25.02 12.814 1.559 25.649 2.957 38.431 4.765v225.37c-12.705.105-25.411.21-38.12.315-.052 8.662-.452 17.333-.039 25.988 32.28 1.476 64.68.339 97.02.521l15.165-.048c.101-8.919.213-17.837.335-26.756h-44.751v-101.43h45.32c28.468 42.684 56.634 85.57 85.47 128.01 17.309.375 34.626-.171 51.937-.295-.122-8.663-.234-17.325-.335-25.988-11.34-.114-22.681-.239-34.02-.374-23.578-35.25-47.772-70.08-71.25-105.39 8.592-4.823 19.07-7.394 27.28-13.543 38.454-23.4 45.05-85.38 10.644-115.1-21.13-17.823-50-22.13-76.81-20.593-30.06 1.22-60.25 8.844-90.29 2.668-5.316-.81-10.553-2.039-15.812-3.142m113.56 26.48c21.335-.543 46.893 5.677 56.47 26.973 9.975 21.886 3.645 52-18.938 63.4-25.11 14.86-54.971 10.675-82.85 11.808-.891-6.271-.126-14.219-.381-21.13.083-25.97-.268-51.953.473-77.911 15.02-1.67 30.11-2.891 45.22-3.13" fill="#fff"/></g></svg>