<?xml version="1.0" encoding="utf-8"?>
<!-- Generator: Adobe Illustrator 19.0.0, SVG Export Plug-In . SVG Version: 6.00 Build 0)  -->
<svg version="1.1" id="layer" xmlns="http://www.w3.org/2000/svg" xmlns:xlink="http://www.w3.org/1999/xlink" x="0px" y="0px"
	 viewBox="-153 -46 652 652" style="enable-background:new -153 -46 652 652;" xml:space="preserve">
<style type="text/css">
	.st0{fill:#FF4655;}
	.st1{fill:#111111;}
</style>
<rect x="-81" y="25" class="st0" width="500" height="500"/>
<g>
	<g>
		<path class="st1" d="M269,225.5v-77.8c0-1.2-1.5-1.7-2.3-0.8l-85,106.2c-0.7,0.8-0.1,2.1,1,2.1h61.4c1.7,0,3.2-0.8,4.2-2.1
			l19.4-24.2C268.5,228,269,226.8,269,225.5L269,225.5z M70.2,229l63.8,79.8c1,1.3,2.6,2,4.3,2h61.4c1.1,0,1.7-1.2,1-2L71.2,147
			c-0.8-0.9-2.3-0.4-2.3,0.8v77.8C69,226.8,69.4,228,70.2,229L70.2,229z M70.2,229"/>
	</g>
</g>
<g>
	<path class="st1" d="M325.4,357.5h14.3l0,43.8c0,0.6,0.5,1,1,1l8.2,0c0.6,0,1-0.5,1-1l0-43.8h18c0.5,0,0.8-0.6,0.5-1l-6.2-7.7
		c-0.5-0.6-1.3-1-2.1-1h-34.8c-0.6,0-1,0.5-1,1v7.7C324.4,357,324.8,357.5,325.4,357.5 M-20.3,401.4l42-52.6c0.3-0.4,0-1-0.5-1H10.8
		c-0.8,0-1.6,0.4-2.1,1l-29.8,37.3v-37.3c0-0.6-0.5-1-1-1h-8.2c-0.6,0-1,0.5-1,1v52.6c0,0.6,0.5,1,1,1h8
		C-21.6,402.4-20.8,402-20.3,401.4 M9.4,401.4l14.4-18.1l14.5,18.1c0.5,0.6,1.3,1,2.1,1h8c0.6,0,1-0.5,1-1v-52.6c0-0.6-0.5-1-1-1
		h-6.7c-1.6,0-3.2,0.7-4.2,2l-41.2,51.6c-0.3,0.4,0,1,0.5,1H7.2C8.1,402.4,8.8,402,9.4,401.4 M39.2,363v24.2l-9.7-12.1L39.2,363z
		 M273.7,401.4l-42-52.6c-0.5-0.6-1.3-1-2.1-1h-8c-0.6,0-1,0.5-1,1v52.6c0,0.6,0.5,1,1,1h8c0.8,0,1.6-0.4,2.1-1l14.5-18.1l14.4,18.1
		c0.5,0.6,1.3,1,2.1,1h10.5C273.8,402.4,274.1,401.8,273.7,401.4 M240.5,375.1l-9.7,12.1V363L240.5,375.1z M124.9,346.4
		c-15.8,0-28.7,12.8-28.7,28.7c0,15.8,12.8,28.7,28.7,28.7c15.8,0,28.7-12.8,28.7-28.7C153.6,359.2,140.7,346.4,124.9,346.4
		 M124.9,394c-10.2,0-18.4-8.5-18.4-18.9c0-10.5,8.2-18.9,18.4-18.9c10.2,0,18.4,8.5,18.4,18.9C143.3,385.5,135.1,394,124.9,394
		 M307,348.8v37.3l-29.8-37.3c-0.5-0.6-1.3-1-2.1-1h-8c-0.6,0-1,0.5-1,1v25.3c0,0.6,0.2,1.2,0.6,1.7l8.5,10.7
		c0.4,0.5,1.1,0.2,1.1-0.4v-22l29.8,37.3c0.5,0.6,1.3,1,2.1,1h8c0.6,0,1-0.5,1-1v-52.6c0-0.6-0.5-1-1-1H308
		C307.5,347.8,307,348.2,307,348.8 M206.8,360.2v-11.4c0-0.6-0.5-1-1-1h-42c-0.6,0-1,0.5-1,1v52.6c0,0.6,0.5,1,1,1h8.2
		c0.6,0,1-0.5,1-1v-43.8h23.5l-15.9,19.9c-0.3,0.4-0.3,0.9,0,1.3l18.1,22.7c0.5,0.6,1.3,1,2.1,1h10.5c0.5,0,0.8-0.6,0.5-1L193.3,378
		l12.9-16.2C206.6,361.4,206.8,360.8,206.8,360.2 M62.8,402.4h24.3c0.8,0,1.6-0.4,2.1-1l6.1-7.7c0.3-0.4,0-1-0.5-1H72v-43.8
		c0-0.6-0.5-1-1-1h-8.2c-0.6,0-1,0.5-1,1v52.6C61.8,401.9,62.2,402.4,62.8,402.4"/>
</g>
</svg>
