<?xml version="1.0" encoding="UTF-8" standalone="no"?>
<!-- Created with Inkscape (http://www.inkscape.org/) -->

<svg
   xmlns:dc="http://purl.org/dc/elements/1.1/"
   xmlns:cc="http://creativecommons.org/ns#"
   xmlns:rdf="http://www.w3.org/1999/02/22-rdf-syntax-ns#"
   xmlns:svg="http://www.w3.org/2000/svg"
   xmlns="http://www.w3.org/2000/svg"
   xmlns:sodipodi="http://sodipodi.sourceforge.net/DTD/sodipodi-0.dtd"
   xmlns:inkscape="http://www.inkscape.org/namespaces/inkscape"
   id="svg3404"
   version="1.1"
   inkscape:version="0.91 r13725"
   xml:space="preserve"
   width="383.37503"
   height="111.56647"
   viewBox="0 0 383.37503 111.56648"
   sodipodi:docname="logos®.svg"><metadata
     id="metadata3410"><rdf:RDF><cc:Work
         rdf:about=""><dc:format>image/svg+xml</dc:format><dc:type
           rdf:resource="http://purl.org/dc/dcmitype/StillImage" /><dc:title></dc:title></cc:Work></rdf:RDF></metadata><defs
     id="defs3408" /><sodipodi:namedview
     pagecolor="#ffffff"
     bordercolor="#666666"
     borderopacity="1"
     objecttolerance="10"
     gridtolerance="10"
     guidetolerance="10"
     inkscape:pageopacity="0"
     inkscape:pageshadow="2"
     inkscape:window-width="1261"
     inkscape:window-height="741"
     id="namedview3406"
     showgrid="false"
     inkscape:zoom="0.89702957"
     inkscape:cx="174.39832"
     inkscape:cy="111.13772"
     inkscape:window-x="83"
     inkscape:window-y="31"
     inkscape:window-maximized="0"
     inkscape:current-layer="g3412"
     fit-margin-top="0"
     fit-margin-left="0"
     fit-margin-right="0"
     fit-margin-bottom="0" /><g
     id="g3412"
     inkscape:groupmode="layer"
     inkscape:label="logos"
     transform="matrix(1.25,0,0,-1.25,-197.64892,489.84864)"><path
       d="m 239.95801,374.00586 c 0,5.49316 -4.46387,9.96289 -9.95215,9.96289 l -47.86816,0 c -5.48731,0 -9.95215,-4.46973 -9.95215,-9.96289 l 0,-45.31543 c 0,-5.49316 4.46484,-9.96289 9.95215,-9.96289 l 47.86816,0 c 5.48828,0 9.95215,4.46973 9.95215,9.96289 l 0,45.31543 z"
       style="fill:#000000;fill-opacity:1;fill-rule:nonzero;stroke:none"
       id="path3414"
       inkscape:connector-curvature="0" /><path
       d="m 237.94922,328.69043 c 0,-4.38379 -3.56445,-7.95117 -7.94336,-7.95117 l -47.86816,0 c -4.37989,0 -7.94239,3.56738 -7.94239,7.95117 l 0,45.31543 c 0,4.38379 3.5625,7.95117 7.94239,7.95117 l 47.86816,0 c 4.37891,0 7.94336,-3.56738 7.94336,-7.95117 l 0,-45.31543 z"
       style="fill:#ffffff;fill-opacity:1;fill-rule:nonzero;stroke:none"
       id="path3418"
       inkscape:connector-curvature="0" /><path
       d="m 230.47266,357.96094 c 0,-4.32227 -3.50196,-7.82422 -7.82032,-7.82422 l -33.63671,0 c -4.32032,0 -7.82227,3.50195 -7.82227,7.82422 l 0,25.21582 c 0,4.32031 3.50195,7.82324 7.82227,7.82324 l 33.63671,0 c 4.31836,0 7.82032,-3.50293 7.82032,-7.82324 l 0,-25.21582 z"
       style="fill:#ff3300;fill-opacity:1;fill-rule:nonzero;stroke:none"
       id="path3420"
       inkscape:connector-curvature="0" /><path
       d="m 230.14844,357.96094 c 0,-1.85547 -0.7334,-3.59961 -2.06641,-4.91211 -1.33203,-1.31153 -3.10351,-2.0332 -4.98828,-2.0332 l -34.18555,0 c -3.8916,0 -7.05664,3.11523 -7.05664,6.94531 l 0,25.21582 c 0,3.8291 3.16504,6.94433 7.05664,6.94433 l 34.18555,0 c 3.8916,0 7.05469,-3.11523 7.05469,-6.94433 l 0,-25.21582 m 1.78711,25.21582 c 0,4.79785 -3.9668,8.70215 -8.8418,8.70215 l -34.18555,0 c -4.87695,0 -8.84375,-3.9043 -8.84375,-8.70215 l 0,-25.21582 c 0,-4.79883 3.9668,-8.70313 8.84375,-8.70313 l 34.18555,0 c 2.36133,0 4.58203,0.90528 6.25098,2.54883 1.6709,1.64356 2.59082,3.8291 2.59082,6.1543 l 0,25.21582 z"
       style="fill:#000000;fill-opacity:1;fill-rule:nonzero;stroke:none"
       id="path3422"
       inkscape:connector-curvature="0" /><path
       d="m 252.66602,331.90723 c 0,-4.94532 -2.69141,-8.95703 -9.32032,-8.95703 l -75.02539,0 c -6.62988,0 -9.32031,4.01171 -9.32031,8.95703 l 0,25.3789 c 0,4.94727 2.69043,8.95606 9.32031,8.95606 l 75.02539,0 c 6.62891,0 9.32032,-4.00879 9.32032,-8.95606 l 0,-25.3789 z"
       style="fill:#ffffff;fill-opacity:1;fill-rule:nonzero;stroke:none"
       id="path3424"
       inkscape:connector-curvature="0" /><path
       d="m 251.9082,331.9502 c 0,-2.33106 -0.66015,-4.26758 -1.9082,-5.60254 -1.41797,-1.51563 -3.57617,-2.28321 -6.41797,-2.28321 l -75.12305,0 c -2.84179,0 -5.00195,0.76758 -6.41796,2.28321 -1.24707,1.33496 -1.90625,3.27148 -1.90625,5.60254 l 0,25.16796 c 0,2.94434 1.08007,7.88575 8.32421,7.88575 l 75.12305,0 c 7.24414,0 8.32617,-4.94141 8.32617,-7.88575 l 0,-25.16796 m 2.01368,25.16796 c 0,6.1875 -3.86524,9.87989 -10.33985,9.87989 l -75.12305,0 c -6.4746,0 -10.33984,-3.69239 -10.33984,-9.87989 l 0,-25.16796 c 0,-2.8418 0.84375,-5.24805 2.44336,-6.95801 1.81445,-1.94043 4.4707,-2.92285 7.89648,-2.92285 l 75.12305,0 c 3.42578,0 6.08203,0.98242 7.89453,2.92285 1.59961,1.70996 2.44532,4.11621 2.44532,6.95801 l 0,25.16796 z"
       style="fill:#000000;fill-opacity:1;fill-rule:nonzero;stroke:none"
       id="path3426"
       inkscape:connector-curvature="0" /><path
       d="m 238.75195,314.07617 c 0,-4.94726 -4.01367,-8.95801 -8.95703,-8.95801 l -47.92187,0 c -4.94629,0 -8.95703,4.01075 -8.95703,8.95801 l 0,13.33106 c 0,4.94726 4.01074,8.95703 8.95703,8.95703 l 47.92187,0 c 4.94336,0 8.95703,-4.00977 8.95703,-8.95703 l 0,-13.33106 z"
       style="fill:#ff3300;fill-opacity:1;fill-rule:nonzero;stroke:none"
       id="path3428"
       inkscape:connector-curvature="0" /><path
       d="m 237.75,314.07617 c 0,-4.38476 -3.55762,-7.95215 -7.93066,-7.95215 l -47.80371,0 c -4.37208,0 -7.92969,3.56739 -7.92969,7.95215 l 0,13.33106 c 0,4.38379 3.55761,7.95117 7.92969,7.95117 l 47.80371,0 c 4.37304,0 7.93066,-3.56738 7.93066,-7.95117 l 0,-13.33106 m 2.00781,13.33106 c 0,5.49316 -4.45898,9.96289 -9.93847,9.96289 l -47.80371,0 c -5.47852,0 -9.9375,-4.46973 -9.9375,-9.96289 l 0,-13.33106 c 0,-5.49414 4.45898,-9.96387 9.9375,-9.96387 l 47.80371,0 c 5.47949,0 9.93847,4.46973 9.93847,9.96387 l 0,13.33106 z"
       style="fill:#000000;fill-opacity:1;fill-rule:nonzero;stroke:none"
       id="path3430"
       inkscape:connector-curvature="0" /><path
       d="m 172.71875,327.30273 c 0,4.8379 4.02344,8.76368 8.98828,8.76368 l 48.08789,0 c 4.96387,0 8.98828,-3.92578 8.98828,-8.76368 l 0,-4.8164 c 1.52149,0.10156 1.54688,0.22363 3.06446,0.36426 l 0,7.96777 c 0,5.5332 -4.59766,10.02148 -10.27344,10.02148 l -51.22949,0 c -5.67481,0 -10.27637,-4.48828 -10.27637,-10.02148 l 0,-7.69043 c 1.63281,-0.0596 1.01758,-0.12793 2.65039,-0.19922 l 0,4.37402 z"
       style="fill:#000000;fill-opacity:1;fill-rule:nonzero;stroke:none"
       id="path3432"
       inkscape:connector-curvature="0" /><path
       d="m 174.30664,322.45801 c 0,0 4.70703,6.85351 13.68359,6.98535 13.64258,0.20019 23.10743,1.50977 36.51661,-0.38379 4.53222,-0.63965 8.64941,-4.01367 13.08691,-7.19922 0,0 2.73828,14.82715 -9.77441,13.87012 l -42.42871,0 c 0,0 -13.23047,1.55566 -11.08399,-13.27246 z"
       style="fill:#cc0000;fill-opacity:1;fill-rule:nonzero;stroke:none"
       id="path3434"
       inkscape:connector-curvature="0" /><path
       d="m 173.08105,365.57813 c 0,0 32.07325,-9.69922 65.50293,-0.167 l -65.50293,0.167 z"
       style="fill:#000000;fill-opacity:1;fill-rule:nonzero;stroke:none"
       id="path3436"
       inkscape:connector-curvature="0" /><path
       d="m 216.26953,351.06934 c 0.14649,0.20117 0.22461,0.40918 0.22461,0.62402 0,1.67969 -4.77246,3.04297 -10.66016,3.04297 -5.88867,0 -10.6621,-1.36328 -10.6621,-3.04297 0,-0.27246 0.12792,-0.53516 0.36132,-0.78613 6.91211,-0.0479 13.82422,-0.25977 20.73633,0.16211 z"
       style="fill:#cc0000;fill-opacity:1;fill-rule:nonzero;stroke:none"
       id="path3438"
       inkscape:connector-curvature="0" /><path
       d="m 195.5332,350.90723 c 1.21485,-1.29883 5.36524,-2.25684 10.30078,-2.25684 5.1377,0 9.42774,1.03906 10.43555,2.41895 -6.91211,-0.42188 -13.82422,-0.20996 -20.73633,-0.16211 z"
       style="fill:#ff3300;fill-opacity:1;fill-rule:nonzero;stroke:none"
       id="path3440"
       inkscape:connector-curvature="0" /><path
       d="m 231.94922,344.40625 c 0,-0.76562 -0.34961,-1.38574 -0.78027,-1.38574 l -50.37207,0 c -0.43165,0 -0.78028,0.62012 -0.78028,1.38574 l 0,0 c 0,0.7666 0.34863,1.38574 0.78028,1.38574 l 50.37207,0 c 0.43066,0 0.78027,-0.61914 0.78027,-1.38574 l 0,0 z"
       style="fill:#000000;fill-opacity:1;fill-rule:nonzero;stroke:none"
       id="path3442"
       inkscape:connector-curvature="0" /><path
       d="m 377.42578,330.16797 c 0.25195,2.375 0.44434,4.83008 0.57617,7.36621 0.13282,2.53516 0.2002,5.14453 0.2002,7.8291 0,2.42969 -0.0674,4.90039 -0.2002,7.4082 -0.13183,2.50782 -0.32422,5.04688 -0.57617,7.61719 l 5.69141,0 c 2.75781,0 4.78711,-0.0518 6.08203,-0.15722 1.29492,-0.1045 2.39844,-0.28223 3.31055,-0.53418 1.88964,-0.51758 3.36328,-1.50684 4.42187,-2.96875 1.05664,-1.46094 1.58594,-3.2461 1.58594,-5.35743 0,-3.25781 -1.1543,-5.75879 -3.46289,-7.49902 -2.3086,-1.74121 -5.63672,-2.61035 -9.98438,-2.61035 l -0.88769,0 c 0.0273,-2.12207 0.085,-4.10547 0.17285,-5.95508 0.0879,-1.84961 0.21289,-3.5625 0.375,-5.13867 l -7.30469,0 m 6.81836,15.60937 c 0.16699,-0.0146 0.34375,-0.0234 0.52734,-0.0312 0.18165,-0.008 0.46387,-0.0107 0.84473,-0.0107 2.22363,0 3.89551,0.44238 5.01465,1.33008 1.11719,0.88477 1.67773,2.20117 1.67773,3.94629 0,1.60449 -0.52539,2.81543 -1.57226,3.63379 -1.05078,0.81543 -2.61621,1.22461 -4.70117,1.22461 -0.33789,0 -0.87305,-0.0283 -1.60352,-0.083 l -0.10742,0 c -0.04,-2.15039 -0.0664,-3.99707 -0.0801,-5.54004 -0.0156,-1.54199 -0.0156,-3.03223 0,-4.46973 z"
       style="fill:#000000;fill-opacity:1;fill-rule:nonzero;stroke:none"
       id="path3462"
       inkscape:connector-curvature="0" /><path
       d="m 401.01172,330.16797 c 0.23437,2.40234 0.41601,4.87207 0.54101,7.4082 0.125,2.53516 0.1875,5.13184 0.1875,7.78711 0,2.58399 -0.0625,5.12305 -0.1875,7.61719 -0.125,2.49414 -0.30664,4.96289 -0.54101,7.4082 l 6.74805,0 c 2.83203,0 4.95898,-0.0879 6.38476,-0.26172 1.42188,-0.1748 2.71289,-0.45703 3.8711,-0.84863 2.67871,-0.9082 4.77539,-2.5498 6.28906,-4.9248 1.51367,-2.375 2.27148,-5.2334 2.27148,-8.57227 0,-2.85059 -0.53906,-5.36914 -1.61328,-7.55566 -1.07422,-2.18653 -2.67969,-4.02637 -4.81543,-5.52246 -1.31152,-0.92188 -2.93457,-1.57618 -4.86816,-1.95801 -1.9336,-0.38477 -4.93653,-0.57715 -9.01172,-0.57715 l -5.25586,0 m 7.10547,4.56055 c 0.13867,-0.0137 0.29883,-0.0244 0.48047,-0.0303 0.17968,-0.007 0.44531,-0.0107 0.79394,-0.0107 3.49512,0 6.14551,0.92383 7.9502,2.77246 1.80468,1.84863 2.70605,4.56641 2.70605,8.15137 0,3.39062 -0.8291,5.94043 -2.4873,7.64941 -1.65723,1.70899 -4.12305,2.56348 -7.39649,2.56348 -0.55664,0 -0.96777,-0.008 -1.23242,-0.0205 -0.26562,-0.0147 -0.50879,-0.0361 -0.73047,-0.0625 -0.084,-1.89844 -0.14648,-3.71094 -0.18945,-5.44141 -0.041,-1.73046 -0.0625,-3.39062 -0.0625,-4.98144 0,-1.85547 0.0137,-3.65527 0.043,-5.39941 0.0273,-1.74317 0.0684,-3.47364 0.125,-5.19043 z"
       style="fill:#000000;fill-opacity:1;fill-rule:nonzero;stroke:none"
       id="path3464"
       inkscape:connector-curvature="0" /><path
       d="m 429.52344,360.38867 16.88672,0 0.54589,-5.06738 c -1.2998,0.19238 -2.61425,0.33789 -3.94238,0.44043 -1.3291,0.10254 -2.64844,0.15332 -3.96289,0.15332 l -2.55273,0 0,0.20996 0,0.084 c 0,-0.22363 -0.0117,-1.02832 -0.0332,-2.41406 -0.0205,-1.38672 -0.0517,-3.38672 -0.0937,-6.00586 l 10.5,0 -0.8164,-4.88476 c -1.35742,0.17383 -2.72071,0.30273 -4.08985,0.38281 -1.36914,0.0781 -2.7539,0.12012 -4.15039,0.12012 l -1.44336,0 c 0.0156,-2.38477 0.0586,-4.68164 0.13575,-6.8916 0.0752,-2.20997 0.18164,-4.32618 0.32031,-6.34766 l -7.30371,0 c 0.20703,2.23535 0.36523,4.57519 0.47461,7.02148 0.11133,2.44532 0.16406,5.16797 0.16406,8.17383 0,2.76563 -0.0527,5.38477 -0.16406,7.8584 -0.10938,2.47266 -0.26758,4.8623 -0.47461,7.16699 z"
       style="fill:#000000;fill-opacity:1;fill-rule:nonzero;stroke:none"
       id="path3466"
       inkscape:connector-curvature="0" /><path
       d="m 266.16504,360.38867 7.41309,0 c 0.32226,-2.59765 0.90332,-5.81933 1.74218,-9.66015 0.83887,-3.84375 1.92969,-8.30762 3.27344,-13.39356 1.50977,4.95996 2.81445,9.36231 3.91309,13.2041 1.09668,3.84278 1.98925,7.12598 2.6748,9.84961 l 4.2168,0 c 0.54492,-2.59765 1.30761,-5.73437 2.28711,-9.40918 0.97851,-3.6748 2.25781,-8.18066 3.83886,-13.51855 1.16114,3.84277 2.17188,7.6748 3.03125,11.49511 0.86036,3.82129 1.57129,7.63282 2.12989,11.43262 l 6.83886,0 c -1.63574,-4.62402 -3.19238,-9.46582 -4.66699,-14.52246 -1.47656,-5.05859 -2.85547,-10.29101 -4.14355,-15.69824 l -6.44239,0 c -0.7832,3.25488 -1.62207,6.50781 -2.51562,9.75586 -0.89648,3.24805 -1.8457,6.50683 -2.85449,9.77637 -0.97949,-3.19922 -1.90918,-6.4209 -2.79004,-9.66211 -0.88086,-3.24121 -1.72852,-6.53125 -2.53906,-9.87012 l -6.62012,0 c -1.38379,5.9375 -2.81738,11.45019 -4.29981,16.53516 -1.48242,5.08691 -2.97754,9.64843 -4.4873,13.68554 z"
       style="fill:#000000;fill-opacity:1;fill-rule:nonzero;stroke:none"
       id="path3468"
       inkscape:connector-curvature="0" /><path
       d="m 316.06055,352.53711 c -0.1211,-1.42578 -0.21289,-3.01953 -0.27344,-4.7793 -0.0615,-1.76172 -0.0918,-3.67578 -0.0918,-5.74511 0,-1.95606 0.0303,-3.91309 0.0918,-5.87012 0.0606,-1.95703 0.15234,-3.89844 0.27344,-5.82813 l -6.39063,-0.0215 c 0.17481,1.88672 0.31055,3.76074 0.4043,5.61914 0.0957,1.85937 0.14355,3.68262 0.14355,5.4707 0,2.18164 -0.0625,4.14844 -0.18945,5.90235 -0.125,1.7539 -0.30371,3.34375 -0.54199,4.76953 1.00097,0.0137 2.04492,0.0596 3.13086,0.13769 1.08594,0.0762 2.23242,0.19043 3.44336,0.34473 m -2.69727,9.81641 c 0.98047,0 1.74219,-0.26758 2.29004,-0.80079 0.5459,-0.53125 0.81738,-1.28125 0.81738,-2.24804 0,-1.03614 -0.38476,-1.9375 -1.15332,-2.70117 -0.77148,-0.7627 -1.69433,-1.14454 -2.77148,-1.14454 -0.84082,0 -1.53027,0.3086 -2.06738,0.92383 -0.54102,0.61719 -0.8086,1.40235 -0.8086,2.35352 0,1.03808 0.34766,1.89941 1.04883,2.58594 0.69922,0.68554 1.58203,1.03125 2.64453,1.03125 z"
       style="fill:#000000;fill-opacity:1;fill-rule:nonzero;stroke:none"
       id="path3470"
       inkscape:connector-curvature="0" /><path
       d="m 342.11133,330.16797 -6.57324,0 c 0.16504,2.7959 0.28222,5.08887 0.35058,6.87891 0.0703,1.79003 0.10449,3.44628 0.10449,4.9707 0,2.09668 -0.29003,3.57617 -0.87011,4.43652 -0.58008,0.86035 -1.54883,1.29004 -2.90625,1.29004 -0.68555,0 -1.43067,-0.1084 -2.23633,-0.32617 -0.80469,-0.2168 -1.66016,-0.54102 -2.56836,-0.97461 l 0,-2.26465 c 0,-2.90918 0.0371,-5.51465 0.11328,-7.81348 0.0752,-2.2998 0.18848,-4.36523 0.3418,-6.19726 l -6.57324,0 c 0.19628,2.19433 0.3457,4.23242 0.44433,6.1123 0.0977,1.87989 0.14844,3.62403 0.14844,5.23243 0,2.23535 -0.0508,4.23828 -0.14844,6.00683 -0.0986,1.76856 -0.24805,3.28223 -0.44433,4.54004 0.78418,0.0127 1.57324,0.0518 2.36621,0.11426 0.79101,0.0625 1.55859,0.1582 2.30078,0.28418 l 1.05078,-3.14258 c 1.8457,1.12988 3.45508,1.95898 4.83203,2.48145 1.37695,0.52441 2.63086,0.78613 3.76172,0.78613 2.125,0 3.64062,-0.69629 4.5498,-2.08692 0.90821,-1.38867 1.36231,-3.76757 1.36231,-7.13574 l 0,-3.22949 c 0,-1.67871 0.0508,-3.3457 0.15332,-5.00195 0.10254,-1.65821 0.24902,-3.31153 0.44043,-4.96094 z"
       style="fill:#000000;fill-opacity:1;fill-rule:nonzero;stroke:none"
       id="path3472"
       inkscape:connector-curvature="0" /><path
       d="m 348.76563,326.00098 c 0,0 50.19335,-7.36524 64.32031,-22.05567 0.45117,-0.4707 1.63867,-1.5166 1.17969,-1.28711 -19.08985,9.52051 -33.80567,11.25196 -57.47657,13.21582 -13.98047,1.16114 -24.90625,0.86328 -32.7041,0.37012 l -0.59766,8.09277 c 1.64844,-0.0908 2.85059,-0.24121 3.59083,-0.46972 0.97167,0.13476 2.2871,0.15625 3.9375,0.0723 4.39062,0.2295 8.51855,1.52735 12.40429,3.89258 3.88281,2.36133 7.31055,5.36719 10.26563,9.0293 2.96093,3.66015 5.29883,7.51172 7.01269,11.54394 1.71582,4.03418 2.66309,7.69239 2.83301,10.96387 0.23828,4.45508 -0.64258,8.34961 -2.64355,11.70606 -2.00293,3.3457 -4.95997,5.13378 -8.87989,5.33691 -4.0332,-0.0644 -7.33789,-1.48926 -9.92187,-4.27539 -2.5918,-2.78516 -4.04492,-6.67578 -4.38477,-11.68359 0.0537,-0.76758 0.043,-1.91016 -0.0371,-3.41602 l -4.28027,0.22949 c 0.4541,8.52051 2.68066,15.4502 6.68652,20.80371 4.00977,5.35449 9.83399,7.95313 17.48828,7.80469 3.41504,-0.18164 6.41993,-1.13672 9.00977,-2.88574 2.58398,-1.74219 4.56641,-4.09766 5.94531,-7.06446 1.37696,-2.97363 2.04102,-6.29394 1.98828,-9.96386 -0.2207,-4.2041 -1.09765,-8.09278 -2.6289,-11.65625 -1.53223,-3.57129 -3.50293,-6.92578 -5.91114,-10.03809 -2.41113,-3.11621 -5.16113,-6.2168 -8.24121,-9.30078 -3.08691,-3.08496 -6.06836,-6.06152 -8.95507,-8.96484 z"
       style="fill:#cc0000;fill-opacity:1;fill-rule:nonzero;stroke:none"
       id="path3478"
       inkscape:connector-curvature="0" /><text
       xml:space="preserve"
       style="font-style:normal;font-variant:normal;font-weight:bold;font-stretch:normal;font-size:14px;line-height:125%;font-family:sans-serif;-inkscape-font-specification:'sans-serif Bold';letter-spacing:0px;word-spacing:0px;fill:#000000;fill-opacity:1;stroke:none;stroke-width:1px;stroke-linecap:butt;stroke-linejoin:miter;stroke-opacity:1"
       x="452.159"
       y="-367.43497"
       id="text3538"
       sodipodi:linespacing="125%"
       transform="scale(1,-1)"><tspan
         sodipodi:role="line"
         id="tspan3540"
         x="452.159"
         y="-367.43497">®</tspan></text>
</g></svg>